SplineFontDB: 3.2
FontName: Lionscript-Regular
FullName: Lionscript Regular
FamilyName: Lionscript
Weight: Book
Version: 001.001
ItalicAngle: 0
UnderlinePosition: -100
UnderlineWidth: 50
Ascent: 800
Descent: 200
InvalidEm: 0
sfntRevision: 0x00010000
LayerCount: 2
Layer: 0 1 "Back" 1
Layer: 1 1 "Fore" 0
XUID: [1021 99 -719662314 800485]
StyleMap: 0x0040
FSType: 0
OS2Version: 4
OS2_WeightWidthSlopeOnly: 0
OS2_UseTypoMetrics: 0
CreationTime: 1691446534
ModificationTime: 1746206825
PfmFamily: 17
TTFWeight: 400
TTFWidth: 5
LineGap: 90
VLineGap: 0
Panose: 2 0 5 3 0 0 0 0 0 0
OS2TypoAscent: 800
OS2TypoAOffset: 0
OS2TypoDescent: -200
OS2TypoDOffset: 0
OS2TypoLinegap: 90
OS2WinAscent: 784
OS2WinAOffset: 0
OS2WinDescent: 102
OS2WinDOffset: 0
HheadAscent: 784
HheadAOffset: 0
HheadDescent: -102
HheadDOffset: 0
OS2SubXSize: 650
OS2SubYSize: 700
OS2SubXOff: 0
OS2SubYOff: 140
OS2SupXSize: 650
OS2SupYSize: 700
OS2SupXOff: 0
OS2SupYOff: 480
OS2StrikeYSize: 49
OS2StrikeYPos: 258
OS2CapHeight: 717
OS2XHeight: 403
OS2Vendor: 'CLGR'
OS2CodePages: 00000001.00000000
OS2UnicodeRanges: 00000003.00000000.00000000.00000000
DEI: 91125
TtTable: prep
PUSHW_1
 511
SCANCTRL
PUSHB_1
 4
SCANTYPE
EndTTInstrs
ShortTable: cvt  2
  33
  633
EndShort
ShortTable: maxp 16
  1
  0
  66
  220
  3
  0
  0
  2
  0
  1
  1
  0
  64
  0
  0
  0
EndShort
LangName: 1033 "" "" "" "Calligraphr : Lionscript Regular : 07-08-2023" "" "Version 001.001" "" "" "" "" "Created with Calligraphr.com" "" "" "" "" "" "Lionscript" "Regular"
GaspTable: 1 65535 15 1
Encoding: UnicodeBmp
UnicodeInterp: none
NameList: AGL For New Fonts
DisplaySize: -48
AntiAlias: 1
FitToEm: 0
WinInfo: 112 16 4
BeginChars: 65538 100

StartChar: .notdef
Encoding: 65536 -1 0
Width: 364
GlyphClass: 1
Flags: W
LayerCount: 2
Fore
SplineSet
33 0 m 1,0,-1
 33 666 l 1,1,-1
 298 666 l 1,2,-1
 298 0 l 1,3,-1
 33 0 l 1,0,-1
66 33 m 1,4,-1
 265 33 l 1,5,-1
 265 633 l 1,6,-1
 66 633 l 1,7,-1
 66 33 l 1,4,-1
EndSplineSet
Validated: 1
EndChar

StartChar: exclam
Encoding: 33 33 5
Width: 259
GlyphClass: 1
Flags: W
LayerCount: 2
Fore
SplineSet
89 655 m 0,0,1
 137 685 137 685 166 685 c 2,2,-1
 170 685 l 1,3,-1
 196 684 l 1,4,-1
 194 594 l 2,5,6
 188 229 188 229 184 196 c 0,7,8
 179 170 179 170 167 170 c 0,9,10
 166 170 166 170 162 170.5 c 128,-1,11
 158 171 158 171 155 171 c 0,12,13
 141 171 141 171 138.5 173.5 c 128,-1,14
 136 176 136 176 136 191 c 0,15,16
 136 212 136 212 131 215 c 128,-1,17
 126 218 126 218 126 246 c 128,-1,18
 126 274 126 274 121 277 c 128,-1,19
 116 280 116 280 116 315 c 0,20,21
 116 351 116 351 111 354 c 128,-1,22
 106 357 106 357 106 385 c 0,23,24
 106 412 106 412 100 416 c 0,25,26
 95 419 95 419 95 452 c 128,-1,27
 95 485 95 485 90 488 c 128,-1,28
 85 491 85 491 85 514 c 128,-1,29
 85 537 85 537 80 540 c 128,-1,30
 75 543 75 543 75 560 c 128,-1,31
 75 577 75 577 69 581 c 0,32,33
 64 584 64 584 64 594 c 128,-1,34
 64 604 64 604 59 604 c 128,-1,35
 54 604 54 604 54 625 c 0,36,37
 54 638 54 638 55.5 641.5 c 128,-1,38
 57 645 57 645 64 645 c 0,39,40
 75 645 75 645 89 655 c 0,0,1
137 66 m 0,41,42
 149 79 149 79 165 79 c 0,43,44
 182 79 182 79 195.5 65 c 128,-1,45
 209 51 209 51 209 30 c 0,46,47
 209 10 209 10 191 -8 c 0,48,49
 174 -25 174 -25 160 -25 c 0,50,51
 159 -25 159 -25 156 -24.5 c 128,-1,52
 153 -24 153 -24 151 -24 c 2,53,-1
 129 -22 l 1,54,-1
 127 16 l 2,55,56
 127 20 127 20 126.5 26.5 c 128,-1,57
 126 33 126 33 126 35 c 0,58,59
 126 55 126 55 137 66 c 0,41,42
EndSplineSet
Validated: 1
EndChar

StartChar: quotedbl
Encoding: 34 34 6
AltUni2: 00201e.ffffffff.0 00201d.ffffffff.0 00201c.ffffffff.0 00201e.ffffffff.0 00201d.ffffffff.0 00201c.ffffffff.0
Width: 255
GlyphClass: 1
Flags: W
LayerCount: 2
Fore
SplineSet
50 470 m 1,0,-1
 50 625 l 1,1,-1
 71 625 l 2,2,3
 86 625 86 625 88.5 622.5 c 128,-1,4
 91 620 91 620 91 605 c 0,5,6
 91 584 91 584 96 581 c 0,7,8
 102 577 102 577 102 549 c 0,9,10
 102 522 102 522 96 522 c 0,11,12
 91 522 91 522 91 496 c 2,13,-1
 91 470 l 1,14,-1
 50 470 l 1,0,-1
143 594 m 2,15,-1
 143 615 l 1,16,-1
 168 613 l 1,17,-1
 192 612 l 1,18,-1
 193 591 l 2,19,20
 195 571 195 571 200 566 c 0,21,22
 204 562 204 562 204 543 c 0,23,24
 204 522 204 522 199 522 c 128,-1,25
 194 522 194 522 194 506 c 0,26,27
 194 495 194 495 191.5 493 c 128,-1,28
 189 491 189 491 174 491 c 2,29,-1
 153 491 l 1,30,-1
 153 532 l 2,31,32
 153 573 153 573 148 573 c 128,-1,33
 143 573 143 573 143 594 c 2,15,-1
EndSplineSet
Validated: 1
EndChar

StartChar: quotesingle
Encoding: 39 39 7
AltUni2: 00201a.ffffffff.0 002019.ffffffff.0 002018.ffffffff.0 00201a.ffffffff.0 002019.ffffffff.0 002018.ffffffff.0
Width: 162
GlyphClass: 1
Flags: W
LayerCount: 2
Fore
SplineSet
71 599 m 0,0,1
 71 610 71 610 73.5 612 c 128,-1,2
 76 614 76 614 91 614 c 2,3,-1
 112 614 l 1,4,-1
 112 581 l 2,5,6
 112 548 112 548 107 545 c 128,-1,7
 102 542 102 542 102 524 c 0,8,9
 102 508 102 508 96 504 c 0,10,11
 91 501 91 501 91 475 c 2,12,-1
 91 449 l 1,13,-1
 50 449 l 1,14,-1
 50 493 l 2,15,16
 50 537 50 537 55 540 c 128,-1,17
 60 543 60 543 60 560 c 0,18,19
 60 578 60 578 65 581 c 0,20,21
 71 585 71 585 71 599 c 0,0,1
EndSplineSet
Validated: 1
EndChar

StartChar: comma
Encoding: 44 44 8
Width: 194
GlyphClass: 1
Flags: W
LayerCount: 2
Fore
SplineSet
54 209 m 0,0,1
 58 213 58 213 84 211 c 0,2,3
 102 209 102 209 106 207.5 c 128,-1,4
 110 206 110 206 111 196 c 0,5,6
 113 181 113 181 120 181 c 0,7,8
 143 181 143 181 143 111 c 0,9,10
 143 70 143 70 136 58.5 c 128,-1,11
 129 47 129 47 103 47 c 2,12,-1
 81 47 l 1,13,-1
 81 67 l 2,14,15
 81 86 81 86 92 93 c 0,16,17
 102 100 102 100 101 113 c 0,18,19
 99 128 99 128 81 129 c 0,20,21
 62 131 62 131 57 136 c 0,22,23
 50 143 50 143 50 181 c 0,24,25
 50 203 50 203 54 209 c 0,0,1
EndSplineSet
Validated: 1
EndChar

StartChar: period
Encoding: 46 46 9
Width: 172
GlyphClass: 1
Flags: W
LayerCount: 2
Fore
SplineSet
58 156 m 0,0,1
 68 166 68 166 92 166 c 0,2,3
 109 166 109 166 115 160 c 128,-1,4
 121 154 121 154 121 120 c 0,5,6
 121 90 121 90 113.5 81.5 c 128,-1,7
 106 73 106 73 75 72 c 2,8,-1
 52 71 l 1,9,-1
 50 109 l 1,10,-1
 50 122 l 2,11,12
 50 147 50 147 58 156 c 0,0,1
EndSplineSet
Validated: 1
EndChar

StartChar: colon
Encoding: 58 58 10
Width: 201
GlyphClass: 1
Flags: W
LayerCount: 2
Fore
SplineSet
88 460 m 0,0,1
 92 466 92 466 115 464 c 2,2,-1
 139 462 l 1,3,-1
 141 441 l 2,4,5
 141 439 141 439 141.5 436 c 128,-1,6
 142 433 142 433 142 432 c 0,7,8
 142 420 142 420 132 413 c 0,9,10
 121 408 121 408 121 395 c 0,11,12
 121 386 121 386 118 384 c 128,-1,13
 115 382 115 382 101 382 c 0,14,15
 80 382 80 382 80 387 c 128,-1,16
 80 392 80 392 66 394 c 0,17,18
 56 395 56 395 53 400.5 c 128,-1,19
 50 406 50 406 50 420 c 0,20,21
 50 435 50 435 57.5 445 c 128,-1,22
 65 455 65 455 76 455 c 0,23,24
 85 455 85 455 88 460 c 0,0,1
68 177 m 0,25,26
 77 186 77 186 101 186 c 2,27,-1
 113 186 l 1,28,-1
 150 184 l 1,29,-1
 151 154 l 1,30,-1
 151 145 l 2,31,32
 151 104 151 104 124 104 c 0,33,34
 113 104 113 104 107 98 c 0,35,36
 102 93 102 93 82 95 c 2,37,-1
 62 96 l 1,38,-1
 61 132 l 1,39,-1
 61 147 l 2,40,41
 61 170 61 170 68 177 c 0,25,26
EndSplineSet
Validated: 1
EndChar

StartChar: semicolon
Encoding: 59 59 11
Width: 182
GlyphClass: 1
Flags: W
LayerCount: 2
Fore
SplineSet
58 509 m 0,0,1
 68 522 68 522 87 522 c 0,2,3
 102 522 102 522 113 513 c 0,4,5
 122 504 122 504 122 484 c 0,6,7
 122 466 122 466 116 453 c 0,8,9
 112 444 112 444 108.5 442 c 128,-1,10
 105 440 105 440 93 440 c 2,11,-1
 81 440 l 1,12,-1
 53 442 l 1,13,-1
 51 469 l 1,14,-1
 51 478 l 2,15,16
 51 498 51 498 58 509 c 0,0,1
50 168 m 2,17,18
 50 193 50 193 54 197.5 c 128,-1,19
 58 202 58 202 82 202 c 0,20,21
 107 202 107 202 120 188 c 0,22,23
 128 179 128 179 129.5 170 c 128,-1,24
 131 161 131 161 132 131 c 0,25,26
 132 123 132 123 132 119 c 2,27,-1
 132 63 l 1,28,-1
 114 45 l 2,29,30
 96 27 96 27 73 27 c 2,31,-1
 50 27 l 1,32,-1
 50 47 l 2,33,34
 50 68 50 68 55 68 c 0,35,36
 59 68 59 68 75 84 c 128,-1,37
 91 100 91 100 91 120 c 0,38,39
 91 135 91 135 88.5 137.5 c 128,-1,40
 86 140 86 140 71 140 c 2,41,-1
 50 140 l 1,42,-1
 50 168 l 2,17,18
EndSplineSet
Validated: 1
EndChar

StartChar: question
Encoding: 63 63 12
Width: 393
GlyphClass: 1
Flags: W
LayerCount: 2
Fore
SplineSet
127 625 m 0,0,1
 134 625 134 625 141.5 630 c 128,-1,2
 149 635 149 635 157 635 c 0,3,4
 169 635 169 635 172 640 c 128,-1,5
 175 645 175 645 231 645 c 2,6,-1
 287 645 l 1,7,-1
 308 622 l 2,8,9
 329 599 329 599 329 578 c 0,10,11
 329 559 329 559 335 555 c 0,12,13
 340 552 340 552 340 516 c 0,14,15
 340 481 340 481 335 478 c 0,16,17
 329 474 329 474 329 466 c 0,18,19
 329 459 329 459 312.5 444 c 128,-1,20
 296 429 296 429 289 429 c 128,-1,21
 282 429 282 429 269.5 410 c 128,-1,22
 257 391 257 391 257 381 c 0,23,24
 257 367 257 367 252 364 c 128,-1,25
 247 361 247 361 247 312 c 2,26,-1
 247 264 l 1,27,-1
 206 264 l 1,28,-1
 206 330 l 2,29,30
 206 398 206 398 211 401 c 128,-1,31
 216 404 216 404 216 418 c 0,32,33
 216 429 216 429 231 449.5 c 128,-1,34
 246 470 246 470 254 470 c 0,35,36
 262 471 262 471 275 484.5 c 128,-1,37
 288 498 288 498 289 507 c 128,-1,38
 290 516 290 516 290 530 c 0,39,40
 290 561 290 561 270 582 c 0,41,42
 253 604 253 604 231 604 c 0,43,44
 211 604 211 604 208 599 c 128,-1,45
 205 594 205 594 193 594 c 0,46,47
 180 594 180 594 177 589 c 128,-1,48
 174 584 174 584 164 584 c 0,49,50
 155 584 155 584 134 564.5 c 128,-1,51
 113 545 113 545 113 536 c 0,52,53
 113 526 113 526 103 509 c 0,54,55
 92 490 92 490 92 471 c 0,56,57
 92 460 92 460 97 457 c 0,58,59
 103 453 103 453 103 426 c 2,60,-1
 103 398 l 1,61,-1
 82 398 l 2,62,63
 61 398 61 398 61 408 c 128,-1,64
 61 418 61 418 56 421 c 128,-1,65
 51 424 51 424 51 475 c 128,-1,66
 51 526 51 526 61 545 c 0,67,68
 72 563 72 563 72 572 c 128,-1,69
 72 581 72 581 94.5 603 c 128,-1,70
 117 625 117 625 127 625 c 0,0,1
196 86 m 1,71,-1
 196 94 l 2,72,73
 196 114 196 114 204 121.5 c 128,-1,74
 212 129 212 129 232 129 c 2,75,-1
 239 129 l 1,76,-1
 265 127 l 1,77,-1
 265 60 l 1,78,-1
 198 60 l 1,79,-1
 196 86 l 1,71,-1
EndSplineSet
Validated: 1
EndChar

StartChar: A
Encoding: 65 65 13
Width: 438
GlyphClass: 1
Flags: W
LayerCount: 2
Fore
SplineSet
260 509 m 128,-1,1
 260 521 260 521 255 529.5 c 128,-1,2
 250 538 250 538 250 550 c 0,3,4
 250 570 250 570 244 570 c 0,5,6
 239 570 239 570 234 560 c 128,-1,7
 229 550 229 550 229 538 c 0,8,9
 229 527 229 527 224 519 c 128,-1,10
 219 511 219 511 219 501 c 0,11,12
 219 486 219 486 214 483 c 128,-1,13
 209 480 209 480 209 470 c 0,14,15
 209 461 209 461 203 449 c 2,16,-1
 193 429 l 2,17,18
 188 419 188 419 188 411 c 0,19,20
 188 402 188 402 178 385 c 0,21,22
 171 371 171 371 171 369 c 0,23,24
 171 368 171 368 173 368 c 0,25,26
 176 368 176 368 188 377 c 0,27,28
 201 388 201 388 210 388 c 128,-1,29
 219 388 219 388 222 393 c 128,-1,30
 225 398 225 398 253 398 c 2,31,-1
 281 398 l 1,32,-1
 281 418 l 2,33,34
 281 439 281 439 276 442 c 0,35,36
 270 446 270 446 270 465 c 0,37,38
 270 478 270 478 265 487.5 c 128,-1,0
 260 497 260 497 260 509 c 128,-1,1
178 537 m 0,39,40
 178 547 178 547 183 555.5 c 128,-1,41
 188 564 188 564 188 576 c 0,42,43
 188 593 188 593 193 596 c 128,-1,44
 198 599 198 599 198 627 c 0,45,46
 198 654 198 654 207 670 c 0,47,48
 212 681 212 681 217 684 c 128,-1,49
 222 687 222 687 233 687 c 0,50,51
 249 687 249 687 259.5 678.5 c 128,-1,52
 270 670 270 670 270 658 c 0,53,54
 270 647 270 647 276 643 c 0,55,56
 281 640 281 640 281 625 c 0,57,58
 281 615 281 615 286 606.5 c 128,-1,59
 291 598 291 598 291 586 c 128,-1,60
 291 574 291 574 296 565.5 c 128,-1,61
 301 557 301 557 301 545 c 0,62,63
 301 528 301 528 307 524 c 0,64,65
 312 521 312 521 312 501 c 128,-1,66
 312 481 312 481 317 478 c 128,-1,67
 322 475 322 475 322 449 c 0,68,69
 322 432 322 432 327 421 c 128,-1,70
 332 410 332 410 332 393 c 0,71,72
 332 368 332 368 338 364 c 0,73,74
 343 361 343 361 343 330 c 0,75,76
 343 301 343 301 357 271 c 0,77,78
 363 261 363 261 363 246 c 0,79,80
 363 237 363 237 368.5 230 c 128,-1,81
 374 223 374 223 374 215 c 0,82,83
 374 202 374 202 379 199 c 128,-1,84
 384 196 384 196 384 163 c 2,85,-1
 384 130 l 1,86,-1
 363 130 l 2,87,88
 348 130 348 130 345.5 132 c 128,-1,89
 343 134 343 134 343 145 c 0,90,91
 343 155 343 155 337.5 162.5 c 128,-1,92
 332 170 332 170 332 179 c 128,-1,93
 332 188 332 188 327 195 c 128,-1,94
 322 202 322 202 322 210 c 0,95,96
 322 224 322 224 307 254 c 0,97,98
 301 266 301 266 301 294 c 0,99,100
 301 325 301 325 296 328 c 128,-1,101
 291 331 291 331 291 344 c 128,-1,102
 291 357 291 357 276 357 c 128,-1,103
 261 357 261 357 258 352 c 0,104,105
 254 346 254 346 246 346 c 0,106,107
 239 346 239 346 225 337 c 0,108,109
 212 327 212 327 180 325 c 0,110,111
 159 324 159 324 154.5 321.5 c 128,-1,112
 150 319 150 319 148 310 c 0,113,114
 147 304 147 304 141.5 294.5 c 128,-1,115
 136 285 136 285 136 278 c 0,116,117
 136 266 136 266 126 246.5 c 128,-1,118
 116 227 116 227 116 213 c 0,119,120
 116 202 116 202 111 194 c 128,-1,121
 106 186 106 186 106 174 c 0,122,123
 106 157 106 157 100 153 c 0,124,125
 95 150 95 150 95 129 c 0,126,127
 95 114 95 114 92.5 111.5 c 128,-1,128
 90 109 90 109 75 109 c 2,129,-1
 54 109 l 1,130,-1
 54 147 l 2,131,132
 54 186 54 186 59 189 c 128,-1,133
 64 192 64 192 64 210 c 0,134,135
 64 222 64 222 69.5 230 c 128,-1,136
 75 238 75 238 75 249 c 0,137,138
 75 266 75 266 81 276 c 0,139,140
 95 305 95 305 95 315 c 0,141,142
 95 322 95 322 100.5 329 c 128,-1,143
 106 336 106 336 106 344 c 128,-1,144
 106 352 106 352 111 358.5 c 128,-1,145
 116 365 116 365 116 372 c 0,146,147
 116 378 116 378 131.5 410.5 c 128,-1,148
 147 443 147 443 147 447 c 0,149,150
 147 457 147 457 157 476 c 128,-1,151
 167 495 167 495 167 506 c 0,152,153
 167 515 167 515 173 519 c 0,154,155
 178 522 178 522 178 537 c 0,39,40
EndSplineSet
Validated: 1
EndChar

StartChar: B
Encoding: 66 66 14
Width: 512
GlyphClass: 1
Flags: W
LayerCount: 2
Fore
SplineSet
377 344 m 128,-1,1
 361 353 361 353 342.5 355 c 128,-1,2
 324 357 324 357 247 357 c 2,3,-1
 139 357 l 1,4,-1
 139 120 l 1,5,-1
 159 120 l 2,6,7
 179 120 179 120 182 125 c 128,-1,8
 185 130 185 130 196 130 c 128,-1,9
 207 130 207 130 215 135 c 0,10,11
 221 139 221 139 239.5 146 c 128,-1,12
 258 153 258 153 263 156 c 0,13,14
 271 161 271 161 280 161 c 128,-1,15
 289 161 289 161 308 176 c 0,16,17
 317 184 317 184 341 199 c 0,18,19
 354 205 354 205 380.5 235 c 128,-1,20
 407 265 407 265 407 273 c 128,-1,21
 407 281 407 281 412 289 c 0,22,23
 414 293 414 293 414 297 c 0,24,25
 414 308 414 308 403.5 321.5 c 128,-1,0
 393 335 393 335 377 344 c 128,-1,1
265 640 m 128,-1,27
 262 645 262 645 217 645 c 0,28,29
 176 645 176 645 172 641 c 0,30,31
 167 636 167 636 154 634 c 0,32,33
 141 633 141 633 140 619 c 0,34,35
 138 604 138 604 133 604 c 0,36,37
 130 604 130 604 128.5 598 c 128,-1,38
 127 592 127 592 128.5 585 c 128,-1,39
 130 578 130 578 133 576 c 0,40,41
 139 572 139 572 139 486 c 2,42,-1
 139 398 l 1,43,-1
 166 413 l 2,44,45
 172 416 172 416 270 480 c 0,46,47
 303 502 303 502 350 547 c 0,48,49
 367 564 367 564 367 573 c 0,50,51
 367 578 367 578 366 581 c 0,52,53
 357 635 357 635 293 635 c 0,54,26
 268 635 268 635 265 640 c 128,-1,27
384 161 m 0,55,56
 381 161 381 161 350.5 140.5 c 128,-1,57
 320 120 320 120 316 120 c 0,58,59
 307 120 307 120 299 115 c 0,60,61
 294 113 294 113 275.5 105 c 128,-1,62
 257 97 257 97 251 93 c 0,63,64
 244 89 244 89 232 89 c 0,65,66
 221 89 221 89 218 84 c 0,67,68
 214 78 214 78 166 78 c 0,69,70
 133 78 133 78 125.5 79.5 c 128,-1,71
 118 81 118 81 118 89 c 0,72,73
 118 99 118 99 108 99 c 0,74,75
 97 99 97 99 97 318 c 128,-1,76
 97 537 97 537 92 540 c 128,-1,77
 87 543 87 543 87 565 c 0,78,79
 87 588 87 588 82 591 c 128,-1,80
 77 594 77 594 77 606 c 0,81,82
 77 617 77 617 66 630 c 0,83,84
 56 643 56 643 56 667 c 0,85,86
 56 679 56 679 60 683 c 0,87,88
 63 687 63 687 80 687 c 0,89,90
 108 687 108 687 108 681 c 0,91,92
 108 676 108 676 120 676 c 0,93,94
 133 676 133 676 136 681 c 0,95,96
 140 687 140 687 218 687 c 0,97,98
 297 687 297 687 301 681 c 0,99,100
 304 676 304 676 329 676 c 0,101,102
 355 676 355 676 369 668 c 0,103,104
 383 661 383 661 395 646.5 c 128,-1,105
 407 632 407 632 407 621 c 128,-1,106
 407 610 407 610 412 607 c 128,-1,107
 417 604 417 604 417 570 c 0,108,109
 417 546 417 546 413.5 538 c 128,-1,110
 410 530 410 530 392 512 c 0,111,112
 337 459 337 459 307 439 c 0,113,114
 293 431 293 431 273 416 c 2,115,-1
 250 401 l 1,116,-1
 319 399 l 2,117,118
 390 397 390 397 401 392 c 0,119,120
 435 376 435 376 446.5 356 c 128,-1,121
 458 336 458 336 458 294 c 0,122,123
 458 254 458 254 453 251 c 128,-1,124
 448 248 448 248 448 239 c 0,125,126
 448 232 448 232 419 196.5 c 128,-1,127
 390 161 390 161 384 161 c 0,55,56
EndSplineSet
Validated: 1
EndChar

StartChar: C
Encoding: 67 67 15
Width: 551
GlyphClass: 1
Flags: W
LayerCount: 2
Fore
SplineSet
206 654 m 0,0,1
 220 661 220 661 235 662.5 c 128,-1,2
 250 664 250 664 307 665 c 2,3,-1
 332 665 l 2,4,5
 388 665 388 665 392 661 c 0,6,7
 395 656 395 656 406 656 c 128,-1,8
 417 656 417 656 426 643 c 128,-1,9
 435 630 435 630 435 612 c 0,10,11
 435 598 435 598 432.5 596 c 128,-1,12
 430 594 430 594 415 594 c 0,13,14
 394 594 394 594 388 604 c 0,15,16
 381 614 381 614 370 614 c 128,-1,17
 359 614 359 614 355 620 c 0,18,19
 352 625 352 625 309 625 c 0,20,21
 269 625 269 625 245 613 c 0,22,23
 216 598 216 598 185.5 566 c 128,-1,24
 155 534 155 534 142 504 c 0,25,26
 137 493 137 493 127 472 c 128,-1,27
 117 451 117 451 111 439 c 128,-1,28
 105 427 105 427 105 414 c 0,29,30
 105 398 105 398 100 395 c 128,-1,31
 95 392 95 392 95 370 c 0,32,33
 95 347 95 347 100 344 c 128,-1,34
 105 341 105 341 105 330 c 0,35,36
 105 321 105 321 129 286 c 0,37,38
 163 234 163 234 232 198 c 0,39,40
 282 171 282 171 306 171 c 0,41,42
 327 171 327 171 330 166 c 128,-1,43
 333 161 333 161 347 161 c 0,44,45
 366 161 366 161 382 169 c 0,46,47
 396 175 396 175 410 189 c 0,48,49
 423 202 423 202 427 202 c 0,50,51
 434 202 434 202 446 212 c 0,52,53
 459 223 459 223 478 223 c 0,54,55
 492 223 492 223 494.5 220.5 c 128,-1,56
 497 218 497 218 497 203 c 0,57,58
 497 183 497 183 482 172 c 128,-1,59
 467 161 467 161 463 161 c 128,-1,60
 459 161 459 161 446 148 c 0,61,62
 429 131 429 131 411 125.5 c 128,-1,63
 393 120 393 120 350 120 c 0,64,65
 297 120 297 120 294 125 c 128,-1,66
 291 130 291 130 270 130 c 0,67,68
 247 130 247 130 175 168 c 0,69,70
 121 198 121 198 88 248 c 0,71,72
 64 285 64 285 64 294 c 0,73,74
 64 305 64 305 59 308 c 0,75,76
 54 310 54 310 54 370 c 0,77,78
 54 428 54 428 59 431 c 128,-1,79
 64 434 64 434 64 450 c 0,80,81
 64 459 64 459 66.5 466.5 c 128,-1,82
 69 474 69 474 73.5 483 c 128,-1,83
 78 492 78 492 79 495 c 0,84,85
 81 498 81 498 84 505 c 128,-1,86
 87 512 87 512 88 514 c 2,87,-1
 101 540 l 2,88,89
 115 570 115 570 146.5 604 c 128,-1,90
 178 638 178 638 206 654 c 0,0,1
EndSplineSet
Validated: 1
EndChar

StartChar: D
Encoding: 68 68 16
Width: 459
GlyphClass: 1
Flags: W
LayerCount: 2
Fore
SplineSet
355 547 m 0,0,1
 355 553 355 553 344.5 565 c 128,-1,2
 334 577 334 577 334 582 c 0,3,4
 334 589 334 589 328 589 c 0,5,6
 319 589 319 589 303 607 c 0,7,8
 284 626 284 626 268 633 c 128,-1,9
 252 640 252 640 226 640 c 0,10,11
 196 640 196 640 193 645 c 0,12,13
 189 651 189 651 164 651 c 0,14,15
 148 651 148 651 143 649 c 128,-1,16
 138 647 138 647 138 640 c 0,17,18
 138 630 138 630 133 630 c 128,-1,19
 128 630 128 630 128 612 c 128,-1,20
 128 594 128 594 133 591 c 128,-1,21
 138 588 138 588 138 490 c 128,-1,22
 138 392 138 392 133 390 c 0,23,24
 128 387 128 387 128 372 c 128,-1,25
 128 357 128 357 133 354 c 128,-1,26
 138 351 138 351 138 253 c 0,27,28
 138 156 138 156 144 156 c 0,29,30
 146 156 146 156 180 171 c 0,31,32
 190 176 190 176 205 176 c 0,33,34
 221 176 221 176 224 181 c 0,35,36
 228 187 228 187 238 187 c 0,37,38
 250 187 250 187 257 194 c 0,39,40
 263 201 263 201 279 209.5 c 128,-1,41
 295 218 295 218 303 218 c 0,42,43
 310 218 310 218 322 235 c 128,-1,44
 334 252 334 252 334 261 c 0,45,46
 334 268 334 268 340 272 c 0,47,48
 345 275 345 275 345 292 c 0,49,50
 345 310 345 310 350 313 c 128,-1,51
 355 316 355 316 355 339 c 0,52,53
 355 361 355 361 360 364 c 128,-1,54
 365 367 365 367 365 449 c 0,55,56
 365 532 365 532 360 535 c 128,-1,57
 355 538 355 538 355 547 c 0,0,1
77 622 m 0,58,59
 77 630 77 630 71.5 637 c 128,-1,60
 66 644 66 644 66 651 c 0,61,62
 66 661 66 661 61 661 c 128,-1,63
 56 661 56 661 56 687 c 2,64,-1
 56 712 l 1,65,-1
 76 712 l 2,66,67
 94 712 94 712 101 702 c 0,68,69
 106 695 106 695 116 693.5 c 128,-1,70
 126 692 126 692 166 692 c 0,71,72
 226 692 226 692 229 687 c 0,73,74
 233 681 233 681 259 681 c 0,75,76
 302 681 302 681 334 648 c 0,77,78
 350 630 350 630 359 630 c 0,79,80
 365 630 365 630 370 618 c 0,81,82
 376 605 376 605 383 599 c 0,83,84
 391 593 391 593 391 584 c 0,85,86
 391 576 391 576 397 570 c 0,87,88
 406 561 406 561 406 399 c 0,89,90
 406 332 406 332 402 329 c 0,91,92
 396 325 396 325 396 303 c 0,93,94
 396 280 396 280 391 277 c 128,-1,95
 386 274 386 274 386 256 c 0,96,97
 386 239 386 239 381 236 c 128,-1,98
 376 233 376 233 376 225 c 0,99,100
 376 216 376 216 361.5 196 c 128,-1,101
 347 176 347 176 340 176 c 0,102,103
 332 176 332 176 315.5 168 c 128,-1,104
 299 160 299 160 293 153 c 0,105,106
 285 145 285 145 275 145 c 0,107,108
 263 145 263 145 260 140 c 128,-1,109
 257 135 257 135 241 135 c 0,110,111
 223 135 223 135 195 120 c 0,112,113
 188 115 188 115 152 115 c 0,114,115
 118 115 118 115 118 120 c 128,-1,116
 118 125 118 125 108 125 c 0,117,118
 97 125 97 125 97 220 c 128,-1,119
 97 315 97 315 92 318 c 128,-1,120
 87 321 87 321 87 372 c 128,-1,121
 87 423 87 423 92 426 c 128,-1,122
 97 429 97 429 97 491 c 0,123,124
 97 552 97 552 92 555 c 128,-1,125
 87 558 87 558 87 581 c 128,-1,126
 87 604 87 604 82 607 c 128,-1,127
 77 610 77 610 77 622 c 0,58,59
EndSplineSet
Validated: 1
EndChar

StartChar: E
Encoding: 69 69 17
Width: 493
GlyphClass: 1
Flags: W
LayerCount: 2
Fore
SplineSet
298 635 m 0,0,1
 288 635 288 635 280 640 c 128,-1,2
 272 645 272 645 260 645 c 0,3,4
 242 645 242 645 239 640 c 128,-1,5
 236 635 236 635 190 635 c 0,6,7
 143 635 143 635 136 628 c 128,-1,8
 129 621 129 621 132 618 c 0,9,10
 142 608 142 608 147 500 c 0,11,12
 149 462 149 462 151 450 c 128,-1,13
 153 438 153 438 161 438 c 0,14,15
 168 438 168 438 187 449 c 0,16,17
 205 460 205 460 224 460 c 0,18,19
 232 460 232 460 235 459.5 c 128,-1,20
 238 459 238 459 240 457 c 128,-1,21
 242 455 242 455 242 450 c 0,22,23
 242 449 242 449 241.5 445 c 128,-1,24
 241 441 241 441 241 438 c 0,25,26
 240 417 240 417 224 408 c 0,27,28
 208 398 208 398 197 398 c 0,29,30
 184 396 184 396 182 393 c 0,31,32
 179 388 179 388 164 388 c 2,33,-1
 149 388 l 1,34,-1
 149 321 l 2,35,36
 149 254 149 254 144 251 c 0,37,38
 138 247 138 247 138 209 c 0,39,40
 138 183 138 183 139.5 177 c 128,-1,41
 141 171 141 171 149 171 c 0,42,43
 161 171 161 171 174 180 c 0,44,45
 182 185 182 185 201 194.5 c 128,-1,46
 220 204 220 204 227 208 c 128,-1,47
 234 212 234 212 251 212 c 0,48,49
 266 212 266 212 270 218 c 0,50,51
 272 223 272 223 324 223 c 128,-1,52
 376 223 376 223 378 218 c 0,53,54
 382 212 382 212 394 212 c 0,55,56
 403 212 403 212 405 208 c 128,-1,57
 407 204 407 204 407 187 c 2,58,-1
 407 161 l 1,59,-1
 386 161 l 2,60,61
 365 161 365 161 365 166 c 128,-1,62
 365 171 365 171 355 171 c 128,-1,63
 345 171 345 171 342 176 c 0,64,65
 340 181 340 181 324 181 c 128,-1,66
 308 181 308 181 306 176 c 0,67,68
 303 171 303 171 287 171 c 0,69,70
 279 171 279 171 272.5 169.5 c 128,-1,71
 266 168 266 168 262 166 c 128,-1,72
 258 164 258 164 251 160.5 c 128,-1,73
 244 157 244 157 239 155 c 0,74,75
 236 154 236 154 222.5 145.5 c 128,-1,76
 209 137 209 137 198.5 133.5 c 128,-1,77
 188 130 188 130 176 130 c 0,78,79
 155 130 155 130 146 120 c 0,80,81
 137 109 137 109 117 109 c 2,82,-1
 97 109 l 1,83,-1
 97 196 l 2,84,85
 97 283 97 283 102 288 c 0,86,87
 106 292 106 292 106 369 c 0,88,89
 106 516 106 516 98 550 c 0,90,91
 97 556 97 556 93.5 572 c 128,-1,92
 90 588 90 588 89 593 c 0,93,94
 85 609 85 609 81 612 c 128,-1,95
 77 615 77 615 77 625 c 0,96,97
 77 634 77 634 66 641 c 0,98,99
 56 648 56 648 56 667 c 2,100,-1
 56 687 l 1,101,-1
 79 687 l 2,102,103
 101 687 101 687 105 681 c 0,104,105
 108 676 108 676 154 676 c 0,106,107
 186 676 186 676 205 681.5 c 128,-1,108
 224 687 224 687 260 687 c 0,109,110
 312 687 312 687 316 681 c 0,111,112
 319 676 319 676 352 676 c 128,-1,113
 385 676 385 676 388 681 c 0,114,115
 392 687 392 687 415 687 c 2,116,-1
 437 687 l 1,117,-1
 437 668 l 2,118,119
 437 636 437 636 400 635 c 0,120,121
 381 635 381 635 378 630 c 128,-1,122
 375 625 375 625 347 625 c 128,-1,123
 319 625 319 625 316 630 c 128,-1,124
 313 635 313 635 298 635 c 0,0,1
EndSplineSet
Validated: 1
EndChar

StartChar: F
Encoding: 70 70 18
Width: 422
GlyphClass: 1
Flags: W
LayerCount: 2
Fore
SplineSet
342 707 m 0,0,1
 335 707 335 707 303.5 697 c 128,-1,2
 272 687 272 687 266 687 c 0,3,4
 251 687 251 687 160 640 c 0,5,6
 146 633 146 633 142.5 629.5 c 128,-1,7
 139 626 139 626 141 621 c 0,8,9
 150 601 150 601 157 519 c 2,10,-1
 160 482 l 1,11,-1
 202 503 l 2,12,13
 246 524 246 524 251 529 c 0,14,15
 260 537 260 537 284.5 545 c 128,-1,16
 309 553 309 553 325 553 c 0,17,18
 339 553 339 553 341.5 550 c 128,-1,19
 344 547 344 547 344 532 c 0,20,21
 344 518 344 518 341.5 514.5 c 128,-1,22
 339 511 339 511 328 507 c 0,23,24
 303 496 303 496 298 493 c 0,25,26
 264 473 264 473 226 456 c 128,-1,27
 188 439 188 439 179 439 c 2,28,-1
 166 439 l 1,29,-1
 168 269 l 1,30,-1
 169 99 l 1,31,-1
 150 99 l 2,32,33
 131 99 131 99 125 108 c 0,34,35
 118 118 118 118 118 143 c 0,36,37
 118 161 118 161 123 161 c 0,38,39
 126 161 126 161 126 229 c 0,40,41
 126 372 126 372 118 460 c 0,42,43
 110 555 110 555 99.5 590 c 128,-1,44
 89 625 89 625 70 625 c 0,45,46
 61 625 61 625 58.5 626.5 c 128,-1,47
 56 628 56 628 56 636 c 0,48,49
 56 637 56 637 56.5 641.5 c 128,-1,50
 57 646 57 646 57 649 c 2,51,-1
 58 674 l 1,52,-1
 88 675 l 2,53,54
 104 676 104 676 116.5 680 c 128,-1,55
 129 684 129 684 144 692.5 c 128,-1,56
 159 701 159 701 164 703 c 0,57,58
 219 728 219 728 229 728 c 0,59,60
 236 728 236 728 270 738.5 c 128,-1,61
 304 749 304 749 313 754 c 0,62,63
 321 758 321 758 343 758 c 2,64,-1
 365 759 l 1,65,-1
 365 739 l 2,66,67
 365 707 365 707 342 707 c 0,0,1
EndSplineSet
Validated: 1
EndChar

StartChar: G
Encoding: 71 71 19
Width: 540
GlyphClass: 1
Flags: W
LayerCount: 2
Fore
SplineSet
115 424 m 0,0,1
 115 414 115 414 110 405.5 c 128,-1,2
 105 397 105 397 105 385 c 0,3,4
 105 368 105 368 99 364 c 0,5,6
 94 361 94 361 94 313 c 0,7,8
 94 267 94 267 105 246 c 0,9,10
 115 229 115 229 115 221 c 0,11,12
 115 210 115 210 139 168 c 128,-1,13
 163 126 163 126 178 111 c 0,14,15
 198 90 198 90 209 90 c 0,16,17
 216 90 216 90 222 99 c 0,18,19
 229 109 229 109 235 109 c 0,20,21
 245 109 245 109 285.5 156.5 c 128,-1,22
 326 204 326 204 340 232 c 0,23,24
 354 258 354 258 357 261 c 0,25,26
 362 266 362 266 362 275 c 0,27,28
 362 286 362 286 355 296 c 0,29,30
 348 305 348 305 331 305 c 0,31,32
 321 305 321 305 321 300 c 128,-1,33
 321 295 321 295 300 295 c 2,34,-1
 280 295 l 1,35,-1
 280 318 l 2,36,37
 280 329 280 329 282 335.5 c 128,-1,38
 284 342 284 342 286.5 343.5 c 128,-1,39
 289 345 289 345 296 347 c 128,-1,40
 303 349 303 349 307 352 c 0,41,42
 315 357 315 357 336 357 c 128,-1,43
 357 357 357 357 360 362 c 128,-1,44
 363 367 363 367 375 367 c 0,45,46
 388 367 388 367 391 372 c 128,-1,47
 394 377 394 377 440 377 c 2,48,-1
 486 377 l 1,49,-1
 486 336 l 1,50,-1
 458 336 l 2,51,52
 430 336 430 336 427 331 c 128,-1,53
 424 326 424 326 413 326 c 0,54,55
 406 326 406 326 405 319 c 128,-1,56
 404 312 404 312 404 278 c 0,57,58
 404 256 404 256 402.5 244.5 c 128,-1,59
 401 233 401 233 399.5 229 c 128,-1,60
 398 225 398 225 391.5 214.5 c 128,-1,61
 385 204 385 204 381 196 c 0,62,63
 367 168 367 168 324.5 118 c 128,-1,64
 282 68 282 68 272 68 c 0,65,66
 264 68 264 68 259 58 c 0,67,68
 255 51 255 51 246.5 49 c 128,-1,69
 238 47 238 47 209 47 c 2,70,-1
 163 47 l 1,71,-1
 140 72 l 2,72,73
 123 89 123 89 98.5 131.5 c 128,-1,74
 74 174 74 174 74 185 c 0,75,76
 74 192 74 192 63 210 c 0,77,78
 56 222 56 222 54.5 239 c 128,-1,79
 53 256 53 256 53 313 c 0,80,81
 53 398 53 398 58 401 c 128,-1,82
 63 404 63 404 63 421 c 0,83,84
 63 439 63 439 68 442 c 0,85,86
 74 446 74 446 74 460 c 0,87,88
 74 471 74 471 87 498.5 c 128,-1,89
 100 526 100 526 115 547 c 0,90,91
 125 560 125 560 125 566 c 0,92,93
 125 570 125 570 139 584 c 0,94,95
 152 598 152 598 157 608 c 0,96,97
 159 613 159 613 162 616 c 128,-1,98
 165 619 165 619 168.5 622 c 128,-1,99
 172 625 172 625 175 626.5 c 128,-1,100
 178 628 178 628 183.5 631 c 128,-1,101
 189 634 189 634 193 636 c 0,102,103
 206 645 206 645 225 645 c 0,104,105
 242 645 242 645 246 651 c 0,106,107
 249 656 249 656 300 656 c 0,108,109
 352 656 352 656 355 651 c 0,110,111
 359 645 359 645 368 645 c 0,112,113
 381 645 381 645 397 632 c 0,114,115
 409 623 409 623 411.5 615.5 c 128,-1,116
 414 608 414 608 414 580 c 2,117,-1
 414 542 l 1,118,-1
 393 542 l 2,119,120
 378 542 378 542 375.5 544.5 c 128,-1,121
 373 547 373 547 373 562 c 0,122,123
 373 582 373 582 358 593 c 128,-1,124
 343 604 343 604 332 604 c 128,-1,125
 321 604 321 604 318 609 c 128,-1,126
 315 614 315 614 300 614 c 0,127,128
 290 614 290 614 281.5 609 c 128,-1,129
 273 604 273 604 261 604 c 0,130,131
 242 604 242 604 229 595 c 0,132,133
 210 583 210 583 207 582 c 0,134,135
 197 578 197 578 197 572 c 0,136,137
 197 563 197 563 182 550 c 0,138,139
 166 534 166 534 166 530 c 0,140,141
 166 524 166 524 156 511 c 0,142,143
 141 490 141 490 128 462.5 c 128,-1,144
 115 435 115 435 115 424 c 0,0,1
EndSplineSet
Validated: 1
EndChar

StartChar: H
Encoding: 72 72 20
Width: 508
GlyphClass: 1
Flags: W
LayerCount: 2
Fore
SplineSet
118 657 m 0,0,1
 118 646 118 646 123 637.5 c 128,-1,2
 128 629 128 629 128 617 c 0,3,4
 128 600 128 600 133 597 c 0,5,6
 139 593 139 593 149 529 c 0,7,8
 160 448 160 448 165.5 428 c 128,-1,9
 171 408 171 408 182 408 c 128,-1,10
 193 408 193 408 198 413 c 0,11,12
 202 416 202 416 242 430 c 0,13,14
 275 441 275 441 307 457 c 0,15,16
 335 470 335 470 341 470 c 0,17,18
 349 470 349 470 352 475 c 128,-1,19
 355 480 355 480 371 480 c 2,20,-1
 386 480 l 1,21,-1
 383 526 l 2,22,23
 382 537 382 537 381.5 559 c 128,-1,24
 381 581 381 581 380 611.5 c 128,-1,25
 379 642 379 642 378 660 c 2,26,-1
 375 748 l 1,27,-1
 416 748 l 1,28,-1
 419 678 l 2,29,30
 424 542 424 542 437 455 c 0,31,32
 456 322 456 322 456 188 c 0,33,34
 456 157 456 157 453 154 c 0,35,36
 448 149 448 149 448 124 c 2,37,-1
 448 99 l 1,38,-1
 407 99 l 1,39,-1
 407 142 l 2,40,41
 407 185 407 185 412 190 c 0,42,43
 416 194 416 194 416 208 c 0,44,45
 416 218 416 218 415 224 c 0,46,47
 414 232 414 232 407 315 c 0,48,49
 398 437 398 437 391 437 c 0,50,51
 390 437 390 437 390 436 c 0,52,53
 385 429 385 429 377 429 c 0,54,55
 373 429 373 429 343 415 c 0,56,57
 317 402 317 402 278 389 c 0,58,59
 238 376 238 376 234 372 c 0,60,61
 229 367 229 367 204 367 c 2,62,-1
 179 367 l 1,63,-1
 182 340 l 2,64,65
 183 332 183 332 185 310.5 c 128,-1,66
 187 289 187 289 188 282 c 0,67,68
 192 250 192 250 196 246 c 128,-1,69
 200 242 200 242 200 194 c 0,70,71
 200 140 200 140 195 138 c 0,72,73
 190 135 190 135 190 101 c 2,74,-1
 190 68 l 1,75,-1
 149 68 l 1,76,-1
 149 119 l 2,77,78
 149 171 149 171 154 174 c 128,-1,79
 159 177 159 177 159 190 c 0,80,81
 159 205 159 205 154 210 c 0,82,83
 151 213 151 213 147 246 c 0,84,85
 143 295 143 295 128 370 c 0,86,87
 119 418 119 418 108 493 c 0,88,89
 98 557 98 557 92 561 c 0,90,91
 87 564 87 564 87 581 c 0,92,93
 87 593 87 593 82 601.5 c 128,-1,94
 77 610 77 610 77 621 c 0,95,96
 77 638 77 638 66 653 c 0,97,98
 56 668 56 668 56 688 c 0,99,100
 56 702 56 702 58.5 704.5 c 128,-1,101
 61 707 61 707 76 707 c 0,102,103
 90 707 90 707 95 704 c 128,-1,104
 100 701 100 701 107 690 c 0,105,106
 118 674 118 674 118 657 c 0,0,1
EndSplineSet
Validated: 1
EndChar

StartChar: I
Encoding: 73 73 21
Width: 512
GlyphClass: 1
Flags: W
LayerCount: 2
Fore
SplineSet
101 573 m 0,0,1
 108 573 108 573 120 583.5 c 128,-1,2
 132 594 132 594 139 594 c 0,3,4
 147 594 147 594 209 623 c 0,5,6
 283 658 283 658 320 675 c 0,7,8
 372 699 372 699 384 713 c 0,9,10
 399 728 399 728 408 728 c 128,-1,11
 417 728 417 728 417 733 c 128,-1,12
 417 738 417 738 437 738 c 2,13,-1
 458 738 l 1,14,-1
 458 716 l 2,15,16
 458 666 458 666 433 666 c 0,17,18
 423 666 423 666 361 637 c 0,19,20
 288 602 288 602 276 597 c 2,21,-1
 252 588 l 1,22,-1
 252 558 l 2,23,24
 252 527 252 527 257 524 c 128,-1,25
 262 521 262 521 262 494 c 0,26,27
 262 466 262 466 271 439 c 0,28,29
 285 398 285 398 293 359 c 0,30,31
 304 306 304 306 309 292 c 0,32,33
 314 277 314 277 314 260 c 128,-1,34
 314 243 314 243 325 243 c 0,35,36
 339 243 339 243 403 275 c 0,37,38
 421 285 421 285 441 285 c 0,39,40
 453 285 453 285 455.5 282.5 c 128,-1,41
 458 280 458 280 458 267 c 2,42,-1
 458 261 l 2,43,44
 458 238 458 238 449 235 c 0,45,46
 391 209 391 209 344 198 c 0,47,48
 323 193 323 193 256.5 161 c 128,-1,49
 190 129 190 129 190 124 c 0,50,51
 190 120 190 120 169 120 c 2,52,-1
 148 120 l 1,53,-1
 150 144 l 1,54,-1
 151 168 l 1,55,-1
 212 198 l 2,56,57
 272 227 272 227 272 234 c 0,58,59
 272 244 272 244 268 256 c 0,60,61
 263 270 263 270 248.5 329.5 c 128,-1,62
 234 389 234 389 230 403 c 0,63,64
 221 430 221 430 221 458 c 0,65,66
 221 485 221 485 216 488 c 128,-1,67
 211 491 211 491 211 528 c 0,68,69
 211 561 211 561 206 561 c 0,70,71
 203 561 203 561 202 560 c 0,72,73
 197 558 197 558 186.5 555.5 c 128,-1,74
 176 553 176 553 168.5 550 c 128,-1,75
 161 547 161 547 156 542 c 0,76,77
 146 532 146 532 135 532 c 0,78,79
 127 532 127 532 120.5 527 c 128,-1,80
 114 522 114 522 107 522 c 0,81,82
 97 522 97 522 97 516 c 0,83,84
 97 511 97 511 77 511 c 2,85,-1
 56 511 l 1,86,-1
 56 535 l 2,87,88
 56 546 56 546 58 552.5 c 128,-1,89
 60 559 60 559 62.5 560.5 c 128,-1,90
 65 562 65 562 72 564 c 128,-1,91
 79 566 79 566 83 569 c 0,92,93
 90 573 90 573 101 573 c 0,0,1
EndSplineSet
Validated: 1
EndChar

StartChar: J
Encoding: 74 74 22
Width: 401
GlyphClass: 1
Flags: W
LayerCount: 2
Fore
SplineSet
231 488 m 0,0,1
 231 498 231 498 221 516 c 128,-1,2
 211 534 211 534 211 545 c 0,3,4
 211 554 211 554 202 561 c 0,5,6
 193 570 193 570 178 564 c 0,7,8
 164 558 164 558 109 558 c 2,9,-1
 56 558 l 1,10,-1
 56 598 l 1,11,-1
 96 601 l 2,12,13
 154 606 154 606 162 608 c 0,14,15
 192 614 192 614 232 636.5 c 128,-1,16
 272 659 272 659 288 679 c 0,17,18
 298 692 298 692 322 692 c 0,19,20
 339 692 339 692 342 689.5 c 128,-1,21
 345 687 345 687 345 674 c 0,22,23
 345 657 345 657 329 640 c 0,24,25
 318 628 318 628 290 608.5 c 128,-1,26
 262 589 262 589 256 589 c 0,27,28
 252 589 252 589 252 583 c 0,29,30
 252 578 252 578 255.5 568.5 c 128,-1,31
 259 559 259 559 263 550 c 2,32,-1
 267 542 l 2,33,34
 272 532 272 532 272 524 c 128,-1,35
 272 516 272 516 283 498 c 0,36,37
 293 479 293 479 293 437 c 0,38,39
 293 403 293 403 292 378 c 0,40,41
 290 278 290 278 281 230.5 c 128,-1,42
 272 183 272 183 251 153 c 2,43,-1
 233 127 l 1,44,-1
 187 126 l 1,45,-1
 168 126 l 2,46,47
 135 126 135 126 126 130 c 0,48,49
 109 137 109 137 98 148 c 128,-1,50
 87 159 87 159 87 169 c 0,51,52
 87 181 87 181 82 184 c 0,53,54
 77 186 77 186 77 229 c 128,-1,55
 77 272 77 272 82 280 c 0,56,57
 88 290 88 290 108 290 c 0,58,59
 123 290 123 290 125.5 288 c 128,-1,60
 128 286 128 286 128 272 c 0,61,62
 128 251 128 251 122 241 c 0,63,64
 119 235 119 235 119 230 c 0,65,66
 119 226 119 226 123.5 218.5 c 128,-1,67
 128 211 128 211 128 205 c 0,68,69
 128 186 128 186 161 172 c 0,70,71
 176 167 176 167 181 167 c 0,72,73
 194 167 194 167 211 191 c 0,74,75
 244 240 244 240 250 378 c 0,76,77
 251 396 251 396 251 420 c 0,78,79
 251 447 251 447 242 462 c 0,80,81
 231 480 231 480 231 488 c 0,0,1
EndSplineSet
Validated: 1
EndChar

StartChar: K
Encoding: 75 75 23
Width: 447
GlyphClass: 1
Flags: W
LayerCount: 2
Fore
SplineSet
282 243 m 128,-1,1
 282 249 282 249 271.5 261.5 c 128,-1,2
 261 274 261 274 261 281 c 0,3,4
 261 293 261 293 236 318 c 0,5,6
 210 344 210 344 210 349 c 0,7,8
 210 356 210 356 202 362 c 0,9,10
 195 368 195 368 189 381 c 0,11,12
 184 393 184 393 177 393 c 0,13,14
 168 393 168 393 163 403 c 0,15,16
 157 413 157 413 143 413 c 2,17,-1
 127 413 l 1,18,-1
 127 114 l 1,19,-1
 86 114 l 1,20,-1
 88 289 l 2,21,22
 92 472 92 472 94 485 c 0,23,24
 95 489 95 489 95 498 c 0,25,26
 95 519 95 519 90 543.5 c 128,-1,27
 85 568 85 568 80 568 c 0,28,29
 76 568 76 568 76 609 c 128,-1,30
 76 650 76 650 65 669 c 0,31,32
 55 687 55 687 55 713 c 0,33,34
 55 726 55 726 59 730 c 128,-1,35
 63 734 63 734 84 732 c 0,36,37
 98 731 98 731 101 728.5 c 128,-1,38
 104 726 104 726 106 715 c 0,39,40
 108 699 108 699 112 695 c 0,41,42
 117 690 117 690 117 639 c 0,43,44
 117 589 117 589 122 589 c 0,45,46
 138 589 138 589 138 515 c 0,47,48
 138 479 138 479 142 479 c 2,49,-1
 146 481 l 2,50,51
 153 486 153 486 159 501 c 0,52,53
 165 517 165 517 181 540 c 128,-1,54
 197 563 197 563 204 565 c 0,55,56
 212 568 212 568 227 593 c 0,57,58
 241 616 241 616 275 647.5 c 128,-1,59
 309 679 309 679 329 688 c 128,-1,60
 349 697 349 697 349 705 c 0,61,62
 349 712 349 712 370 712 c 2,63,-1
 391 712 l 1,64,-1
 389 686 l 2,65,66
 388 671 388 671 386.5 666 c 128,-1,67
 385 661 385 661 381 656.5 c 128,-1,68
 377 652 377 652 366 647 c 0,69,70
 344 636 344 636 316 610 c 0,71,72
 290 584 290 584 282 584 c 0,73,74
 278 584 278 584 278 578 c 0,75,76
 278 570 278 570 263 548 c 128,-1,77
 248 526 248 526 241 524 c 0,78,79
 233 521 233 521 216.5 494 c 128,-1,80
 200 467 200 467 200 456 c 0,81,82
 200 446 200 446 215 434 c 0,83,84
 230 424 230 424 230 416 c 0,85,86
 230 412 230 412 240.5 401 c 128,-1,87
 251 390 251 390 251 386 c 0,88,89
 251 380 251 380 277 354 c 128,-1,90
 303 328 303 328 303 318 c 0,91,92
 303 305 303 305 313 297 c 128,-1,93
 323 289 323 289 323 279 c 0,94,95
 323 271 323 271 334 249 c 0,96,97
 344 231 344 231 344 216 c 0,98,99
 344 203 344 203 354 193 c 0,100,101
 364 181 364 181 364 163 c 0,102,103
 364 149 364 149 361.5 147 c 128,-1,104
 359 145 359 145 342 145 c 0,105,106
 320 145 320 145 311 158 c 0,107,108
 303 169 303 169 303 181 c 0,109,110
 303 188 303 188 292.5 212.5 c 128,-1,0
 282 237 282 237 282 243 c 128,-1,1
EndSplineSet
Validated: 1
EndChar

StartChar: L
Encoding: 76 76 24
Width: 436
GlyphClass: 1
Flags: W
LayerCount: 2
Fore
SplineSet
51 451 m 2,0,-1
 51 681 l 1,1,-1
 92 681 l 1,2,-1
 92 468 l 2,3,4
 92 254 92 254 97 251 c 0,5,6
 103 247 103 247 103 217 c 2,7,-1
 103 187 l 1,8,-1
 149 187 l 2,9,10
 183 187 183 187 196 190.5 c 128,-1,11
 209 194 209 194 247 212 c 0,12,13
 299 238 299 238 311 238 c 0,14,15
 324 238 324 238 327 243 c 128,-1,16
 330 248 330 248 356 248 c 2,17,-1
 381 248 l 1,18,-1
 381 229 l 2,19,20
 381 210 381 210 367 204 c 0,21,22
 353 197 353 197 344 197 c 128,-1,23
 335 197 335 197 283 171 c 2,24,-1
 231 145 l 1,25,-1
 147 146 l 1,26,-1
 64 148 l 1,27,-1
 62 179 l 2,28,29
 60 211 60 211 56 215 c 0,30,31
 51 220 51 220 51 451 c 2,0,-1
EndSplineSet
Validated: 1
EndChar

StartChar: M
Encoding: 77 77 25
Width: 698
GlyphClass: 1
Flags: W
LayerCount: 2
Fore
SplineSet
199 520 m 0,0,1
 199 528 199 528 204 535.5 c 128,-1,2
 209 543 209 543 209 552 c 0,3,4
 209 562 209 562 215 582 c 128,-1,5
 221 602 221 602 226 607 c 0,6,7
 230 611 230 611 230 633 c 128,-1,8
 230 655 230 655 235 658 c 128,-1,9
 240 661 240 661 240 676 c 0,10,11
 240 690 240 690 247 704 c 0,12,13
 253 718 253 718 272 718 c 0,14,15
 285 718 285 718 288.5 715.5 c 128,-1,16
 292 713 292 713 292 705 c 0,17,18
 292 692 292 692 297 689 c 128,-1,19
 302 686 302 686 302 664 c 128,-1,20
 302 642 302 642 306 638 c 128,-1,21
 310 634 310 634 314 609 c 0,22,23
 321 554 321 554 333 538 c 0,24,25
 343 526 343 526 343 511 c 128,-1,26
 343 496 343 496 348 493 c 128,-1,27
 353 490 353 490 353 480 c 0,28,29
 353 471 353 471 363 451.5 c 128,-1,30
 373 432 373 432 379 432 c 0,31,32
 384 432 384 432 384 447 c 0,33,34
 384 459 384 459 389 462 c 0,35,36
 393 465 393 465 395.5 476.5 c 128,-1,37
 398 488 398 488 399.5 504 c 128,-1,38
 401 520 401 520 402 524 c 0,39,40
 406 546 406 546 416 566 c 0,41,42
 426 590 426 590 426 599 c 0,43,44
 426 612 426 612 430 619 c 2,45,-1
 436 632 l 2,46,47
 441 645 441 645 448.5 662 c 128,-1,48
 456 679 456 679 459 688 c 128,-1,49
 462 697 462 697 482 697 c 0,50,51
 492 697 492 697 497.5 694.5 c 128,-1,52
 503 692 503 692 505 689.5 c 128,-1,53
 507 687 507 687 509.5 680.5 c 128,-1,54
 512 674 512 674 514 670 c 0,55,56
 518 663 518 663 518 636 c 0,57,58
 518 612 518 612 523 607 c 0,59,60
 527 603 527 603 531 568 c 0,61,62
 536 501 536 501 549 449 c 0,63,64
 568 365 568 365 571 357 c 0,65,66
 580 334 580 334 580 312 c 128,-1,67
 580 290 580 290 585 287 c 0,68,69
 591 283 591 283 591 272 c 0,70,71
 591 260 591 260 595 257 c 128,-1,72
 599 254 599 254 603 235 c 0,73,74
 612 177 612 177 617 173 c 0,75,76
 621 170 621 170 621 151 c 0,77,78
 621 131 621 131 627 127 c 0,79,80
 632 124 632 124 632 112 c 0,81,82
 632 99 632 99 637 96 c 128,-1,83
 642 93 642 93 642 65 c 2,84,-1
 642 37 l 1,85,-1
 621 37 l 2,86,87
 608 37 608 37 604.5 39 c 128,-1,88
 601 41 601 41 601 47 c 0,89,90
 601 54 601 54 596 61 c 128,-1,91
 591 68 591 68 591 76 c 0,92,93
 591 87 591 87 585 91 c 0,94,95
 580 94 580 94 580 114 c 128,-1,96
 580 134 580 134 576 137 c 0,97,98
 571 141 571 141 562 198 c 0,99,100
 558 218 558 218 554 221 c 0,101,102
 549 224 549 224 549 236 c 128,-1,103
 549 248 549 248 544 251 c 128,-1,104
 539 254 539 254 539 276 c 0,105,106
 539 293 539 293 529 325 c 128,-1,107
 519 357 519 357 518 367 c 0,108,109
 517 375 517 375 508 413 c 0,110,111
 494 468 494 468 489 529 c 0,112,113
 484 581 484 581 473 581 c 0,114,115
 472 581 472 581 472 580.5 c 128,-1,116
 472 580 472 580 471 580 c 0,117,118
 467 576 467 576 467 565 c 128,-1,119
 467 554 467 554 457 530 c 0,120,121
 451 518 451 518 448 506 c 128,-1,122
 445 494 445 494 442.5 475 c 128,-1,123
 440 456 440 456 438 448 c 0,124,125
 434 429 434 429 430 426 c 128,-1,126
 426 423 426 423 426 411 c 0,127,128
 426 402 426 402 420.5 395 c 128,-1,129
 415 388 415 388 415 380 c 128,-1,130
 415 372 415 372 410 365 c 128,-1,131
 405 358 405 358 405 349 c 0,132,133
 405 341 405 341 400 334.5 c 128,-1,134
 395 328 395 328 395 319 c 0,135,136
 395 295 395 295 363 295 c 2,137,-1
 343 295 l 1,138,-1
 343 333 l 2,139,140
 343 372 343 372 338 375 c 128,-1,141
 333 378 333 378 333 388 c 0,142,143
 333 394 333 394 322.5 415.5 c 128,-1,144
 312 437 312 437 312 444 c 0,145,146
 312 454 312 454 307 457 c 128,-1,147
 302 460 302 460 302 475 c 0,148,149
 302 491 302 491 292 503 c 0,150,151
 281 516 281 516 281 525 c 0,152,153
 281 530 281 530 275.5 549.5 c 128,-1,154
 270 569 270 569 266 569 c 0,155,156
 264 569 264 569 263 565 c 0,157,158
 250 529 250 529 250 516 c 0,159,160
 250 501 250 501 245 498 c 128,-1,161
 240 495 240 495 240 484 c 0,162,163
 240 472 240 472 235 467 c 0,164,165
 232 464 232 464 228 437 c 0,166,167
 222 383 222 383 214 364 c 0,168,169
 209 355 209 355 205 333 c 128,-1,170
 201 311 201 311 199 305 c 0,171,172
 197 297 197 297 193 280.5 c 128,-1,173
 189 264 189 264 185.5 251 c 128,-1,174
 182 238 182 238 177 229 c 0,175,176
 168 213 168 213 168 202 c 0,177,178
 168 195 168 195 157.5 171 c 128,-1,179
 147 147 147 147 147 141 c 0,180,181
 147 134 147 134 142 127 c 128,-1,182
 137 120 137 120 137 112 c 0,183,184
 137 99 137 99 132 96 c 128,-1,185
 127 93 127 93 127 76 c 0,186,187
 127 47 127 47 90 47 c 0,188,189
 89 47 89 47 85.5 47.5 c 128,-1,190
 82 48 82 48 80 48 c 2,191,-1
 57 50 l 1,192,-1
 57 73 l 2,193,194
 57 88 57 88 59.5 92.5 c 128,-1,195
 62 97 62 97 70 99 c 0,196,197
 80 101 80 101 84 115 c 128,-1,198
 88 129 88 129 91 132 c 0,199,200
 96 137 96 137 96 148 c 0,201,202
 96 156 96 156 101 163 c 128,-1,203
 106 170 106 170 106 177 c 128,-1,204
 106 184 106 184 116.5 208 c 128,-1,205
 127 232 127 232 127 238 c 0,206,207
 127 251 127 251 135 265 c 0,208,209
 143 278 143 278 148 295.5 c 128,-1,210
 153 313 153 313 158 339 c 128,-1,211
 163 365 163 365 165 375 c 0,212,213
 169 393 169 393 173 401 c 0,214,215
 181 420 181 420 187 473 c 0,216,217
 191 500 191 500 194 503 c 0,218,219
 199 508 199 508 199 520 c 0,0,1
EndSplineSet
Validated: 1
EndChar

StartChar: N
Encoding: 78 78 26
Width: 491
GlyphClass: 1
Flags: W
LayerCount: 2
Fore
SplineSet
106 532 m 0,0,1
 106 567 106 567 111 586 c 128,-1,2
 116 605 116 605 116 640 c 0,3,4
 116 689 116 689 120 693 c 128,-1,5
 124 697 124 697 143 697 c 128,-1,6
 162 697 162 697 177 679 c 0,7,8
 189 666 189 666 209.5 626 c 128,-1,9
 230 586 230 586 230 576 c 0,10,11
 230 568 230 568 235 565 c 128,-1,12
 240 562 240 562 240 550 c 0,13,14
 240 542 240 542 245 535 c 128,-1,15
 250 528 250 528 250 519 c 0,16,17
 250 511 250 511 255.5 504 c 128,-1,18
 261 497 261 497 261 488 c 0,19,20
 261 480 261 480 266 473 c 128,-1,21
 271 466 271 466 271 457 c 0,22,23
 271 445 271 445 276 442 c 128,-1,24
 281 439 281 439 281 421 c 0,25,26
 281 404 281 404 286 401 c 0,27,28
 293 397 293 397 300 328 c 0,29,30
 304 302 304 302 308 298 c 128,-1,31
 312 294 312 294 312 272 c 0,32,33
 312 246 312 246 319 246 c 0,34,35
 331 246 331 246 333 288 c 0,36,37
 333 306 333 306 338 318 c 128,-1,38
 343 330 343 330 343 349 c 128,-1,39
 343 368 343 368 348 380 c 128,-1,40
 353 392 353 392 353 411 c 0,41,42
 353 429 353 429 358.5 441 c 128,-1,43
 364 453 364 453 364 470 c 0,44,45
 364 495 364 495 369 498 c 128,-1,46
 374 501 374 501 374 547 c 128,-1,47
 374 593 374 593 379 596 c 128,-1,48
 384 599 384 599 384 634 c 0,49,50
 385 666 385 666 391.5 676.5 c 128,-1,51
 398 687 398 687 417 687 c 2,52,-1
 436 687 l 1,53,-1
 436 664 l 2,54,55
 436 641 436 641 431 638 c 128,-1,56
 426 635 426 635 426 599 c 0,57,58
 426 564 426 564 420 560 c 0,59,60
 415 557 415 557 415 511 c 128,-1,61
 415 465 415 465 410 462 c 128,-1,62
 405 459 405 459 405 434 c 0,63,64
 405 417 405 417 400 405.5 c 128,-1,65
 395 394 395 394 395 375 c 128,-1,66
 395 356 395 356 389.5 343.5 c 128,-1,67
 384 331 384 331 384 313 c 0,68,69
 384 294 384 294 379 282 c 128,-1,70
 374 270 374 270 374 251 c 128,-1,71
 374 232 374 232 369 220 c 128,-1,72
 364 208 364 208 364 189 c 0,73,74
 364 161 364 161 359 158 c 0,75,76
 353 154 353 154 353 140 c 0,77,78
 353 128 353 128 341 97 c 0,79,80
 338 89 338 89 318 89 c 0,81,82
 297 89 297 89 289 105 c 128,-1,83
 281 121 281 121 281 164 c 128,-1,84
 281 207 281 207 276 210 c 128,-1,85
 271 213 271 213 271 235 c 0,86,87
 271 256 271 256 266 261 c 0,88,89
 263 264 263 264 259 292 c 0,90,91
 252 361 252 361 245 365 c 0,92,93
 240 368 240 368 240 385 c 0,94,95
 240 403 240 403 235 406 c 128,-1,96
 230 409 230 409 230 421 c 0,97,98
 230 430 230 430 224.5 437 c 128,-1,99
 219 444 219 444 219 452 c 128,-1,100
 219 460 219 460 214 467 c 128,-1,101
 209 474 209 474 209 483 c 0,102,103
 209 491 209 491 204 498 c 128,-1,104
 199 505 199 505 199 514 c 0,105,106
 199 526 199 526 194 529 c 128,-1,107
 189 532 189 532 189 540 c 0,108,109
 189 549 189 549 175 577 c 2,110,-1
 160 607 l 1,111,-1
 159 581 l 2,112,113
 157 555 157 555 152 550 c 128,-1,114
 147 545 147 545 147 495 c 128,-1,115
 147 445 147 445 142 442 c 128,-1,116
 137 439 137 439 137 414 c 0,117,118
 137 390 137 390 132 385 c 0,119,120
 129 382 129 382 125 344 c 0,121,122
 124 325 124 325 116 274 c 0,123,124
 112 250 112 250 98 137 c 2,125,-1
 95 109 l 1,126,-1
 54 109 l 1,127,-1
 57 152 l 2,128,129
 62 227 62 227 75 310 c 0,130,131
 82 352 82 352 83 380 c 0,132,133
 87 417 87 417 91 421 c 0,134,135
 96 426 96 426 96 450 c 0,136,137
 96 475 96 475 101 478 c 128,-1,138
 106 481 106 481 106 532 c 0,0,1
EndSplineSet
Validated: 1
EndChar

StartChar: O
Encoding: 79 79 27
Width: 486
GlyphClass: 1
Flags: W
LayerCount: 2
Fore
SplineSet
125 462 m 0,0,1
 125 454 125 454 120 447 c 128,-1,2
 115 440 115 440 115 431 c 0,3,4
 115 419 115 419 110 416 c 128,-1,5
 105 413 105 413 105 380 c 0,6,7
 105 348 105 348 99 344 c 0,8,9
 94 341 94 341 94 264 c 128,-1,10
 94 187 94 187 99 184 c 0,11,12
 105 180 105 180 105 171 c 0,13,14
 105 152 105 152 133 113 c 0,15,16
 139 104 139 104 153 96.5 c 128,-1,17
 167 89 167 89 177 89 c 128,-1,18
 187 89 187 89 190 84 c 128,-1,19
 193 79 193 79 202 79 c 0,20,21
 216 79 216 79 235.5 88.5 c 128,-1,22
 255 98 255 98 263 110 c 0,23,24
 270 120 270 120 277 120 c 0,25,26
 296 120 296 120 335 202 c 0,27,28
 354 240 354 240 360 258 c 128,-1,29
 366 276 366 276 371 310 c 0,30,31
 373 321 373 321 376.5 333 c 128,-1,32
 380 345 380 345 382 356 c 128,-1,33
 384 367 384 367 385 385 c 0,34,35
 386 393 386 393 388 418 c 128,-1,36
 390 443 390 443 391 452 c 0,37,38
 392 459 392 459 392 469 c 128,-1,39
 392 479 392 479 387.5 492 c 128,-1,40
 383 505 383 505 383 525 c 0,41,42
 383 557 383 557 378 560 c 128,-1,43
 373 563 373 563 373 576 c 0,44,45
 373 592 373 592 359 612 c 128,-1,46
 345 632 345 632 334 634 c 0,47,48
 321 636 321 636 321 641 c 0,49,50
 321 645 321 645 306 645 c 0,51,52
 282 645 282 645 265 601 c 0,53,54
 260 590 260 590 255.5 587 c 128,-1,55
 251 584 251 584 238 584 c 0,56,57
 219 584 219 584 217 595 c 0,58,59
 215 600 215 600 214 600 c 0,60,61
 211 600 211 600 188 577 c 0,62,63
 167 555 167 555 151 529 c 128,-1,64
 135 503 135 503 135 490 c 0,65,66
 135 481 135 481 130 478 c 128,-1,67
 125 475 125 475 125 462 c 0,0,1
74 468 m 0,68,69
 74 476 74 476 79 483 c 128,-1,70
 84 490 84 490 84 498 c 0,71,72
 84 511 84 511 89 514 c 128,-1,73
 94 517 94 517 94 526 c 0,74,75
 94 546 94 546 129 592 c 128,-1,76
 164 638 164 638 188 648 c 0,77,78
 190 649 190 649 214.5 660.5 c 128,-1,79
 239 672 239 672 244 679 c 0,80,81
 251 687 251 687 310 687 c 0,82,83
 351 687 351 687 362 685 c 128,-1,84
 373 683 373 683 381 675 c 0,85,86
 393 661 393 661 403.5 641.5 c 128,-1,87
 414 622 414 622 414 612 c 0,88,89
 414 599 414 599 419 596 c 128,-1,90
 424 593 424 593 424 561 c 128,-1,91
 424 529 424 529 430 523 c 0,92,93
 433 520 433 520 433 484 c 0,94,95
 433 437 433 437 428.5 375.5 c 128,-1,96
 424 314 424 314 419 303 c 0,97,98
 417 299 417 299 412 274 c 0,99,100
 407 240 407 240 401 222 c 128,-1,101
 395 204 395 204 376 166 c 0,102,103
 333 78 333 78 312 78 c 0,104,105
 306 78 306 78 301 69 c 128,-1,106
 296 60 296 60 275 48 c 0,107,108
 253 37 253 37 205 37 c 128,-1,109
 157 37 157 37 154 42 c 128,-1,110
 151 47 151 47 141 47 c 0,111,112
 130 47 130 47 114.5 56.5 c 128,-1,113
 99 66 99 66 92 76 c 0,114,115
 63 119 63 119 63 135 c 0,116,117
 63 145 63 145 58 148 c 128,-1,118
 53 151 53 151 53 264 c 128,-1,119
 53 377 53 377 58 380 c 128,-1,120
 63 383 63 383 63 416 c 128,-1,121
 63 449 63 449 68 452 c 0,122,123
 74 456 74 456 74 468 c 0,68,69
EndSplineSet
Validated: 1
EndChar

StartChar: P
Encoding: 80 80 28
Width: 493
GlyphClass: 1
Flags: W
LayerCount: 2
Fore
SplineSet
349 664 m 2,0,1
 339 678 339 678 333 682.5 c 128,-1,2
 327 687 327 687 316 687 c 0,3,4
 299 687 299 687 295 681 c 0,5,6
 292 676 292 676 267 676 c 0,7,8
 241 676 241 676 238 671 c 128,-1,9
 235 666 235 666 224 666 c 0,10,11
 214 666 214 666 201 657 c 0,12,13
 189 650 189 650 168 639 c 2,14,-1
 149 630 l 1,15,-1
 146 585 l 2,16,17
 145 574 145 574 143 543 c 128,-1,18
 141 512 141 512 140 500 c 2,19,-1
 137 460 l 1,20,-1
 160 460 l 2,21,22
 184 460 184 460 187 465 c 128,-1,23
 190 470 190 470 210 470 c 0,24,25
 232 470 232 470 249 480 c 0,26,27
 267 491 267 491 276 491 c 0,28,29
 282 491 282 491 295 501 c 128,-1,30
 308 511 308 511 310 512 c 0,31,32
 317 513 317 513 347.5 539 c 128,-1,33
 378 565 378 565 385 576 c 0,34,35
 391 586 391 586 391 591 c 128,-1,36
 391 596 391 596 380 613 c 0,37,38
 365 636 365 636 365 638 c 2,39,-1
 349 664 l 2,0,1
259 723 m 128,-1,41
 262 728 262 728 316 728 c 2,42,-1
 370 728 l 1,43,-1
 386 706 l 2,44,45
 398 690 398 690 405.5 675 c 128,-1,46
 413 660 413 660 422 647 c 0,47,48
 437 624 437 624 437 592 c 0,49,50
 437 558 437 558 426 539.5 c 128,-1,51
 415 521 415 521 378 493 c 0,52,53
 347 470 347 470 344 470 c 0,54,55
 339 470 339 470 331 460 c 0,56,57
 322 449 322 449 313 449 c 0,58,59
 302 449 302 449 285 439 c 128,-1,60
 268 429 268 429 246 429 c 0,61,62
 226 429 226 429 223 424 c 128,-1,63
 220 419 220 419 176 419 c 0,64,65
 135 419 135 419 131 410 c 0,66,67
 127 400 127 400 127 308 c 0,68,69
 127 213 127 213 122 210 c 128,-1,70
 117 207 117 207 117 182 c 0,71,72
 117 165 117 165 112 152 c 128,-1,73
 107 139 107 139 106 125 c 2,74,-1
 104 102 l 1,75,-1
 58 102 l 1,76,-1
 56 126 l 2,77,78
 54 151 54 151 60 151 c 128,-1,79
 66 151 66 151 66 168 c 0,80,81
 66 186 66 186 71 189 c 128,-1,82
 76 192 76 192 76 217 c 0,83,84
 76 241 76 241 81 246 c 0,85,86
 84 249 84 249 88 349 c 0,87,88
 94 529 94 529 104 593 c 0,89,90
 108 614 108 614 102 614 c 0,91,92
 97 614 97 614 97 637 c 128,-1,93
 97 660 97 660 102 663 c 128,-1,94
 107 666 107 666 107 683 c 0,95,96
 108 718 108 718 140 718 c 0,97,98
 158 718 158 718 158 707 c 0,99,100
 158 699 158 699 162.5 697 c 128,-1,101
 167 695 167 695 171 702 c 0,102,103
 174 707 174 707 187 707 c 0,104,105
 199 707 199 707 202 712 c 0,106,107
 206 718 206 718 231 718 c 128,-1,40
 256 718 256 718 259 723 c 128,-1,41
EndSplineSet
Validated: 1
EndChar

StartChar: Q
Encoding: 81 81 29
Width: 644
GlyphClass: 1
Flags: W
LayerCount: 2
Fore
SplineSet
391 656 m 0,0,1
 376 656 376 656 368 661 c 0,2,3
 358 667 358 667 355 661 c 0,4,5
 352 656 352 656 340 656 c 0,6,7
 331 656 331 656 316 642.5 c 128,-1,8
 301 629 301 629 301 621 c 0,9,10
 301 614 301 614 283 614 c 128,-1,11
 265 614 265 614 262 609 c 128,-1,12
 259 604 259 604 246 604 c 128,-1,13
 233 604 233 604 223 587 c 0,14,15
 212 569 212 569 200 564 c 0,16,17
 192 561 192 561 180.5 543.5 c 128,-1,18
 169 526 169 526 163 524 c 0,19,20
 152 520 152 520 140 499 c 0,21,22
 117 461 117 461 108.5 436 c 128,-1,23
 100 411 100 411 96 370 c 1,24,-1
 96 360 l 2,25,26
 96 304 96 304 132 282 c 0,27,28
 163 264 163 264 175.5 259.5 c 128,-1,29
 188 255 188 255 210 254 c 0,30,31
 230 254 230 254 244 258.5 c 128,-1,32
 258 263 258 263 296 282 c 0,33,34
 352 311 352 311 352 315 c 0,35,36
 352 322 352 322 332 334 c 128,-1,37
 312 346 312 346 301 346 c 0,38,39
 294 346 294 346 292 350 c 128,-1,40
 290 354 290 354 290 367 c 2,41,-1
 290 388 l 1,42,-1
 319 388 l 2,43,44
 341 388 341 388 353.5 383 c 128,-1,45
 366 378 366 378 387 361 c 0,46,47
 401 348 401 348 411 348 c 0,48,49
 420 348 420 348 440 362 c 0,50,51
 462 377 462 377 476 377 c 0,52,53
 496 378 496 378 533 454 c 0,54,55
 547 483 547 483 547 498 c 0,56,57
 547 507 547 507 546 513 c 0,58,59
 539 577 539 577 528 581 c 0,60,61
 519 585 519 585 508 601 c 0,62,63
 497 618 497 618 457 637 c 128,-1,64
 417 656 417 656 391 656 c 0,0,1
360 712 m 0,65,66
 364 718 364 718 409 718 c 2,67,-1
 455 718 l 1,68,-1
 456 704 l 2,69,70
 457 690 457 690 471 687 c 0,71,72
 489 683 489 683 515 667 c 128,-1,73
 541 651 541 651 547 640 c 0,74,75
 556 625 556 625 567 620 c 128,-1,76
 578 615 578 615 582 594.5 c 128,-1,77
 586 574 586 574 588 513 c 0,78,79
 588 505 588 505 588.5 494 c 128,-1,80
 589 483 589 483 589 479 c 0,81,82
 589 451 589 451 573 418 c 0,83,84
 533 336 533 336 513 336 c 0,85,86
 498 336 498 336 456 307 c 0,87,88
 455 307 455 307 455 306 c 0,89,90
 455 302 455 302 464.5 293.5 c 128,-1,91
 474 285 474 285 478 285 c 0,92,93
 484 285 484 285 497 274 c 0,94,95
 509 264 509 264 519 264 c 0,96,97
 528 264 528 264 528 233 c 2,98,-1
 528 202 l 1,99,-1
 511 202 l 2,100,101
 493 202 493 202 471 223 c 0,102,103
 449 243 449 243 443 243 c 0,104,105
 436 243 436 243 429 252 c 0,106,107
 422 259 422 259 408 266 c 0,108,109
 400 270 400 270 397 270 c 0,110,111
 387 270 387 270 336 243 c 2,112,-1
 278 212 l 1,113,-1
 212 212 l 2,114,115
 148 212 148 212 134 218 c 0,116,117
 77 248 77 248 64 278 c 0,118,119
 54 301 54 301 54 331 c 0,120,121
 54 354 54 354 55 370 c 0,122,123
 57 458 57 458 77 496 c 0,124,125
 89 521 89 521 104 542 c 128,-1,126
 119 563 119 563 125 565 c 0,127,128
 133 568 133 568 142 584 c 0,129,130
 149 595 149 595 163.5 605.5 c 128,-1,131
 178 616 178 616 185 626 c 0,132,133
 192 638 192 638 208.5 644.5 c 128,-1,134
 225 651 225 651 231 656 c 0,135,136
 240 665 240 665 260 673 c 0,137,138
 275 679 275 679 290 694 c 0,139,140
 302 707 302 707 330 707 c 0,141,142
 357 707 357 707 360 712 c 0,65,66
EndSplineSet
Validated: 1
EndChar

StartChar: R
Encoding: 82 82 30
Width: 457
GlyphClass: 1
Flags: W
LayerCount: 2
Fore
SplineSet
270 639 m 0,0,1
 259 645 259 645 234 645 c 0,2,3
 212 645 212 645 209 640 c 128,-1,4
 206 635 206 635 188 635 c 128,-1,5
 170 635 170 635 167 630 c 128,-1,6
 164 625 164 625 157 625 c 0,7,8
 149 625 149 625 131 610.5 c 128,-1,9
 113 596 113 596 113 590 c 128,-1,10
 113 584 113 584 103 584 c 0,11,12
 98 584 98 584 96 582.5 c 128,-1,13
 94 581 94 581 94 575 c 0,14,15
 94 566 94 566 95 559 c 0,16,17
 110 458 110 458 111 438 c 2,18,-1
 114 408 l 1,19,-1
 142 408 l 2,20,21
 160 408 160 408 165.5 410.5 c 128,-1,22
 171 413 171 413 176 421 c 0,23,24
 181 430 181 430 209 450 c 128,-1,25
 237 470 237 470 245 470 c 0,26,27
 250 470 250 470 268.5 490 c 128,-1,28
 287 510 287 510 293 522 c 128,-1,29
 299 534 299 534 299 567 c 0,30,31
 299 625 299 625 289 630 c 0,32,33
 287 631 287 631 280 634 c 128,-1,34
 273 637 273 637 270 639 c 0,0,1
173 682 m 0,35,36
 175 687 175 687 214 687 c 0,37,38
 234 687 234 687 247 686 c 0,39,40
 317 684 317 684 328.5 674.5 c 128,-1,41
 340 665 340 665 340 603 c 2,42,-1
 340 580 l 2,43,44
 340 496 340 496 334 484 c 0,45,46
 324 467 324 467 304.5 448.5 c 128,-1,47
 285 430 285 430 268 422 c 2,48,-1
 245 411 l 1,49,-1
 265 409 l 2,50,51
 283 408 283 408 296 397.5 c 128,-1,52
 309 387 309 387 309 374 c 0,53,54
 309 362 309 362 314 359 c 0,55,56
 320 355 320 355 320 284 c 0,57,58
 320 217 320 217 327 204.5 c 128,-1,59
 334 192 334 192 370 192 c 2,60,-1
 402 192 l 1,61,-1
 402 151 l 1,62,-1
 352 151 l 2,63,64
 319 151 319 151 308.5 153 c 128,-1,65
 298 155 298 155 290 162 c 0,66,67
 282 170 282 170 280 182 c 128,-1,68
 278 194 278 194 278 246 c 0,69,70
 278 320 278 320 273 323 c 128,-1,71
 268 326 268 326 268 337 c 0,72,73
 268 349 268 349 259 358 c 128,-1,74
 250 367 250 367 229 367 c 0,75,76
 193 367 193 367 158 345 c 0,77,78
 145 336 145 336 129 336 c 2,79,-1
 114 336 l 1,80,-1
 111 278 l 2,81,82
 107 169 107 169 97 158 c 0,83,84
 93 154 93 154 93 126 c 2,85,-1
 93 99 l 1,86,-1
 52 99 l 1,87,-1
 52 144 l 2,88,89
 52 190 52 190 56 194 c 0,90,91
 68 206 68 206 68 348 c 0,92,93
 68 429 68 429 62 465 c 0,94,95
 57 488 57 488 53 582 c 2,96,-1
 51 666 l 1,97,-1
 72 666 l 2,98,99
 93 666 93 666 93 657 c 0,100,101
 93 651 93 651 94 651 c 128,-1,102
 95 651 95 651 102 657 c 0,103,104
 111 666 111 666 120 666 c 0,105,106
 128 666 128 666 131 671 c 128,-1,107
 134 676 134 676 152 676 c 0,108,109
 169 676 169 676 173 682 c 0,35,36
EndSplineSet
Validated: 1
EndChar

StartChar: S
Encoding: 83 83 31
Width: 430
GlyphClass: 1
Flags: W
LayerCount: 2
Fore
SplineSet
230 671 m 0,0,1
 241 680 241 680 292 681 c 2,2,-1
 301 681 l 2,3,4
 334 681 334 681 342 677 c 128,-1,5
 350 673 350 673 363 649 c 0,6,7
 373 632 373 632 373 595 c 0,8,9
 373 570 373 570 367 564 c 128,-1,10
 361 558 361 558 342 558 c 2,11,-1
 322 558 l 1,12,-1
 323 585 l 2,13,14
 324 610 324 610 315 625 c 128,-1,15
 306 640 306 640 292 640 c 0,16,17
 280 640 280 640 267 630 c 0,18,19
 255 620 255 620 247 620 c 0,20,21
 240 620 240 620 211.5 600.5 c 128,-1,22
 183 581 183 581 182 580 c 0,23,24
 159 566 159 566 136.5 538.5 c 128,-1,25
 114 511 114 511 114 489 c 0,26,27
 114 476 114 476 136 452 c 128,-1,28
 158 428 158 428 174 425 c 0,29,30
 187 422 187 422 191 418 c 0,31,32
 194 414 194 414 211 414 c 0,33,34
 234 414 234 414 237 419 c 128,-1,35
 240 424 240 424 274 424 c 0,36,37
 307 424 307 424 320 412 c 0,38,39
 332 402 332 402 332 390 c 0,40,41
 332 379 332 379 338 375 c 0,42,43
 342 372 342 372 342 318 c 0,44,45
 342 263 342 263 338 255 c 0,46,47
 312 203 312 203 312 194 c 0,48,49
 312 187 312 187 286 161 c 2,50,-1
 261 135 l 1,51,-1
 217 135 l 2,52,53
 174 135 174 135 141 151 c 2,54,-1
 89 177 l 2,55,56
 71 187 71 187 61 187 c 0,57,58
 54 187 54 187 54 207 c 2,59,-1
 54 228 l 1,60,-1
 79 228 l 2,61,62
 107 228 107 228 125 218 c 2,63,-1
 177 192 l 2,64,65
 209 176 209 176 217 176 c 0,66,67
 224 176 224 176 247 199.5 c 128,-1,68
 270 223 270 223 270 230 c 128,-1,69
 270 237 270 237 297 291 c 0,70,71
 301 299 301 299 301 315 c 0,72,73
 301 336 301 336 296 339 c 128,-1,74
 291 342 291 342 291 354 c 0,75,76
 291 367 291 367 285 370 c 0,77,78
 282 373 282 373 236 373 c 2,79,-1
 218 373 l 1,80,-1
 193 373 l 2,81,82
 158 373 158 373 155 377 c 0,83,84
 152 382 152 382 141 382 c 0,85,86
 132 382 132 382 106 405.5 c 128,-1,87
 80 429 80 429 72 445 c 0,88,89
 64 459 64 459 64 495 c 0,90,91
 64 516 64 516 69 519 c 0,92,93
 75 523 75 523 75 531 c 0,94,95
 75 547 75 547 99 577.5 c 128,-1,96
 123 608 123 608 146 622 c 0,97,98
 148 623 148 623 176.5 642 c 128,-1,99
 205 661 205 661 211 661 c 0,100,101
 218 661 218 661 230 671 c 0,0,1
EndSplineSet
Validated: 33
EndChar

StartChar: T
Encoding: 84 84 32
Width: 592
GlyphClass: 1
Flags: W
LayerCount: 2
Fore
SplineSet
489 718 m 0,0,1
 497 722 497 722 516 722 c 2,2,-1
 536 723 l 1,3,-1
 534 702 l 2,4,5
 532 679 532 679 525 676 c 0,6,7
 489 658 489 658 383 625 c 2,8,-1
 291 595 l 1,9,-1
 289 570 l 1,10,-1
 289 563 l 2,11,12
 289 507 289 507 301 211 c 1,13,-1
 304 156 l 1,14,-1
 284 156 l 2,15,16
 270 157 270 157 265.5 160.5 c 128,-1,17
 261 164 261 164 253 181 c 0,18,19
 242 206 242 206 242 225 c 0,20,21
 242 238 242 238 248 238 c 0,22,23
 253 238 253 238 253 296 c 0,24,25
 253 309 253 309 251 411 c 0,26,27
 247 585 247 585 246 586 c 2,28,-1
 243 586 l 2,29,30
 232 586 232 586 194.5 575.5 c 128,-1,31
 157 565 157 565 141 558 c 0,32,33
 119 547 119 547 88 547 c 2,34,-1
 56 547 l 1,35,-1
 56 568 l 2,36,37
 56 582 56 582 58 585.5 c 128,-1,38
 60 589 60 589 70 589 c 0,39,40
 85 589 85 589 105 599 c 0,41,42
 144 618 144 618 228 632 c 0,43,44
 247 635 247 635 247 643 c 128,-1,45
 247 651 247 651 271 650 c 2,46,-1
 273 650 l 2,47,48
 298 650 298 650 377 675 c 128,-1,49
 456 700 456 700 489 718 c 0,0,1
EndSplineSet
Validated: 1
EndChar

StartChar: U
Encoding: 85 85 33
Width: 538
GlyphClass: 1
Flags: W
LayerCount: 2
Fore
SplineSet
432 458 m 0,0,1
 432 476 432 476 437 487.5 c 128,-1,2
 442 499 442 499 442 518 c 0,3,4
 442 546 442 546 437 549 c 128,-1,5
 432 552 432 552 432 642 c 2,6,-1
 432 733 l 1,7,-1
 474 733 l 1,8,-1
 474 661 l 2,9,10
 474 588 474 588 479 585 c 128,-1,11
 484 582 484 582 484 518 c 0,12,13
 484 453 484 453 479 450 c 128,-1,14
 474 447 474 447 474 421 c 0,15,16
 474 396 474 396 467 384 c 0,17,18
 453 357 453 357 453 342 c 0,19,20
 453 329 453 329 448 326 c 0,21,22
 442 322 442 322 442 312 c 0,23,24
 442 300 442 300 438 293 c 0,25,26
 411 239 411 239 411 233 c 0,27,28
 411 221 411 221 363.5 181.5 c 128,-1,29
 316 142 316 142 301 142 c 0,30,31
 293 142 293 142 290 137 c 128,-1,32
 287 132 287 132 225 132 c 0,33,34
 180 132 180 132 170.5 134 c 128,-1,35
 161 136 161 136 151 146 c 0,36,37
 137 160 137 160 116 201 c 128,-1,38
 95 242 95 242 95 256 c 0,39,40
 95 266 95 266 90 273.5 c 128,-1,41
 85 281 85 281 85 290 c 0,42,43
 85 302 85 302 80 305 c 128,-1,44
 75 308 75 308 75 326 c 0,45,46
 75 343 75 343 69 347 c 0,47,48
 64 350 64 350 64 378 c 128,-1,49
 64 406 64 406 59 409 c 128,-1,50
 54 412 54 412 54 489 c 128,-1,51
 54 566 54 566 59 569 c 128,-1,52
 64 572 64 572 64 601 c 0,53,54
 64 629 64 629 69 632 c 0,55,56
 75 636 75 636 75 647 c 0,57,58
 75 656 75 656 82.5 674.5 c 128,-1,59
 90 693 90 693 90 701 c 0,60,61
 90 708 90 708 93.5 710 c 128,-1,62
 97 712 97 712 111 712 c 2,63,-1
 132 712 l 1,64,-1
 132 681 l 2,65,66
 132 650 132 650 126 650 c 0,67,68
 123 650 123 650 123 646 c 128,-1,69
 123 642 123 642 123.5 638 c 128,-1,70
 124 634 124 634 121 632 c 0,71,72
 116 629 116 629 116 613 c 0,73,74
 116 598 116 598 111 595 c 128,-1,75
 106 592 106 592 106 564 c 128,-1,76
 106 536 106 536 101 533 c 128,-1,77
 96 530 96 530 96 489 c 128,-1,78
 96 448 96 448 101 445 c 128,-1,79
 106 442 106 442 106 414 c 128,-1,80
 106 386 106 386 111 383 c 128,-1,81
 116 380 116 380 116 362 c 128,-1,82
 116 344 116 344 121 341 c 128,-1,83
 126 338 126 338 126 326 c 0,84,85
 126 318 126 318 131.5 310.5 c 128,-1,86
 137 303 137 303 137 293 c 0,87,88
 137 280 137 280 157 239.5 c 128,-1,89
 177 199 177 199 190 185 c 0,90,91
 202 173 202 173 225 173 c 0,92,93
 250 173 250 173 253 178 c 128,-1,94
 256 183 256 183 264 183 c 0,95,96
 279 183 279 183 327 223 c 128,-1,97
 375 263 375 263 375 276 c 0,98,99
 375 288 375 288 396 330 c 0,100,101
 401 338 401 338 401 349 c 0,102,103
 401 356 401 356 406 363 c 128,-1,104
 411 370 411 370 411 378 c 0,105,106
 411 390 411 390 427 422 c 0,107,108
 432 432 432 432 432 458 c 0,0,1
EndSplineSet
Validated: 1
EndChar

StartChar: V
Encoding: 86 86 34
Width: 528
GlyphClass: 1
Flags: W
LayerCount: 2
Fore
SplineSet
421 736 m 0,0,1
 428 747 428 747 433.5 750 c 128,-1,2
 439 753 439 753 451 753 c 2,3,-1
 471 753 l 1,4,-1
 471 730 l 2,5,6
 471 708 471 708 461 696 c 0,7,8
 455 690 455 690 446 661.5 c 128,-1,9
 437 633 437 633 434 628 c 0,10,11
 429 620 429 620 429 608 c 0,12,13
 429 595 429 595 417 573 c 0,14,15
 408 558 408 558 390 505 c 128,-1,16
 372 452 372 452 363 436 c 0,17,18
 350 412 350 412 328 309 c 0,19,20
 307 210 307 210 300 192 c 0,21,22
 294 176 294 176 294 128 c 128,-1,23
 294 80 294 80 284 80 c 128,-1,24
 274 80 274 80 274 75 c 0,25,26
 274 69 274 69 253 69 c 2,27,-1
 233 69 l 1,28,-1
 230 123 l 2,29,30
 224 235 224 235 216 243 c 0,31,32
 211 248 211 248 211 266 c 128,-1,33
 211 284 211 284 198 316 c 0,34,35
 184 345 184 345 171 398 c 0,36,37
 155 453 155 453 148 463 c 128,-1,38
 141 473 141 473 130.5 499.5 c 128,-1,39
 120 526 120 526 111 538 c 0,40,41
 97 560 97 560 97 567 c 0,42,43
 97 578 97 578 83 594 c 0,44,45
 56 626 56 626 56 673 c 0,46,47
 56 686 56 686 59 688.5 c 128,-1,48
 62 691 62 691 77 691 c 128,-1,49
 92 691 92 691 95 688 c 128,-1,50
 98 685 98 685 103 669 c 0,51,52
 111 644 111 644 124 630 c 0,53,54
 139 613 139 613 139 604 c 0,55,56
 139 594 139 594 152 574 c 0,57,58
 166 555 166 555 174 533 c 0,59,60
 184 507 184 507 189 499 c 0,61,62
 197 488 197 488 212 435 c 0,63,64
 226 380 226 380 239 352 c 0,65,66
 253 318 253 318 253 303 c 0,67,68
 253 290 253 290 258 279 c 128,-1,69
 263 268 263 268 264 261 c 2,70,-1
 264 260 l 1,71,72
 269 260 269 260 286 341 c 0,73,74
 305 430 305 430 323 474 c 0,75,76
 341 517 341 517 351 549 c 0,77,78
 366 593 366 593 375 609 c 0,79,80
 388 633 388 633 388 645 c 128,-1,81
 388 657 388 657 392 664 c 0,82,83
 397 672 397 672 406 700 c 128,-1,84
 415 728 415 728 421 736 c 0,0,1
EndSplineSet
Validated: 1
EndChar

StartChar: W
Encoding: 87 87 35
Width: 706
GlyphClass: 1
Flags: W
LayerCount: 2
Fore
SplineSet
555 680 m 0,0,1
 555 688 555 688 560 694.5 c 128,-1,2
 565 701 565 701 565 708 c 0,3,4
 565 727 565 727 600 781 c 0,5,6
 602 784 602 784 625 784 c 2,7,-1
 648 784 l 1,8,-1
 648 764 l 2,9,10
 648 743 648 743 644 743 c 0,11,12
 639 743 639 743 623 711.5 c 128,-1,13
 607 680 607 680 607 671 c 0,14,15
 607 664 607 664 601.5 657.5 c 128,-1,16
 596 651 596 651 596 644 c 0,17,18
 596 632 596 632 588 621 c 0,19,20
 580 609 580 609 576 573 c 0,21,22
 569 518 569 518 544 412 c 128,-1,23
 519 306 519 306 508 286 c 0,24,25
 503 278 503 278 503 269 c 0,26,27
 503 264 503 264 492.5 242.5 c 128,-1,28
 482 221 482 221 482 217 c 0,29,30
 482 209 482 209 470 188 c 0,31,32
 462 173 462 173 456.5 169.5 c 128,-1,33
 451 166 451 166 436 164 c 2,34,-1
 428 164 l 2,35,36
 413 164 413 164 406.5 170 c 128,-1,37
 400 176 400 176 400 192 c 128,-1,38
 400 208 400 208 394 212 c 0,39,40
 391 214 391 214 389 270 c 0,41,42
 389 327 389 327 382 357 c 2,43,-1
 375 388 l 1,44,-1
 364 357 l 2,45,46
 353 327 353 327 335 292 c 0,47,48
 317 258 317 258 317 247 c 0,49,50
 317 240 317 240 306.5 227.5 c 128,-1,51
 296 215 296 215 296 209 c 128,-1,52
 296 203 296 203 290 187 c 0,53,54
 284 173 284 173 265 173 c 0,55,56
 236 173 236 173 234 203 c 0,57,58
 234 216 234 216 229 224 c 0,59,60
 192 296 192 296 192 310 c 0,61,62
 192 318 192 318 180 339 c 0,63,64
 172 352 172 352 154 409.5 c 128,-1,65
 136 467 136 467 129 480 c 0,66,67
 119 501 119 501 104 544.5 c 128,-1,68
 89 588 89 588 89 597 c 0,69,70
 89 607 89 607 79 619 c 0,71,72
 68 633 68 633 60 703 c 2,73,-1
 56 733 l 1,74,-1
 77 733 l 2,75,76
 92 733 92 733 96 730 c 128,-1,77
 100 727 100 727 104 713 c 0,78,79
 109 695 109 695 109 682 c 0,80,81
 109 674 109 674 119.5 657 c 128,-1,82
 130 640 130 640 130 633 c 0,83,84
 130 624 130 624 145.5 581 c 128,-1,85
 161 538 161 538 171 517 c 0,86,87
 177 507 177 507 194 448 c 0,88,89
 209 396 209 396 221 376 c 0,90,91
 234 354 234 354 234 347 c 0,92,93
 234 339 234 339 251 304.5 c 128,-1,94
 268 270 268 270 272 270 c 0,95,96
 275 270 275 270 275 283 c 0,97,98
 275 295 275 295 291 323 c 0,99,100
 305 348 305 348 321.5 387 c 128,-1,101
 338 426 338 426 349 448 c 2,102,-1
 372 492 l 1,103,-1
 418 492 l 1,104,-1
 421 437 l 2,105,106
 422 427 422 427 423.5 402.5 c 128,-1,107
 425 378 425 378 426.5 356 c 128,-1,108
 428 334 428 334 429 318 c 0,109,110
 433 251 433 251 436 248 c 0,111,112
 441 243 441 243 441 252 c 0,113,114
 441 258 441 258 451.5 279 c 128,-1,115
 462 300 462 300 462 305 c 0,116,117
 462 315 462 315 466 322 c 0,118,119
 477 342 477 342 502 448 c 128,-1,120
 527 554 527 554 534 609 c 0,121,122
 538 645 538 645 547 658 c 0,123,124
 555 669 555 669 555 680 c 0,0,1
EndSplineSet
Validated: 1
EndChar

StartChar: X
Encoding: 88 88 36
Width: 475
GlyphClass: 1
Flags: W
LayerCount: 2
Fore
SplineSet
375 712 m 0,0,1
 381 722 381 722 399 722 c 2,2,-1
 419 722 l 1,3,-1
 419 697 l 2,4,5
 419 671 419 671 414 668 c 0,6,7
 408 664 408 664 391 633 c 0,8,9
 322 507 322 507 304 483 c 0,10,11
 289 464 289 464 271 423 c 2,12,-1
 252 382 l 1,13,-1
 278 331 l 2,14,15
 301 285 301 285 310 256 c 0,16,17
 318 230 318 230 332 211 c 0,18,19
 346 190 346 190 346 180 c 0,20,21
 346 169 346 169 357 160 c 0,22,23
 367 152 367 152 367 145 c 0,24,25
 367 137 367 137 377 129 c 0,26,27
 388 119 388 119 388 94 c 2,28,-1
 388 69 l 1,29,-1
 367 69 l 2,30,31
 346 69 346 69 346 76 c 0,32,33
 346 85 346 85 336 93 c 0,34,35
 325 102 325 102 325 108 c 0,36,37
 325 116 325 116 315 124 c 128,-1,38
 305 132 305 132 305 144 c 0,39,40
 305 152 305 152 290 175 c 0,41,42
 278 192 278 192 269 220 c 0,43,44
 261 248 261 248 243 281 c 2,45,-1
 223 320 l 1,46,-1
 212 292 l 2,47,48
 206 277 206 277 184.5 230.5 c 128,-1,49
 163 184 163 184 156 163 c 0,50,51
 146 132 146 132 139 119 c 0,52,53
 133 108 133 108 127.5 105.5 c 128,-1,54
 122 103 122 103 100 103 c 2,55,-1
 69 103 l 1,56,-1
 67 133 l 1,57,-1
 66 162 l 1,58,-1
 85 164 l 2,59,60
 99 166 99 166 103 170 c 128,-1,61
 107 174 107 174 114 196 c 0,62,63
 120 216 120 216 173 330 c 0,64,65
 175 335 175 335 180.5 348.5 c 128,-1,66
 186 362 186 362 188 367 c 0,67,68
 192 379 192 379 192 382 c 0,69,70
 192 393 192 393 171 435 c 0,71,72
 145 491 145 491 139 506 c 0,73,74
 131 529 131 529 110 559 c 0,75,76
 87 595 87 595 87 599 c 0,77,78
 87 604 87 604 72 636 c 0,79,80
 56 666 56 666 56 684 c 0,81,82
 56 697 56 697 58.5 699.5 c 128,-1,83
 61 702 61 702 76 702 c 0,84,85
 89 702 89 702 94.5 699 c 128,-1,86
 100 696 100 696 107 685 c 128,-1,87
 114 674 114 674 124 647 c 0,88,89
 131 628 131 628 149 601 c 0,90,91
 162 583 162 583 185.5 531 c 128,-1,92
 209 479 209 479 212 472 c 2,93,-1
 225 447 l 1,94,-1
 234 470 l 2,95,96
 243 493 243 493 261 517 c 0,97,98
 275 536 275 536 305 589 c 0,99,100
 366 693 366 693 375 712 c 0,0,1
EndSplineSet
Validated: 1
EndChar

StartChar: Y
Encoding: 89 89 37
Width: 610
GlyphClass: 1
Flags: W
LayerCount: 2
Fore
SplineSet
512 748 m 128,-1,1
 512 753 512 753 533 753 c 2,2,-1
 553 753 l 1,3,-1
 553 730 l 2,4,5
 553 714 553 714 550.5 709.5 c 128,-1,6
 548 705 548 705 535 699 c 0,7,8
 509 686 509 686 463 624 c 0,9,10
 403 541 403 541 329 461 c 0,11,12
 292 422 292 422 287 422 c 0,13,14
 283 422 283 422 283 347 c 2,15,-1
 283 291 l 1,16,-1
 283 250 l 2,17,18
 283 162 283 162 279 150 c 0,19,20
 275 142 275 142 273 111 c 2,21,-1
 271 82 l 1,22,-1
 247 81 l 1,23,-1
 222 79 l 1,24,-1
 222 100 l 2,25,26
 222 121 222 121 227 121 c 128,-1,27
 232 121 232 121 232 152 c 128,-1,28
 232 183 232 183 237 186 c 0,29,30
 243 190 243 190 243 282 c 128,-1,31
 243 374 243 374 237 378 c 0,32,33
 232 381 232 381 232 394 c 0,34,35
 232 406 232 406 211 431 c 0,36,37
 191 455 191 455 191 461 c 128,-1,38
 191 467 191 467 180 476 c 0,39,40
 170 484 170 484 170 497 c 0,41,42
 170 509 170 509 165 512 c 0,43,44
 158 516 158 516 143.5 540.5 c 128,-1,45
 129 565 129 565 129 572 c 128,-1,46
 129 579 129 579 92 618 c 0,47,48
 69 642 69 642 62.5 652 c 128,-1,49
 56 662 56 662 56 673 c 0,50,51
 56 686 56 686 58.5 688.5 c 128,-1,52
 61 691 61 691 77 691 c 0,53,54
 92 691 92 691 101 685.5 c 128,-1,55
 110 680 110 680 134 654 c 0,56,57
 170 616 170 616 170 607 c 0,58,59
 170 600 170 600 185 577 c 128,-1,60
 200 554 200 554 207 549 c 0,61,62
 211 546 211 546 211 534 c 0,63,64
 211 523 211 523 219 515 c 0,65,66
 227 508 227 508 235 491 c 128,-1,67
 243 474 243 474 253 474 c 0,68,69
 267 474 267 474 295 505 c 0,70,71
 365 583 365 583 421 661 c 0,72,73
 438 685 438 685 467.5 714 c 128,-1,74
 497 743 497 743 504 743 c 0,75,0
 512 743 512 743 512 748 c 128,-1,1
EndSplineSet
Validated: 1
EndChar

StartChar: Z
Encoding: 90 90 38
Width: 639
GlyphClass: 1
Flags: W
LayerCount: 2
Fore
SplineSet
271 101 m 0,0,1
 262 101 262 101 255 95.5 c 128,-1,2
 248 90 248 90 240 90 c 0,3,4
 227 90 227 90 224 85 c 128,-1,5
 221 80 221 80 193 80 c 128,-1,6
 165 80 165 80 162 75 c 0,7,8
 158 69 158 69 139 69 c 0,9,10
 127 69 127 69 116.5 64.5 c 128,-1,11
 106 60 106 60 96 60 c 2,12,-1
 89 60 l 2,13,14
 74 62 74 62 71 64.5 c 128,-1,15
 68 67 68 67 67 81 c 2,16,-1
 67 88 l 2,17,18
 67 103 67 103 86 127 c 0,19,20
 100 145 100 145 131.5 172 c 128,-1,21
 163 199 163 199 190 215 c 0,22,23
 214 233 214 233 229 247 c 0,24,25
 243 260 243 260 258 275 c 0,26,27
 263 278 263 278 287 308 c 0,28,29
 312 339 312 339 332 359 c 2,30,-1
 363 390 l 2,31,32
 371 398 371 398 391 416 c 128,-1,33
 411 434 411 434 426 450 c 128,-1,34
 441 466 441 466 453 484 c 0,35,36
 500 553 500 553 512 565 c 0,37,38
 522 577 522 577 522 583 c 128,-1,39
 522 589 522 589 534 613 c 0,40,41
 545 634 545 634 542 637 c 128,-1,42
 539 640 539 640 503 640 c 0,43,44
 451 640 451 640 444 635 c 0,45,46
 429 622 429 622 223 620 c 2,47,-1
 56 618 l 1,48,-1
 56 660 l 1,49,-1
 205 662 l 2,50,51
 395 666 395 666 406 676 c 0,52,53
 411 681 411 681 426 681 c 0,54,55
 443 681 443 681 450 686 c 0,56,57
 458 691 458 691 496 691 c 0,58,59
 527 691 527 691 531 687 c 0,60,61
 536 682 536 682 559 680 c 2,62,-1
 582 678 l 1,63,-1
 583 636 l 1,64,-1
 583 618 l 2,65,66
 583 592 583 592 574 575 c 0,67,68
 564 558 564 558 564 548 c 0,69,70
 564 540 564 540 554 528 c 0,71,72
 540 514 540 514 495 448 c 0,73,74
 470 412 470 412 447 392 c 0,75,76
 426 374 426 374 416 364 c 2,77,-1
 371 319 l 2,78,79
 344 292 344 292 328 272 c 0,80,81
 313 252 313 252 297 236 c 0,82,83
 230 173 230 173 226 173 c 0,84,85
 167 136 167 136 167 125 c 0,86,87
 167 122 167 122 171 122 c 2,88,-1
 175 122 l 2,89,90
 181 122 181 122 189 127 c 128,-1,91
 197 132 197 132 204 132 c 0,92,93
 212 132 212 132 219 137 c 128,-1,94
 226 142 226 142 234 142 c 0,95,96
 246 142 246 142 251 147 c 0,97,98
 257 153 257 153 309.5 157.5 c 128,-1,99
 362 162 362 162 408 162 c 0,100,101
 447 162 447 162 451 158 c 0,102,103
 457 152 457 152 474 152 c 128,-1,104
 491 152 491 152 494 147 c 128,-1,105
 497 142 497 142 531 142 c 2,106,-1
 564 142 l 1,107,-1
 564 101 l 1,108,-1
 512 101 l 2,109,110
 461 101 461 101 458 106 c 128,-1,111
 455 111 455 111 437 111 c 0,112,113
 421 111 421 111 415 117 c 0,114,115
 412 120 412 120 394 120 c 0,116,117
 367 120 367 120 330 115 c 128,-1,118
 293 110 293 110 287 105 c 0,119,120
 283 101 283 101 271 101 c 0,0,1
EndSplineSet
Validated: 1
EndChar

StartChar: a
Encoding: 97 97 39
Width: 398
GlyphClass: 1
Flags: W
LayerCount: 2
Fore
SplineSet
211 313 m 0,0,1
 207 313 207 313 195.5 302.5 c 128,-1,2
 184 292 184 292 181 292 c 0,3,4
 174 292 174 292 150.5 265.5 c 128,-1,5
 127 239 127 239 127 231 c 0,6,7
 127 221 127 221 121 217 c 0,8,9
 114 213 114 213 116.5 207 c 128,-1,10
 119 201 119 201 128 196 c 0,11,12
 132 194 132 194 140 194 c 0,13,14
 162 194 162 194 193 220 c 0,15,16
 241 261 241 261 258 261 c 0,17,18
 268 261 268 261 270 267 c 128,-1,19
 272 273 272 273 272 303 c 0,20,21
 272 344 272 344 266 344 c 2,22,-1
 265 344 l 2,23,24
 250 342 250 342 226 322 c 0,25,26
 217 313 217 313 211 313 c 0,0,1
176 354 m 0,27,28
 180 354 180 354 191 364.5 c 128,-1,29
 202 375 202 375 207 375 c 0,30,31
 214 375 214 375 222 385 c 0,32,33
 231 396 231 396 252 396 c 2,34,-1
 272 396 l 1,35,-1
 272 427 l 2,36,37
 272 450 272 450 270 454 c 128,-1,38
 268 458 268 458 256 458 c 0,39,40
 239 458 239 458 222 448 c 0,41,42
 204 437 204 437 195 437 c 0,43,44
 184 437 184 437 171 422 c 0,45,46
 155 406 155 406 149 406 c 0,47,48
 142 406 142 406 118 375 c 0,49,50
 101 354 101 354 94 349 c 128,-1,51
 87 344 87 344 74 344 c 0,52,53
 59 344 59 344 56.5 347 c 128,-1,54
 54 350 54 350 54 364 c 0,55,56
 54 384 54 384 80 416 c 0,57,58
 107 448 107 448 113 448 c 128,-1,59
 119 448 119 448 134 463 c 0,60,61
 148 479 148 479 159 479 c 0,62,63
 169 479 169 479 186 489 c 128,-1,64
 203 499 203 499 220 499 c 0,65,66
 234 499 234 499 238 505 c 0,67,68
 241 510 241 510 268 510 c 0,69,70
 301 510 301 510 307 504 c 128,-1,71
 313 498 313 498 313 353 c 2,72,-1
 313 209 l 1,73,-1
 329 209 l 2,74,75
 340 209 340 209 342 206.5 c 128,-1,76
 344 204 344 204 344 190 c 0,77,78
 344 147 344 147 301 147 c 0,79,80
 261 147 261 147 261 182 c 0,81,82
 261 199 261 199 256 199 c 0,83,84
 253 199 253 199 230 180 c 0,85,86
 211 163 211 163 189 154 c 0,87,88
 166 147 166 147 139 147 c 0,89,90
 107 147 107 147 91 155 c 2,91,-1
 75 163 l 1,92,-1
 75 207 l 2,93,94
 75 250 75 250 80 253 c 128,-1,95
 85 256 85 256 85 267 c 0,96,97
 85 275 85 275 111.5 304.5 c 128,-1,98
 138 334 138 334 145 334 c 0,99,100
 149 334 149 334 160 344 c 128,-1,101
 171 354 171 354 176 354 c 0,27,28
EndSplineSet
Validated: 1
EndChar

StartChar: b
Encoding: 98 98 40
Width: 388
GlyphClass: 1
Flags: W
LayerCount: 2
Fore
SplineSet
217 411 m 128,-1,1
 214 416 214 416 200 416 c 0,2,3
 184 416 184 416 178 409 c 0,4,5
 173 403 173 403 155 393 c 0,6,7
 116 375 116 375 116 307 c 0,8,9
 116 268 116 268 123 254 c 0,10,11
 127 244 127 244 134 241.5 c 128,-1,12
 141 239 141 239 145 246 c 0,13,14
 148 251 148 251 160 251 c 0,15,16
 173 251 173 251 176 256 c 128,-1,17
 179 261 179 261 186 261 c 0,18,19
 196 261 196 261 224 275 c 128,-1,20
 252 289 252 289 259 298 c 0,21,22
 282 324 282 324 282 343 c 0,23,24
 282 353 282 353 288 359 c 0,25,26
 290 361 290 361 290 363 c 0,27,28
 290 374 290 374 268 390 c 128,-1,29
 246 406 246 406 230 406 c 0,30,0
 220 406 220 406 217 411 c 128,-1,1
54 661 m 2,31,-1
 54 686 l 1,32,-1
 74 686 l 2,33,34
 94 686 94 686 98 677 c 0,35,36
 112 643 112 643 115 530 c 0,37,38
 116 437 116 437 125 437 c 0,39,40
 130 437 130 437 139 448 c 0,41,42
 148 458 148 458 200 458 c 0,43,44
 250 458 250 458 253 453 c 128,-1,45
 256 448 256 448 267 448 c 0,46,47
 286 448 286 448 317 420 c 0,48,49
 329 409 329 409 331.5 400.5 c 128,-1,50
 334 392 334 392 334 364 c 0,51,52
 334 324 334 324 329 321 c 0,53,54
 323 317 323 317 323 307 c 0,55,56
 323 289 323 289 303.5 267 c 128,-1,57
 284 245 284 245 257 232 c 0,58,59
 231 220 231 220 222 220 c 0,60,61
 215 220 215 220 212 215 c 0,62,63
 208 209 208 209 196 209 c 128,-1,64
 184 209 184 209 181 204 c 128,-1,65
 178 199 178 199 131 199 c 0,66,67
 100 199 100 199 92.5 200.5 c 128,-1,68
 85 202 85 202 85 208 c 0,69,70
 85 218 85 218 80 223 c 128,-1,71
 75 228 75 228 73 406 c 0,72,73
 71 624 71 624 59 632 c 0,74,75
 54 635 54 635 54 661 c 2,31,-1
EndSplineSet
Validated: 1
EndChar

StartChar: c
Encoding: 99 99 41
Width: 325
GlyphClass: 1
Flags: W
LayerCount: 2
Fore
SplineSet
262 152 m 0,0,1
 255 152 255 152 229 136.5 c 128,-1,2
 203 121 203 121 195 121 c 0,3,4
 183 121 183 121 180 116 c 0,5,6
 178 111 178 111 142 111 c 128,-1,7
 106 111 106 111 103 116 c 128,-1,8
 100 121 100 121 90 121 c 0,9,10
 79 121 79 121 66 139 c 0,11,12
 54 155 54 155 54 177 c 0,13,14
 54 196 54 196 55 210 c 0,15,16
 59 309 59 309 76 327 c 0,17,18
 84 335 84 335 84 348 c 0,19,20
 84 359 84 359 90 363 c 0,21,22
 97 368 97 368 105 382 c 0,23,24
 114 396 114 396 132 404 c 0,25,26
 153 411 153 411 196 411 c 0,27,28
 242 411 242 411 252 404 c 0,29,30
 261 398 261 398 261 378 c 0,31,32
 261 365 261 365 258 362.5 c 128,-1,33
 255 360 255 360 240 360 c 0,34,35
 216 360 216 360 209 366 c 0,36,37
 206 368 206 368 198 368 c 0,38,39
 184 368 184 368 167.5 362 c 128,-1,40
 151 356 151 356 149 349 c 0,41,42
 145 338 145 338 136 331 c 0,43,44
 126 323 126 323 126 311 c 0,45,46
 126 300 126 300 117 291 c 0,47,48
 112 286 112 286 108 272 c 128,-1,49
 104 258 104 258 101 236 c 128,-1,50
 98 214 98 214 97 211 c 0,51,52
 97 210 97 210 96.5 207.5 c 128,-1,53
 96 205 96 205 96 204 c 0,54,55
 96 190 96 190 106 177 c 128,-1,56
 116 164 116 164 129 161 c 0,57,58
 132 160 132 160 140 160 c 0,59,60
 168 160 168 160 198 180 c 0,61,62
 219 194 219 194 244 194 c 2,63,-1
 271 194 l 1,64,-1
 271 173 l 2,65,66
 271 152 271 152 262 152 c 0,0,1
EndSplineSet
Validated: 1
EndChar

StartChar: d
Encoding: 100 100 42
Width: 350
GlyphClass: 1
Flags: W
LayerCount: 2
Fore
SplineSet
246 348 m 0,0,1
 246 355 246 355 251 361.5 c 128,-1,2
 256 368 256 368 256 373 c 0,3,4
 256 382 256 382 229 382 c 0,5,6
 208 382 208 382 194 375 c 0,7,8
 180 369 180 369 156 344.5 c 128,-1,9
 132 320 132 320 132 313 c 0,10,11
 132 309 132 309 114 277 c 0,12,13
 97 246 97 246 97 229 c 0,14,15
 97 204 97 204 129 204 c 0,16,17
 153 204 153 204 180.5 223.5 c 128,-1,18
 208 243 208 243 218 266 c 0,19,20
 246 329 246 329 246 348 c 0,0,1
225 631 m 2,21,-1
 225 650 l 1,22,-1
 287 650 l 1,23,-1
 287 617 l 2,24,25
 287 583 287 583 292 580 c 0,26,27
 298 576 298 576 298 453 c 128,-1,28
 298 330 298 330 292 326 c 0,29,30
 287 323 287 323 287 311 c 0,31,32
 287 290 287 290 260 230 c 0,33,34
 254 217 254 217 233.5 198 c 128,-1,35
 213 179 213 179 195 169 c 0,36,37
 184 163 184 163 128 163 c 0,38,39
 87 163 87 163 77.5 165 c 128,-1,40
 68 167 68 167 62 176 c 0,41,42
 54 188 54 188 54 234 c 128,-1,43
 54 280 54 280 68 306 c 0,44,45
 78 327 78 327 89 340 c 0,46,47
 97 350 97 350 98 356 c 0,48,49
 100 367 100 367 122.5 388.5 c 128,-1,50
 145 410 145 410 166 420 c 0,51,52
 193 432 193 432 211 432 c 0,53,54
 213 432 213 432 217 431.5 c 128,-1,55
 221 431 221 431 224 431 c 2,56,-1
 256 430 l 1,57,-1
 256 485 l 2,58,59
 256 541 256 541 251 544 c 128,-1,60
 246 547 246 547 246 566 c 128,-1,61
 246 585 246 585 235 598 c 0,62,63
 225 610 225 610 225 631 c 2,21,-1
EndSplineSet
Validated: 1
EndChar

StartChar: e
Encoding: 101 101 43
Width: 356
GlyphClass: 1
Flags: W
LayerCount: 2
Fore
SplineSet
186 384 m 0,0,1
 182 390 182 390 174 390 c 0,2,3
 158 390 158 390 136.5 362 c 128,-1,4
 115 334 115 334 115 322 c 1,5,-1
 116 320 l 2,6,7
 120 316 120 316 136 325 c 0,8,9
 157 335 157 335 172.5 351 c 128,-1,10
 188 367 188 367 188 378 c 0,11,12
 188 380 188 380 186 384 c 0,0,1
151 277 m 0,13,14
 143 277 143 277 137 271.5 c 128,-1,15
 131 266 131 266 124 266 c 0,16,17
 114 266 114 266 114 261 c 128,-1,18
 114 256 114 256 104 256 c 0,19,20
 93 256 93 256 93 241 c 0,21,22
 93 228 93 228 104 199 c 0,23,24
 114 172 114 172 114 169 c 0,25,26
 114 168 114 168 126 163 c 0,27,28
 127 162 127 162 131 162 c 0,29,30
 149 162 149 162 186 184 c 128,-1,31
 223 206 223 206 246 230 c 0,32,33
 262 246 262 246 281 246 c 0,34,35
 295 246 295 246 298 243 c 128,-1,36
 301 240 301 240 301 226 c 0,37,38
 301 207 301 207 279 185 c 0,39,40
 244 152 244 152 204 131.5 c 128,-1,41
 164 111 164 111 136 111 c 0,42,43
 87 111 87 111 73 137 c 0,44,45
 53 174 53 174 53 228 c 2,46,-1
 53 245 l 1,47,48
 57 314 57 314 68.5 349 c 128,-1,49
 80 384 80 384 108 413 c 2,50,-1
 126 432 l 1,51,-1
 171 432 l 2,52,53
 200 432 200 432 209.5 430 c 128,-1,54
 219 428 219 428 226 421 c 0,55,56
 239 409 239 409 239 378 c 0,57,58
 239 350 239 350 227 332 c 0,59,60
 213 312 213 312 189 294.5 c 128,-1,61
 165 277 165 277 151 277 c 0,13,14
EndSplineSet
Validated: 1
EndChar

StartChar: f
Encoding: 102 102 44
Width: 475
GlyphClass: 1
Flags: W
LayerCount: 2
Fore
SplineSet
233 668 m 0,0,1
 256 680 256 680 290 681 c 0,2,3
 325 681 325 681 328 676 c 0,4,5
 332 670 332 670 341 670 c 0,6,7
 352 670 352 670 372 658 c 128,-1,8
 392 646 392 646 404 632 c 0,9,10
 418 616 418 616 419 581 c 0,11,12
 419 546 419 546 413.5 535.5 c 128,-1,13
 408 525 408 525 388 525 c 0,14,15
 373 525 373 525 370 527.5 c 128,-1,16
 367 530 367 530 367 544 c 0,17,18
 367 563 367 563 372 571 c 0,19,20
 373 573 373 573 373 576 c 0,21,22
 373 590 373 590 349.5 608.5 c 128,-1,23
 326 627 326 627 301 631 c 0,24,25
 300 631 300 631 298 631.5 c 128,-1,26
 296 632 296 632 294 632 c 0,27,28
 280 632 280 632 264 623.5 c 128,-1,29
 248 615 248 615 243 604 c 128,-1,30
 238 593 238 593 222 583 c 0,31,32
 211 577 211 577 201 561 c 128,-1,33
 191 545 191 545 191 533 c 0,34,35
 191 525 191 525 180 490 c 0,36,37
 160 427 160 427 160 407 c 0,38,39
 160 391 160 391 164 391 c 0,40,41
 169 391 169 391 187.5 398 c 128,-1,42
 206 405 206 405 209 408 c 128,-1,43
 212 411 212 411 238 411 c 2,44,-1
 263 411 l 1,45,-1
 263 392 l 2,46,47
 263 375 263 375 255 369.5 c 128,-1,48
 247 364 247 364 200 349 c 2,49,-1
 160 336 l 1,50,-1
 160 266 l 2,51,52
 160 196 160 196 155 191 c 128,-1,53
 150 186 150 186 148 155 c 2,54,-1
 147 124 l 1,55,-1
 100 124 l 1,56,-1
 98 149 l 2,57,58
 96 173 96 173 102 173 c 128,-1,59
 108 173 108 173 108 198 c 0,60,61
 108 224 108 224 113 227 c 128,-1,62
 118 230 118 230 118 281 c 0,63,64
 118 325 118 325 114 325 c 0,65,66
 113 325 113 325 112 324 c 0,67,68
 106 318 106 318 81 318 c 2,69,-1
 56 318 l 1,70,-1
 56 338 l 2,71,72
 56 354 56 354 62.5 359 c 128,-1,73
 69 364 69 364 97 369 c 2,74,-1
 116 373 l 1,75,-1
 119 422 l 2,76,77
 125 501 125 501 141 538 c 0,78,79
 149 560 149 560 149 568 c 0,80,81
 149 580 149 580 160.5 599 c 128,-1,82
 172 618 172 618 181 621 c 0,83,84
 191 624 191 624 201 640 c 0,85,86
 209 654 209 654 233 668 c 0,0,1
EndSplineSet
Validated: 1
EndChar

StartChar: g
Encoding: 103 103 45
Width: 313
GlyphClass: 1
Flags: W
LayerCount: 2
Fore
SplineSet
203 142 m 0,0,1
 209 152 209 152 205 152 c 0,2,3
 187 150 187 150 170 117 c 0,4,5
 156 90 156 90 149 85 c 0,6,7
 142 79 142 79 125.5 48 c 128,-1,8
 109 17 109 17 104 1 c 0,9,10
 103 -2 103 -2 103 -7 c 0,11,12
 103 -14 103 -14 108 -14 c 0,13,14
 117 -14 117 -14 145 11 c 0,15,16
 168 33 168 33 183 61.5 c 128,-1,17
 198 90 198 90 198 112 c 0,18,19
 198 132 198 132 203 142 c 0,0,1
188 396 m 0,20,21
 188 407 188 407 173 398 c 0,22,23
 168 396 168 396 164 391 c 0,24,25
 155 380 155 380 148 380 c 0,26,27
 142 380 142 380 128.5 360 c 128,-1,28
 115 340 115 340 115 331 c 0,29,30
 115 321 115 321 105 309 c 0,31,32
 94 295 94 295 94 266 c 0,33,34
 94 239 94 239 98 239 c 0,35,36
 100 239 100 239 106 241 c 0,37,38
 120 248 120 248 149 309 c 128,-1,39
 178 370 178 370 183 381 c 0,40,41
 188 389 188 389 188 396 c 0,20,21
130 434 m 0,42,43
 137 442 137 442 185 442 c 0,44,45
 219 442 219 442 228 440 c 128,-1,46
 237 438 237 438 247 428 c 2,47,-1
 261 415 l 1,48,-1
 258 303 l 2,49,50
 256 192 256 192 242 82 c 0,51,52
 234 22 234 22 184 -27 c 2,53,-1
 155 -55 l 1,54,-1
 105 -54 l 1,55,-1
 56 -52 l 1,56,-1
 54 -23 l 1,57,-1
 54 -14 l 2,58,59
 54 15 54 15 60 31 c 0,60,61
 68 55 68 55 83.5 85 c 128,-1,62
 99 115 99 115 107 121 c 0,63,64
 115 128 115 128 129 153 c 0,65,66
 141 176 141 176 153.5 185 c 128,-1,67
 166 194 166 194 186 194 c 0,68,69
 201 194 201 194 204.5 196.5 c 128,-1,70
 208 199 208 199 211 211 c 0,71,72
 215 230 215 230 217 277 c 2,73,-1
 219 326 l 1,74,-1
 189 268 l 2,75,76
 163 216 163 216 144.5 199.5 c 128,-1,77
 126 183 126 183 93 183 c 0,78,79
 66 183 66 183 59 190 c 0,80,81
 53 196 53 196 53 264 c 0,82,83
 53 333 53 333 63 346 c 0,84,85
 74 359 74 359 74 367 c 0,86,87
 74 377 74 377 88.5 397 c 128,-1,88
 103 417 103 417 112 421 c 0,89,90
 124 426 124 426 130 434 c 0,42,43
EndSplineSet
Validated: 1
EndChar

StartChar: h
Encoding: 104 104 46
Width: 379
GlyphClass: 1
Flags: W
LayerCount: 2
Fore
SplineSet
57 566 m 2,0,-1
 54 650 l 1,1,-1
 95 650 l 1,2,-1
 98 584 l 2,3,4
 105 425 105 425 116 385 c 0,5,6
 117 383 117 383 117 380 c 2,7,-1
 121 373 l 1,8,-1
 121 374 l 2,9,10
 122 382 122 382 139.5 400 c 128,-1,11
 157 418 157 418 171 425 c 0,12,13
 184 431 184 431 210 431 c 2,14,-1
 221 431 l 2,15,16
 235 430 235 430 240 429.5 c 128,-1,17
 245 429 245 429 250.5 427 c 128,-1,18
 256 425 256 425 257.5 422 c 128,-1,19
 259 419 259 419 263 411 c 0,20,21
 271 394 271 394 272 323 c 2,22,-1
 272 252 l 1,23,24
 280 253 280 253 298 255 c 128,-1,25
 316 257 316 257 324 258 c 1,26,-1
 324 237 l 2,27,28
 322 215 322 215 309 196 c 0,29,30
 300 183 300 183 293.5 179 c 128,-1,31
 287 175 287 175 275 174 c 0,32,33
 256 172 256 172 250 178 c 0,34,35
 231 197 231 197 231 287 c 0,36,37
 231 383 231 383 211 383 c 0,38,39
 210 383 210 383 207 382 c 0,40,41
 200 380 200 380 190 370 c 128,-1,42
 180 360 180 360 145 319 c 2,43,-1
 126 297 l 1,44,45
 126 279 126 279 125 242 c 128,-1,46
 124 205 124 205 124 186 c 1,47,-1
 78 186 l 1,48,-1
 76 216 l 2,49,50
 74 246 74 246 70 246 c 0,51,52
 65 246 65 246 65 275 c 0,53,54
 65 311 65 311 71 317 c 0,55,56
 76 322 76 322 73 345 c 0,57,58
 63 407 63 407 57 566 c 2,0,-1
EndSplineSet
Validated: 1
EndChar

StartChar: i
Encoding: 105 105 47
Width: 190
GlyphClass: 1
Flags: W
LayerCount: 2
Fore
SplineSet
90 611 m 0,0,1
 95 628 95 628 98.5 631 c 128,-1,2
 102 634 102 634 116 634 c 2,3,-1
 136 634 l 1,4,-1
 136 609 l 2,5,6
 136 585 136 585 130 567 c 0,7,8
 126 556 126 556 122 553.5 c 128,-1,9
 118 551 118 551 104 551 c 0,10,11
 89 551 89 551 86.5 553.5 c 128,-1,12
 84 556 84 556 84 569 c 0,13,14
 84 592 84 592 90 611 c 0,0,1
58 230 m 0,15,16
 61 230 61 230 64 268.5 c 128,-1,17
 67 307 67 307 69 354 c 2,18,-1
 71 400 l 1,19,-1
 75 437 l 1,20,-1
 116 437 l 1,21,-1
 113 382 l 2,22,23
 112 373 112 373 110 326.5 c 128,-1,24
 108 280 108 280 106 259 c 2,25,-1
 102 191 l 1,26,-1
 78 190 l 1,27,-1
 53 188 l 1,28,-1
 53 209 l 2,29,30
 53 230 53 230 58 230 c 0,15,16
EndSplineSet
Validated: 1
EndChar

StartChar: j
Encoding: 106 106 48
Width: 326
GlyphClass: 1
Flags: W
LayerCount: 2
Fore
SplineSet
172 499 m 1,0,-1
 172 562 l 1,1,-1
 224 562 l 1,2,-1
 224 541 l 2,3,4
 224 520 224 520 219 520 c 0,5,6
 213 520 213 520 213 510 c 0,7,8
 213 503 213 503 209.5 501 c 128,-1,9
 206 499 206 499 193 499 c 2,10,-1
 172 499 l 1,0,-1
213 330 m 2,11,-1
 213 375 l 1,12,-1
 255 375 l 1,13,-1
 255 348 l 2,14,15
 255 320 255 320 260 315 c 0,16,17
 271 304 271 304 274 168 c 0,18,19
 275 152 275 152 275 126 c 0,20,21
 275 78 275 78 270 73 c 128,-1,22
 265 68 265 68 265 51 c 128,-1,23
 265 34 265 34 245 13 c 0,24,25
 224 -8 224 -8 224 -12 c 0,26,27
 219 -21 219 -21 204 -38 c 2,28,-1
 183 -60 l 1,29,-1
 127 -60 l 2,30,31
 70 -60 70 -60 64 -54 c 128,-1,32
 58 -48 58 -48 58 -14 c 0,33,34
 58 21 58 21 64 27 c 128,-1,35
 70 33 70 33 91 33 c 2,36,-1
 111 33 l 1,37,-1
 109 7 l 1,38,-1
 106 -19 l 1,39,-1
 126 -19 l 2,40,41
 145 -19 145 -19 164 1 c 0,42,43
 182 19 182 19 182 25 c 0,44,45
 182 30 182 30 203 51 c 0,46,47
 224 71 224 71 224 88 c 0,48,49
 224 103 224 103 230 109 c 0,50,51
 233 112 233 112 233 142 c 0,52,53
 233 180 233 180 228.5 226.5 c 128,-1,54
 224 273 224 273 218 279 c 0,55,56
 213 284 213 284 213 330 c 2,11,-1
EndSplineSet
Validated: 1
EndChar

StartChar: k
Encoding: 107 107 49
Width: 291
GlyphClass: 1
Flags: W
LayerCount: 2
Fore
SplineSet
195 168 m 128,-1,1
 195 176 195 176 190 183 c 128,-1,2
 185 190 185 190 185 199 c 0,3,4
 185 212 185 212 180 215 c 128,-1,5
 175 218 175 218 175 227 c 0,6,7
 175 237 175 237 161.5 262 c 128,-1,8
 148 287 148 287 134 303 c 0,9,10
 118 321 118 321 118 326 c 128,-1,11
 118 331 118 331 110 331 c 0,12,13
 103 331 103 331 102 250 c 2,14,-1
 100 169 l 1,15,16
 92 168 92 168 75.5 167 c 128,-1,17
 59 166 59 166 51 165 c 1,18,-1
 51 186 l 2,19,20
 51 207 51 207 56 207 c 128,-1,21
 61 207 61 207 61 429 c 2,22,-1
 61 651 l 1,23,-1
 103 651 l 1,24,-1
 103 411 l 1,25,-1
 116 437 l 2,26,27
 127 459 127 459 147 489 c 0,28,29
 164 513 164 513 164 521 c 0,30,31
 164 527 164 527 185 527 c 2,32,-1
 206 527 l 1,33,-1
 206 499 l 2,34,35
 206 471 206 471 192 456 c 0,36,37
 176 438 176 438 162 408 c 0,38,39
 150 384 150 384 150 376 c 0,40,41
 150 372 150 372 153 367 c 0,42,43
 179 339 179 339 197.5 308 c 128,-1,44
 216 277 216 277 216 263 c 0,45,46
 216 257 216 257 221 250.5 c 128,-1,47
 226 244 226 244 226 236 c 0,48,49
 226 223 226 223 231 220 c 0,50,51
 237 216 237 216 237 186 c 2,52,-1
 237 156 l 1,53,-1
 216 156 l 2,54,55
 202 156 202 156 198.5 158 c 128,-1,0
 195 160 195 160 195 168 c 128,-1,1
EndSplineSet
Validated: 1
EndChar

StartChar: l
Encoding: 108 108 50
Width: 169
GlyphClass: 1
Flags: W
LayerCount: 2
Fore
SplineSet
58 606 m 2,0,-1
 54 640 l 1,1,-1
 75 640 l 2,2,3
 89 640 89 640 92.5 637.5 c 128,-1,4
 96 635 96 635 99 624 c 0,5,6
 103 604 103 604 107 449 c 0,7,8
 108 415 108 415 109.5 364.5 c 128,-1,9
 111 314 111 314 112 279 c 128,-1,10
 113 244 113 244 114 229 c 2,11,-1
 117 166 l 1,12,-1
 76 166 l 1,13,-1
 73 211 l 2,14,15
 71 231 71 231 66 406 c 128,-1,16
 61 581 61 581 58 606 c 2,0,-1
EndSplineSet
Validated: 1
EndChar

StartChar: m
Encoding: 109 109 51
Width: 416
GlyphClass: 1
Flags: W
LayerCount: 2
Fore
SplineSet
228 303 m 128,-1,1
 228 294 228 294 222.5 285.5 c 128,-1,2
 217 277 217 277 217 266 c 0,3,4
 217 253 217 253 214.5 250.5 c 128,-1,5
 212 248 212 248 197 248 c 128,-1,6
 182 248 182 248 179 250.5 c 128,-1,7
 176 253 176 253 176 266 c 0,8,9
 176 284 176 284 171 287 c 128,-1,10
 166 290 166 290 166 315 c 0,11,12
 166 338 166 338 160 348 c 0,13,14
 155 354 155 354 152 352.5 c 128,-1,15
 149 351 149 351 140 340 c 0,16,17
 126 322 126 322 121 302 c 0,18,19
 113 279 113 279 110 279 c 0,20,21
 108 279 108 279 108 228 c 2,22,-1
 108 192 l 1,23,-1
 110 104 l 1,24,-1
 91 104 l 2,25,26
 72 104 72 104 65 111 c 128,-1,27
 58 118 58 118 58 140 c 0,28,29
 58 156 58 156 63 156 c 128,-1,30
 68 156 68 156 68 191 c 0,31,32
 68 229 68 229 63 246 c 0,33,34
 60 254 60 254 56 322 c 2,35,-1
 53 382 l 1,36,-1
 73 382 l 2,37,38
 94 382 94 382 94 376 c 256,39,40
 94 370 94 370 112 392 c 0,41,42
 124 406 124 406 131 409.5 c 128,-1,43
 138 413 138 413 155 413 c 0,44,45
 179 413 179 413 190 399 c 2,46,-1
 201 385 l 1,47,-1
 216 399 l 2,48,49
 226 408 226 408 234.5 410.5 c 128,-1,50
 243 413 243 413 265 413 c 0,51,52
 298 413 298 413 304 407 c 0,53,54
 324 382 324 382 331 305 c 0,55,56
 338 226 338 226 352 214 c 0,57,58
 362 204 362 204 362 186 c 0,59,60
 362 172 362 172 359 169 c 128,-1,61
 356 166 356 166 342 166 c 0,62,63
 315 166 315 166 305 185.5 c 128,-1,64
 295 205 295 205 290 269 c 0,65,66
 288 296 288 296 280 327.5 c 128,-1,67
 272 359 272 359 266 366 c 0,68,69
 265 367 265 367 264 367 c 0,70,71
 259 367 259 367 248.5 353.5 c 128,-1,72
 238 340 238 340 238 333 c 0,73,74
 238 324 238 324 233 318 c 128,-1,0
 228 312 228 312 228 303 c 128,-1,1
EndSplineSet
Validated: 1
EndChar

StartChar: n
Encoding: 110 110 52
Width: 346
GlyphClass: 1
Flags: W
LayerCount: 2
Fore
SplineSet
54 399 m 2,0,-1
 54 424 l 1,1,-1
 75 424 l 2,2,3
 95 424 95 424 95 416 c 0,4,5
 95 405 95 405 110 405 c 0,6,7
 117 405 117 405 123 408 c 0,8,9
 130 412 130 412 157 412 c 2,10,-1
 172 412 l 2,11,12
 193 411 193 411 200 410 c 128,-1,13
 207 409 207 409 211 406 c 128,-1,14
 215 403 215 403 219 395 c 0,15,16
 227 383 227 383 231 359 c 0,17,18
 244 294 244 294 248 251 c 0,19,20
 254 187 254 187 278 187 c 0,21,22
 286 187 286 187 288.5 183.5 c 128,-1,23
 291 180 291 180 291 167 c 0,24,25
 291 149 291 149 284.5 142 c 128,-1,26
 278 135 278 135 260 135 c 0,27,28
 215 135 215 135 207 215 c 0,29,30
 198 314 198 314 179 356 c 0,31,32
 172 372 172 372 170 372 c 0,33,34
 158 372 158 372 124 342 c 0,35,36
 107 328 107 328 107 320 c 0,37,38
 107 314 107 314 110 305 c 0,39,40
 116 285 116 285 116 257 c 0,41,42
 116 228 116 228 121 228 c 128,-1,43
 126 228 126 228 126 187 c 2,44,-1
 126 145 l 1,45,-1
 106 145 l 2,46,47
 92 145 92 145 88.5 148 c 128,-1,48
 85 151 85 151 83 165 c 0,49,50
 71 237 71 237 66 315 c 0,51,52
 62 367 62 367 59 370 c 0,53,54
 54 375 54 375 54 399 c 2,0,-1
EndSplineSet
Validated: 1
EndChar

StartChar: o
Encoding: 111 111 53
Width: 333
GlyphClass: 1
Flags: W
LayerCount: 2
Fore
SplineSet
231 404 m 0,0,1
 213 419 213 419 201 419 c 0,2,3
 191 419 191 419 181 411 c 0,4,5
 167 400 167 400 167 391 c 128,-1,6
 167 382 167 382 152 382 c 0,7,8
 138 382 138 382 131 369 c 0,9,10
 128 362 128 362 121 352.5 c 128,-1,11
 114 343 114 343 109.5 334 c 128,-1,12
 105 325 105 325 103 313 c 0,13,14
 102 309 102 309 100 295 c 128,-1,15
 98 281 98 281 97 276 c 0,16,17
 97 274 97 274 96.5 272 c 128,-1,18
 96 270 96 270 96 269 c 0,19,20
 96 258 96 258 110 237 c 0,21,22
 137 197 137 197 154 197 c 0,23,24
 161 197 161 197 166 209 c 128,-1,25
 171 221 171 221 182 225 c 128,-1,26
 193 229 193 229 198 247 c 0,27,28
 201 253 201 253 209 270.5 c 128,-1,29
 217 288 217 288 222 301 c 128,-1,30
 227 314 227 314 230 328 c 0,31,32
 238 372 238 372 238 388 c 0,33,34
 238 398 238 398 231 404 c 0,0,1
129 443 m 0,35,36
 150 458 150 458 159.5 461 c 128,-1,37
 169 464 169 464 193 464 c 2,38,-1
 199 464 l 2,39,40
 250 464 250 464 272 440 c 0,41,42
 280 432 280 432 280 407 c 0,43,44
 280 388 280 388 279 374 c 0,45,46
 274 279 274 279 256 248 c 0,47,48
 247 233 247 233 239 211 c 0,49,50
 232 191 232 191 221 186 c 0,51,52
 208 179 208 179 203 168 c 0,53,54
 199 159 199 159 192.5 157.5 c 128,-1,55
 186 156 186 156 155 156 c 0,56,57
 118 156 118 156 103.5 163.5 c 128,-1,58
 89 171 89 171 69 201 c 0,59,60
 54 222 54 222 54 245 c 0,61,62
 54 262 54 262 55 276 c 0,63,64
 59 364 59 364 72 378 c 0,65,66
 83 391 83 391 89 404 c 0,67,68
 99 422 99 422 129 443 c 0,35,36
EndSplineSet
Validated: 1
EndChar

StartChar: p
Encoding: 112 112 54
Width: 312
GlyphClass: 1
Flags: W
LayerCount: 2
Fore
SplineSet
198 353 m 0,0,1
 190 361 190 361 168 361 c 0,2,3
 152 361 152 361 143 356 c 0,4,5
 141 355 141 355 135 352.5 c 128,-1,6
 129 350 129 350 128 348.5 c 128,-1,7
 127 347 127 347 123.5 345.5 c 128,-1,8
 120 344 120 344 120 340.5 c 128,-1,9
 120 337 120 337 118.5 334 c 128,-1,10
 117 331 117 331 117 323.5 c 128,-1,11
 117 316 117 316 116.5 310 c 128,-1,12
 116 304 116 304 116 290 c 2,13,-1
 114 237 l 1,14,-1
 131 249 l 2,15,16
 137 253 137 253 177 289 c 0,17,18
 208 317 208 317 208 334 c 0,19,20
 208 344 208 344 198 353 c 0,0,1
112 398 m 128,-1,22
 115 403 115 403 170 403 c 0,23,24
 207 403 207 403 218 401 c 128,-1,25
 229 399 229 399 237 392 c 0,26,27
 249 382 249 382 249 369 c 0,28,29
 249 357 249 357 254 354 c 128,-1,30
 259 351 259 351 259 321 c 2,31,-1
 259 291 l 1,32,-1
 221 256 l 2,33,34
 209 244 209 244 178.5 217.5 c 128,-1,35
 148 191 148 191 144 187 c 2,36,-1
 106 153 l 1,37,-1
 105 119 l 2,38,39
 103 84 103 84 99 81 c 0,40,41
 94 78 94 78 94 49 c 2,42,-1
 94 22 l 1,43,-1
 53 22 l 1,44,-1
 53 67 l 2,45,46
 53 113 53 113 58 118 c 0,47,48
 61 121 61 121 65 181 c 0,49,50
 69 246 69 246 72 271 c 0,51,52
 73 277 73 277 73 288 c 0,53,54
 73 303 73 303 69 307 c 0,55,56
 63 313 63 313 63 353 c 2,57,-1
 63 393 l 1,58,-1
 86 393 l 2,59,21
 109 393 109 393 112 398 c 128,-1,22
EndSplineSet
Validated: 1
EndChar

StartChar: q
Encoding: 113 113 55
Width: 410
GlyphClass: 1
Flags: W
LayerCount: 2
Fore
SplineSet
191 355 m 0,0,1
 175 369 175 369 168 351 c 0,2,3
 163 339 163 339 147 323 c 0,4,5
 132 309 132 309 119 289 c 128,-1,6
 106 269 106 269 106 261 c 0,7,8
 106 257 106 257 101 247.5 c 128,-1,9
 96 238 96 238 96 232 c 0,10,11
 96 230 96 230 98 224 c 0,12,13
 105 214 105 214 113 214 c 0,14,15
 122 214 122 214 136 226 c 128,-1,16
 150 238 150 238 169 265.5 c 128,-1,17
 188 293 188 293 188 302 c 0,18,19
 188 310 188 310 193 313 c 128,-1,20
 198 316 198 316 198 329 c 0,21,22
 198 346 198 346 191 355 c 0,0,1
270 -30 m 0,23,24
 270 -34 270 -34 255 -53 c 128,-1,25
 240 -72 240 -72 240 -76 c 0,26,27
 240 -81 240 -81 219 -81 c 2,28,-1
 198 -81 l 1,29,-1
 198 209 l 1,30,-1
 182 193 l 2,31,32
 163 176 163 176 150 171 c 128,-1,33
 137 166 137 166 110 166 c 0,34,35
 78 166 78 166 66 177 c 0,36,37
 58 184 58 184 56 193.5 c 128,-1,38
 54 203 54 203 54 234 c 0,39,40
 54 279 54 279 59 282 c 128,-1,41
 64 285 64 285 64 295 c 128,-1,42
 64 305 64 305 77.5 324.5 c 128,-1,43
 91 344 91 344 108 361 c 0,44,45
 126 379 126 379 126 385 c 128,-1,46
 126 391 126 391 132 397 c 128,-1,47
 138 403 138 403 183 403 c 0,48,49
 224 403 224 403 227 398 c 128,-1,50
 230 393 230 393 240 393 c 0,51,52
 247 393 247 393 248.5 387 c 128,-1,53
 250 381 250 381 250 357 c 0,54,55
 250 321 250 321 245 318 c 128,-1,56
 240 315 240 315 240 165 c 0,57,58
 240 20 240 20 246 20 c 2,59,-1
 250 22 l 2,60,61
 261 27 261 27 268 42 c 0,62,63
 273 53 273 53 285 60.5 c 128,-1,64
 297 68 297 68 302 78 c 0,65,66
 308 88 308 88 313.5 91 c 128,-1,67
 319 94 319 94 332 94 c 0,68,69
 347 94 347 94 350 91.5 c 128,-1,70
 353 89 353 89 353 76 c 0,71,72
 353 60 353 60 343 41.5 c 128,-1,73
 333 23 333 23 323 19 c 0,74,75
 314 15 314 15 306 1 c 0,76,77
 297 -13 297 -13 283 -21 c 0,78,79
 270 -27 270 -27 270 -30 c 0,23,24
EndSplineSet
Validated: 1
EndChar

StartChar: r
Encoding: 114 114 56
Width: 305
GlyphClass: 1
Flags: W
LayerCount: 2
Fore
SplineSet
74 408 m 0,0,1
 85 408 85 408 93.5 405 c 128,-1,2
 102 402 102 402 105 402 c 0,3,4
 112 402 112 402 122 408 c 0,5,6
 140 418 140 418 185 418 c 0,7,8
 227 418 227 418 238.5 412.5 c 128,-1,9
 250 407 250 407 250 386 c 2,10,-1
 250 367 l 1,11,-1
 227 367 l 2,12,13
 204 367 204 367 201 372 c 0,14,15
 198 378 198 378 188 378 c 0,16,17
 172 378 172 378 154 365 c 128,-1,18
 136 352 136 352 136 338 c 0,19,20
 136 326 136 326 131 326 c 0,21,22
 125 326 125 326 131 316 c 0,23,24
 136 306 136 306 136 233 c 0,25,26
 136 182 136 182 134.5 168 c 128,-1,27
 133 154 133 154 126 145 c 0,28,29
 115 130 115 130 95 130 c 2,30,-1
 75 130 l 1,31,-1
 75 161 l 2,32,33
 75 192 75 192 85 192 c 0,34,35
 91 192 91 192 92.5 194.5 c 128,-1,36
 94 197 94 197 94 207 c 0,37,38
 94 222 94 222 93 235 c 0,39,40
 88 318 88 318 79 324 c 0,41,42
 75 327 75 327 75 335 c 0,43,44
 75 344 75 344 64 357 c 0,45,46
 54 369 54 369 54 389 c 0,47,48
 54 403 54 403 57 405.5 c 128,-1,49
 60 408 60 408 74 408 c 0,0,1
EndSplineSet
Validated: 1
EndChar

StartChar: s
Encoding: 115 115 57
Width: 315
GlyphClass: 1
Flags: W
LayerCount: 2
Fore
SplineSet
196 125 m 0,0,1
 188 125 188 125 181 119.5 c 128,-1,2
 174 114 174 114 166 114 c 0,3,4
 154 114 154 114 149 109 c 0,5,6
 143 103 143 103 121 105 c 2,7,-1
 99 107 l 1,8,-1
 97 142 l 1,9,-1
 96 176 l 1,10,-1
 117 176 l 2,11,12
 131 176 131 176 134 174 c 128,-1,13
 137 172 137 172 137 165 c 0,14,15
 137 153 137 153 144 160 c 0,16,17
 150 166 150 166 161 166 c 0,18,19
 171 166 171 166 196 191 c 2,20,-1
 220 216 l 1,21,-1
 210 236 l 2,22,23
 193 265 193 265 186 265 c 0,24,25
 182 265 182 265 170 258 c 0,26,27
 151 248 151 248 124 248 c 0,28,29
 100 248 100 248 82.5 255.5 c 128,-1,30
 65 263 65 263 65 275 c 0,31,32
 65 284 65 284 60 287 c 128,-1,33
 55 290 55 290 55 331 c 128,-1,34
 55 372 55 372 60 375 c 128,-1,35
 65 378 65 378 65 386 c 0,36,37
 65 400 65 400 109 432 c 0,38,39
 124 443 124 443 153 444 c 0,40,41
 182 444 182 444 196 430 c 128,-1,42
 210 416 210 416 210 394 c 0,43,44
 210 378 210 378 207.5 375 c 128,-1,45
 205 372 205 372 190 372 c 0,46,47
 171 372 171 372 164 382 c 0,48,49
 157 393 157 393 151 393 c 0,50,51
 144 393 144 393 125.5 374.5 c 128,-1,52
 107 356 107 356 107 350 c 0,53,54
 107 348 107 348 101 339 c 128,-1,55
 95 330 95 330 100 325 c 0,56,57
 107 318 107 318 107 310 c 0,58,59
 107 298 107 298 120 298 c 0,60,61
 127 298 127 298 139 303 c 0,62,63
 157 311 157 311 187 311 c 0,64,65
 224 311 224 311 231 302 c 0,66,67
 261 269 261 269 261 216 c 2,68,-1
 261 179 l 1,69,-1
 234 152 l 2,70,71
 207 125 207 125 196 125 c 0,0,1
EndSplineSet
Validated: 1
EndChar

StartChar: t
Encoding: 116 116 58
Width: 328
GlyphClass: 1
Flags: W
LayerCount: 2
Fore
SplineSet
257 434 m 0,0,1
 246 434 246 434 227.5 423.5 c 128,-1,2
 209 413 209 413 197 413 c 2,3,-1
 178 413 l 1,4,-1
 178 380 l 2,5,6
 178 347 178 347 183 344 c 128,-1,7
 188 341 188 341 188 277 c 128,-1,8
 188 213 188 213 193 210 c 128,-1,9
 198 207 198 207 198 165 c 2,10,-1
 198 125 l 1,11,-1
 157 125 l 1,12,-1
 157 147 l 2,13,14
 157 171 157 171 152 174 c 128,-1,15
 147 177 147 177 147 240 c 128,-1,16
 147 303 147 303 142 308 c 0,17,18
 138 312 138 312 136 359 c 2,19,-1
 134 404 l 1,20,-1
 120 390 l 2,21,22
 106 376 106 376 106 363 c 0,23,24
 106 356 106 356 104.5 354 c 128,-1,25
 103 352 103 352 96 352 c 0,26,27
 88 352 88 352 81 353 c 2,28,-1
 57 354 l 1,29,-1
 55 376 l 2,30,31
 52 420 52 420 106 445 c 2,32,-1
 129 457 l 1,33,-1
 127 548 l 1,34,-1
 126 640 l 1,35,-1
 168 640 l 1,36,-1
 168 573 l 2,37,38
 168 465 168 465 189 465 c 0,39,40
 198 465 198 465 201 470 c 128,-1,41
 204 475 204 475 238 475 c 2,42,-1
 271 475 l 1,43,-1
 271 455 l 2,44,45
 271 441 271 441 269 437.5 c 128,-1,46
 267 434 267 434 257 434 c 0,0,1
EndSplineSet
Validated: 33
EndChar

StartChar: u
Encoding: 117 117 59
Width: 312
GlyphClass: 1
Flags: W
LayerCount: 2
Fore
SplineSet
219 362 m 2,0,-1
 219 403 l 1,1,-1
 260 403 l 1,2,-1
 260 343 l 2,3,4
 260 300 260 300 247 226 c 0,5,6
 243 207 243 207 220 181 c 0,7,8
 203 162 203 162 196 159 c 128,-1,9
 189 156 189 156 165 156 c 0,10,11
 134 156 134 156 117.5 164 c 128,-1,12
 101 172 101 172 86 195 c 0,13,14
 65 228 65 228 59.5 245.5 c 128,-1,15
 54 263 54 263 54 293 c 2,16,-1
 54 331 l 1,17,-1
 75 331 l 2,18,19
 90 331 90 331 92.5 328.5 c 128,-1,20
 95 326 95 326 95 311 c 0,21,22
 95 288 95 288 116 250 c 128,-1,23
 137 212 137 212 153 206 c 0,24,25
 154 206 154 206 155 205.5 c 128,-1,26
 156 205 156 205 157 205 c 0,27,28
 168 205 168 205 183.5 221 c 128,-1,29
 199 237 199 237 203 254 c 0,30,31
 219 319 219 319 219 362 c 2,0,-1
EndSplineSet
Validated: 1
EndChar

StartChar: v
Encoding: 118 118 60
Width: 368
GlyphClass: 1
Flags: W
LayerCount: 2
Fore
SplineSet
271 353 m 2,0,-1
 274 403 l 1,1,-1
 315 403 l 1,2,-1
 313 335 l 2,3,4
 311 263 311 263 307 251 c 0,5,6
 303 234 303 234 292.5 210.5 c 128,-1,7
 282 187 282 187 278 187 c 0,8,9
 275 187 275 187 271 176 c 0,10,11
 268 166 268 166 256 166 c 0,12,13
 243 166 243 166 240 161 c 128,-1,14
 237 156 237 156 213 156 c 2,15,-1
 191 156 l 1,16,-1
 191 176 l 2,17,18
 191 195 191 195 178 216 c 0,19,20
 144 267 144 267 125 282.5 c 128,-1,21
 106 298 106 298 78 299 c 2,22,-1
 56 300 l 1,23,-1
 58 325 l 1,24,-1
 59 349 l 1,25,-1
 82 351 l 1,26,-1
 89 351 l 2,27,28
 105 351 105 351 115 347 c 0,29,30
 118 346 118 346 129 341.5 c 128,-1,31
 140 337 140 337 145 334 c 0,32,33
 152 331 152 331 158 326.5 c 128,-1,34
 164 322 164 322 171 314.5 c 128,-1,35
 178 307 178 307 180.5 304.5 c 128,-1,36
 183 302 183 302 191.5 290.5 c 128,-1,37
 200 279 200 279 201 278 c 0,38,39
 208 270 208 270 225 242 c 0,40,41
 232 227 232 227 238 227 c 0,42,43
 242 227 242 227 242 237 c 0,44,45
 242 242 242 242 252 254 c 0,46,47
 267 270 267 270 271 353 c 2,0,-1
EndSplineSet
Validated: 1
EndChar

StartChar: w
Encoding: 119 119 61
Width: 492
GlyphClass: 1
Flags: W
LayerCount: 2
Fore
SplineSet
333 358 m 0,0,1
 333 364 333 364 343.5 380 c 128,-1,2
 354 396 354 396 354 401 c 0,3,4
 354 410 354 410 378 451 c 0,5,6
 380 455 380 455 409 455 c 2,7,-1
 436 455 l 1,8,-1
 436 434 l 2,9,10
 436 413 436 413 427 413 c 0,11,12
 420 413 420 413 407.5 393.5 c 128,-1,13
 395 374 395 374 395 364 c 0,14,15
 395 357 395 357 385 345 c 128,-1,16
 375 333 375 333 375 322 c 0,17,18
 375 315 375 315 369.5 308 c 128,-1,19
 364 301 364 301 364 295 c 0,20,21
 364 288 364 288 354 268 c 128,-1,22
 344 248 344 248 344 242 c 0,23,24
 344 232 344 232 330 214 c 0,25,26
 321 203 321 203 315 200 c 128,-1,27
 309 197 309 197 295 197 c 0,28,29
 276 197 276 197 268.5 203 c 128,-1,30
 261 209 261 209 261 225 c 128,-1,31
 261 241 261 241 255 247 c 0,32,33
 251 251 251 251 248 248.5 c 128,-1,34
 245 246 245 246 240 235 c 0,35,36
 230 215 230 215 230 204 c 0,37,38
 230 196 230 196 225 189.5 c 128,-1,39
 220 183 220 183 220 176 c 0,40,41
 220 166 220 166 199 166 c 0,42,43
 185 166 185 166 182 168 c 128,-1,44
 179 170 179 170 179 178 c 128,-1,45
 179 186 179 186 173.5 194 c 128,-1,46
 168 202 168 202 168 210 c 128,-1,47
 168 218 168 218 163 225.5 c 128,-1,48
 158 233 158 233 158 242 c 0,49,50
 158 261 158 261 117 316.5 c 128,-1,51
 76 372 76 372 62 372 c 0,52,53
 55 372 55 372 55 393 c 2,54,-1
 55 413 l 1,55,-1
 81 413 l 2,56,57
 98 413 98 413 105 410 c 128,-1,58
 112 407 112 407 125 394 c 0,59,60
 139 379 139 379 168 337 c 128,-1,61
 197 295 197 295 200 285 c 1,62,-1
 201 284 l 2,63,64
 205 284 205 284 212.5 308 c 128,-1,65
 220 332 220 332 220 345 c 128,-1,66
 220 358 220 358 229 371 c 0,67,68
 237 382 237 382 250 382 c 0,69,70
 251 382 251 382 254 381.5 c 128,-1,71
 257 381 257 381 259 381 c 0,72,73
 269 380 269 380 272.5 378.5 c 128,-1,74
 276 377 276 377 278 374 c 128,-1,75
 280 371 280 371 281 364 c 0,76,77
 282 355 282 355 287 342.5 c 128,-1,78
 292 330 292 330 292 313 c 0,79,80
 292 287 292 287 296 283 c 1,81,-1
 297 283 l 2,82,83
 301 283 301 283 312 303 c 128,-1,84
 323 323 323 323 323 331 c 0,85,86
 323 338 323 338 328 344.5 c 128,-1,87
 333 351 333 351 333 358 c 0,0,1
EndSplineSet
Validated: 1
EndChar

StartChar: x
Encoding: 120 120 62
Width: 324
GlyphClass: 1
Flags: W
LayerCount: 2
Fore
SplineSet
221 407 m 0,0,1
 228 418 228 418 233 421 c 128,-1,2
 238 424 238 424 251 424 c 0,3,4
 266 424 266 424 268.5 421.5 c 128,-1,5
 271 419 271 419 271 407 c 0,6,7
 271 390 271 390 254.5 356.5 c 128,-1,8
 238 323 238 323 221 305 c 2,9,-1
 204 287 l 1,10,-1
 218 261 l 2,11,12
 225 246 225 246 242 223 c 0,13,14
 251 210 251 210 251 202 c 0,15,16
 251 192 251 192 261 184 c 0,17,18
 271 175 271 175 271 144 c 2,19,-1
 271 114 l 1,20,-1
 251 114 l 2,21,22
 238 114 238 114 234 116 c 128,-1,23
 230 118 230 118 230 126 c 0,24,25
 230 140 230 140 220 148 c 128,-1,26
 210 156 210 156 210 166 c 0,27,28
 210 174 210 174 197 191 c 0,29,30
 185 206 185 206 179 223 c 0,31,32
 172 238 172 238 169 238 c 0,33,34
 160 238 160 238 133.5 199 c 128,-1,35
 107 160 107 160 107 148 c 0,36,37
 107 147 107 147 100 128 c 0,38,39
 92 114 92 114 75 114 c 2,40,-1
 55 114 l 1,41,-1
 55 140 l 2,42,43
 55 166 55 166 60 169 c 128,-1,44
 65 172 65 172 65 181 c 0,45,46
 65 192 65 192 81 219 c 128,-1,47
 97 246 97 246 116 265 c 2,48,-1
 140 290 l 1,49,-1
 124 306 l 2,50,51
 104 328 104 328 90 353.5 c 128,-1,52
 76 379 76 379 76 394 c 0,53,54
 76 408 76 408 78.5 410.5 c 128,-1,55
 81 413 81 413 96 413 c 0,56,57
 110 413 110 413 115.5 408.5 c 128,-1,58
 121 404 121 404 136 381 c 0,59,60
 163 338 163 338 173 338 c 0,61,62
 178 338 178 338 186 346 c 0,63,64
 194 352 194 352 199.5 362 c 128,-1,65
 205 372 205 372 211.5 386.5 c 128,-1,66
 218 401 218 401 221 407 c 0,0,1
EndSplineSet
Validated: 1
EndChar

StartChar: y
Encoding: 121 121 63
Width: 347
GlyphClass: 1
Flags: W
LayerCount: 2
Fore
SplineSet
190 265 m 0,0,1
 190 270 190 270 205.5 303 c 128,-1,2
 221 336 221 336 221 341 c 0,3,4
 221 350 221 350 226 355 c 0,5,6
 233 362 233 362 242.5 381 c 128,-1,7
 252 400 252 400 252 406 c 0,8,9
 252 413 252 413 272 413 c 2,10,-1
 293 413 l 1,11,-1
 293 388 l 2,12,13
 293 347 293 347 267 319 c 0,14,15
 262 314 262 314 262 305 c 0,16,17
 262 292 262 292 247 265 c 0,18,19
 231 233 231 233 231 227 c 128,-1,20
 231 221 231 221 226 214.5 c 128,-1,21
 221 208 221 208 221 201 c 0,22,23
 221 188 221 188 211 173 c 0,24,25
 203 161 203 161 192 102 c 0,26,27
 188 83 188 83 184 80 c 128,-1,28
 180 77 180 77 180 65 c 128,-1,29
 180 53 180 53 175 50 c 0,30,31
 169 46 169 46 169 6 c 0,32,33
 169 -35 169 -35 164 -38 c 128,-1,34
 159 -41 159 -41 159 -72 c 2,35,-1
 159 -102 l 1,36,-1
 118 -102 l 1,37,-1
 118 -54 l 2,38,39
 118 -5 118 -5 123 -2 c 128,-1,40
 128 1 128 1 128 42 c 128,-1,41
 128 83 128 83 133 86 c 128,-1,42
 138 89 138 89 138 102 c 0,43,44
 138 113 138 113 143 116 c 0,45,46
 146 118 146 118 149 128 c 128,-1,47
 152 138 152 138 154 150 c 128,-1,48
 156 162 156 162 157 165 c 0,49,50
 159 172 159 172 157.5 174 c 128,-1,51
 156 176 156 176 146 176 c 0,52,53
 135 177 135 177 127 189.5 c 128,-1,54
 119 202 119 202 93 259 c 0,55,56
 86 274 86 274 75.5 290.5 c 128,-1,57
 65 307 65 307 61 309 c 0,58,59
 56 311 56 311 56 331 c 2,60,-1
 56 352 l 1,61,-1
 80 351 l 2,62,63
 96 350 96 350 102 346 c 128,-1,64
 108 342 108 342 116 328 c 0,65,66
 128 309 128 309 134 295 c 0,67,68
 135 292 135 292 143.5 274.5 c 128,-1,69
 152 257 152 257 157 246 c 0,70,71
 171 217 171 217 173 217 c 128,-1,72
 175 217 175 217 177 226 c 0,73,74
 181 243 181 243 185 249 c 0,75,76
 190 257 190 257 190 265 c 0,0,1
EndSplineSet
Validated: 1
EndChar

StartChar: z
Encoding: 122 122 64
Width: 345
GlyphClass: 1
Flags: W
LayerCount: 2
Fore
SplineSet
97 439 m 0,0,1
 102 439 102 439 126 449.5 c 128,-1,2
 150 460 150 460 154 460 c 0,3,4
 162 460 162 460 165 465 c 128,-1,5
 168 470 168 470 212 470 c 0,6,7
 253 470 253 470 267 463 c 128,-1,8
 281 456 281 456 281 435 c 0,9,10
 281 417 281 417 246 376 c 0,11,12
 178 300 178 300 178 286 c 0,13,14
 178 278 178 278 161 259 c 2,15,-1
 152 247 l 1,16,17
 161 254 161 254 225 254 c 2,18,-1
 291 254 l 1,19,-1
 291 212 l 1,20,-1
 243 212 l 2,21,22
 194 212 194 212 191 207 c 0,23,24
 188 201 188 201 137 201 c 0,25,26
 77 201 77 201 70 208 c 0,27,28
 64 214 64 214 64 236 c 0,29,30
 64 254 64 254 69 254 c 0,31,32
 76 254 76 254 106 284 c 128,-1,33
 136 314 136 314 136 321 c 0,34,35
 136 333 136 333 175 378.5 c 128,-1,36
 214 424 214 424 214 428 c 0,37,38
 214 429 214 429 212 429 c 0,39,40
 206 429 206 429 200.5 424 c 128,-1,41
 195 419 195 419 190 419 c 0,42,43
 186 419 186 419 161 408.5 c 128,-1,44
 136 398 136 398 132 398 c 0,45,46
 123 398 123 398 111 388 c 0,47,48
 96 377 96 377 76 377 c 2,49,-1
 54 377 l 1,50,-1
 54 397 l 2,51,52
 54 416 54 416 72 428 c 0,53,54
 90 439 90 439 97 439 c 0,0,1
EndSplineSet
Validated: 1
EndChar

StartChar: numbersign
Encoding: 35 35 66
Width: 1000
LayerCount: 2
Fore
SplineSet
650.136133366 738.319725949 m 2,0,1
 652.779239604 749.958334446 652.779239604 749.958334446 662.171386705 757.55506734 c 128,-1,2
 671.563533805 765.151800233 671.563533805 765.151800233 683.744194027 765.151800233 c 0,3,4
 698.013165 765.151800233 698.013165 765.151800233 708.114390293 755.05057494 c 128,-1,5
 718.215615586 744.949349647 718.215615586 744.949349647 718.215615586 730.680378674 c 0,6,7
 718.215615586 726.77468272 718.215615586 726.77468272 717.355339059 723 c 2,8,-1
 566.863866634 62.6802740513 l 2,9,10
 564.217465084 51.068512149 564.217465084 51.068512149 554.82340847 43.478871658 c 128,-1,11
 545.429351856 35.8892311669 545.429351856 35.8892311669 533.252721602 35.8892311669 c 0,12,13
 518.98375063 35.8892311669 518.98375063 35.8892311669 508.882525336 45.9904564602 c 128,-1,14
 498.781300043 56.0916817535 498.781300043 56.0916817535 498.781300043 70.3606527258 c 0,15,16
 498.781300043 74.2950099799 498.781300043 74.2950099799 499.644660941 78 c 2,17,-1
 650.136133366 738.319725949 l 2,0,1
389.977669781 705.616706633 m 0,18,19
 391.761261524 718.524071728 391.761261524 718.524071728 401.619777819 727.194320476 c 128,-1,20
 411.478294114 735.864569224 411.478294114 735.864569224 424.667777596 735.864569224 c 0,21,22
 439.164032571 735.864569224 439.164032571 735.864569224 449.426155725 725.60244607 c 128,-1,23
 459.68827888 715.340322915 459.68827888 715.340322915 459.68827888 700.84406794 c 0,24,25
 459.68827888 698.401922995 459.68827888 698.401922995 374.022330219 80.3832933673 c 0,26,27
 372.239803913 67.5236392999 372.239803913 67.5236392999 362.37904539 58.865249661 c 128,-1,28
 352.518286867 50.206860022 352.518286867 50.206860022 339.334768755 50.206860022 c 0,29,30
 324.83851378 50.206860022 324.83851378 50.206860022 314.576390625 60.468983177 c 128,-1,31
 304.314267471 70.7311063319 304.314267471 70.7311063319 304.314267471 85.2273613069 c 0,32,33
 304.314267471 87.6164471083 304.314267471 87.6164471083 389.977669781 705.616706633 c 0,18,19
178.621565558 149.598368108 m 0,34,35
 164.432140399 149.598368108 164.432140399 149.598368108 154.387226817 159.64328169 c 128,-1,36
 144.342313235 169.688195272 144.342313235 169.688195272 144.342313235 183.877620432 c 0,37,38
 144.342313235 195.772611408 144.342313235 195.772611408 151.646870684 205.022488887 c 128,-1,39
 158.951428134 214.272366366 158.951428134 214.272366366 170.214182971 217.116496375 c 2,40,-1
 781 371.355339059 l 1,41,42
 850.088226369 383.916834763 850.088226369 383.916834763 853.25278268 383.916834763 c 0,43,44
 867.651577597 383.916834763 867.651577597 383.916834763 877.844707269 373.72370509 c 128,-1,45
 888.037836941 363.530575418 888.037836941 363.530575418 888.037836941 349.131780501 c 0,46,47
 888.037836941 336.428181165 888.037836941 336.428181165 879.892605281 326.786182291 c 128,-1,48
 871.747373621 317.144183417 871.747373621 317.144183417 859.445284118 314.907439871 c 2,49,-1
 781 300.644660941 l 1,50,-1
 187 150.644660941 l 2,51,52
 182.936644788 149.598368108 182.936644788 149.598368108 178.621565558 149.598368108 c 0,34,35
183.780973347 453.079030315 m 0,53,54
 169.384286704 453.079030315 169.384286704 453.079030315 159.192649511 463.270667507 c 128,-1,55
 149.001012318 473.4623047 149.001012318 473.4623047 149.001012318 487.858991343 c 0,56,57
 149.001012318 500.549989834 149.001012318 500.549989834 157.126570401 510.192584856 c 128,-1,58
 165.252128483 519.835179878 165.252128483 519.835179878 177.501754599 522.072554511 c 2,59,-1
 847 644.355339059 l 2,60,61
 850.101028288 644.92173692 850.101028288 644.92173692 853.279218748 644.92173692 c 0,62,63
 867.675905391 644.92173692 867.675905391 644.92173692 877.867542584 634.730099727 c 128,-1,64
 888.059179777 624.538462535 888.059179777 624.538462535 888.059179777 610.141775891 c 0,65,66
 888.059179777 597.447578662 888.059179777 597.447578662 879.923948317 587.80992956 c 128,-1,67
 871.788716857 578.172280458 871.788716857 578.172280458 859.498447215 575.92748235 c 2,68,-1
 190 453.644660941 l 2,69,70
 186.988474813 453.079030315 186.988474813 453.079030315 183.780973347 453.079030315 c 0,53,54
EndSplineSet
Validated: 526341
EndChar

StartChar: less
Encoding: 60 60 67
Width: 1000
LayerCount: 2
Fore
SplineSet
558.355339059 645 m 2,0,1
 572.022379355 673.069139004 572.022379355 673.069139004 576.355339059 687 c 1,2,-1
 541 722.355339059 l 1,3,-1
 505.644660941 687 l 1,4,5
 478.11972845 636.055598135 478.11972845 636.055598135 424.980851217 582.916720902 c 1,6,-1
 460.336190276 618.272059961 l 1,7,8
 435.878367861 593.814237546 435.878367861 593.814237546 382.416602593 547.150851479 c 128,-1,9
 328.954837324 500.487465413 328.954837324 500.487465413 304.620678362 476.153306451 c 0,10,11
 252.377919882 423.910547971 252.377919882 423.910547971 238.644660941 408 c 1,12,-1
 274 443.355339059 l 1,13,14
 266.001318794 437.304368285 266.001318794 437.304368285 224.520293904 395.823343395 c 0,15,16
 204.331073662 375.634123153 204.331073662 375.634123153 204.331073662 354.367871774 c 0,17,18
 204.331073662 329.876807687 204.331073662 329.876807687 231.375953491 302.831927858 c 2,19,-1
 266.73129255 267.476588798 l 2,20,21
 296.099738216 238.108143133 296.099738216 238.108143133 362.490746321 201.803508237 c 128,-1,22
 428.881754426 165.49887334 428.881754426 165.49887334 493.648756927 130.818244049 c 128,-1,23
 558.415759428 96.1376147569 558.415759428 96.1376147569 583.840191482 70.7131827027 c 1,24,-1
 548.484852422 106.068521762 l 1,25,26
 555.190561304 99.3628128805 555.190561304 99.3628128805 559.644660941 93 c 0,27,28
 582.867232736 59.8349226654 582.867232736 59.8349226654 582.899423485 59.7798848889 c 0,29,30
 591.538630549 47.4535724206 591.538630549 47.4535724206 606.611254276 47.4535724206 c 0,31,32
 618.600480217 47.4535724206 618.600480217 47.4535724206 627.087838735 55.9409309385 c 128,-1,33
 635.575197253 64.4282894563 635.575197253 64.4282894563 635.575197253 76.4175153973 c 0,34,35
 635.575197253 89.6888550505 635.575197253 89.6888550505 619.195530541 106.068521762 c 2,36,-1
 583.840191482 141.423860821 l 2,37,38
 558.416036001 166.848016302 558.416036001 166.848016302 493.648895214 201.528783881 c 128,-1,39
 428.881754426 236.209551459 428.881754426 236.209551459 362.490608035 272.514324642 c 128,-1,40
 296.099461643 308.819097825 296.099461643 308.819097825 266.73129255 338.187266917 c 1,41,-1
 302.08663161 302.831927858 l 1,42,43
 275.041751781 329.876807687 275.041751781 329.876807687 275.041751781 354.367871774 c 0,44,45
 275.041751781 375.634123153 275.041751781 375.634123153 295.230972023 395.823343395 c 1,46,-1
 259.875632963 360.468004336 l 1,47,48
 266.001318794 366.593690167 266.001318794 366.593690167 274 372.644660941 c 2,49,-1
 309.355339059 408 l 2,50,51
 323.088598001 423.910547971 323.088598001 423.910547971 339.976017421 440.797967392 c 1,52,-1
 304.620678362 405.442628332 l 1,53,54
 328.954920394 429.776870365 328.954920394 429.776870365 382.416602593 476.440173361 c 128,-1,55
 435.878284791 523.103476357 435.878284791 523.103476357 460.336190276 547.561381842 c 2,56,-1
 495.691529336 582.916720902 l 2,57,58
 548.830406569 636.055598135 548.830406569 636.055598135 576.355339059 687 c 1,59,-1
 505.644660941 687 l 1,60,61
 501.480112458 673.610596456 501.480112458 673.610596456 492.967496974 656.267555119 c 128,-1,62
 484.45488149 638.924513782 484.45488149 638.924513782 484.45488149 631.114163788 c 0,63,64
 484.45488149 617.956161052 484.45488149 617.956161052 493.769635182 608.641407359 c 128,-1,65
 503.084388874 599.326653667 503.084388874 599.326653667 516.24239161 599.326653667 c 0,66,67
 536.123684678 599.326653667 536.123684678 599.326653667 544.84012228 617.228327575 c 2,68,-1
 558.355339059 645 l 2,0,1
EndSplineSet
Validated: 524325
EndChar

StartChar: equal
Encoding: 61 61 68
Width: 1000
LayerCount: 2
Fore
SplineSet
328.32525617 312.656628693 m 0,0,1
 326.795028069 312.656628693 326.795028069 312.656628693 324.841953205 312.644311155 c 0,2,3
 310.11518324 312.643757286 310.11518324 312.643757286 299.755211779 323.003728748 c 128,-1,4
 289.395240317 333.36370021 289.395240317 333.36370021 289.395240317 347.998175511 c 128,-1,5
 289.395240317 362.562495763 289.395240317 362.562495763 299.667464523 372.904568501 c 128,-1,6
 309.93968873 383.246641239 309.93968873 383.246641239 324.489672154 383.351655767 c 2,7,-1
 325 383.351655767 l 2,8,9
 327.168485129 383.367306812 327.168485129 383.367306812 328.32525617 383.367306812 c 0,10,11
 387.213246242 383.367306812 387.213246242 383.367306812 503.111876723 360.841574665 c 128,-1,12
 619.010507204 338.315842518 619.010507204 338.315842518 678.902862029 338.315842518 c 0,13,14
 681.948614401 338.315842518 681.948614401 338.315842518 685 338.355339059 c 0,15,16
 689.112411029 337.919926168 689.112411029 337.919926168 693.476913785 337.919926168 c 0,17,18
 712.07379401 337.919926168 712.07379401 337.919926168 742 347.355339059 c 1,19,-1
 754 359.355339059 l 2,20,21
 761.325796875 366.681135934 761.325796875 366.681135934 771.674203125 366.681135934 c 128,-1,22
 782.022609375 366.681135934 782.022609375 366.681135934 789.34840625 359.355339059 c 128,-1,23
 796.674203125 352.029542184 796.674203125 352.029542184 796.674203125 341.681135934 c 128,-1,24
 796.674203125 331.341321273 796.674203125 331.341321273 789.355336002 324.000001019 c 0,25,26
 754 288.644660941 754 288.644660941 754 288.644660941 c 1,27,-1
 742 276.644660941 l 1,28,29
 712.07379401 267.209248049 712.07379401 267.209248049 693.476913785 267.209248049 c 0,30,31
 689.112411029 267.209248049 689.112411029 267.209248049 685 267.644660941 c 0,32,33
 681.948586092 267.60494311 681.948586092 267.60494311 678.902862029 267.6051644 c 0,34,35
 619.010507204 267.6051644 619.010507204 267.6051644 503.111876723 290.130896547 c 128,-1,36
 387.213246242 312.656628693 387.213246242 312.656628693 328.32525617 312.656628693 c 0,0,1
604.208745099 523.763730198 m 0,37,38
 554.608859499 523.763730198 554.608859499 523.763730198 459.082808596 548.114001418 c 128,-1,39
 363.556757692 572.464272638 363.556757692 572.464272638 314.932461569 572.464272638 c 0,40,41
 310.936774584 572.464272638 310.936774584 572.464272638 307 572.355339059 c 2,42,-1
 307 501.644660941 l 1,43,44
 310.772050595 504.392384493 310.772050595 504.392384493 322.888197114 508.057165363 c 128,-1,45
 335.004343633 511.721946233 335.004343633 511.721946233 340 516.644660941 c 2,46,-1
 375.351514934 551.480007831 l 2,47,48
 382.863404726 558.882216398 382.863404726 558.882216398 382.863404726 569.415155967 c 128,-1,49
 382.863404726 579.839384551 382.863404726 579.839384551 375.483932048 587.21885723 c 128,-1,50
 368.10445937 594.598329908 368.10445937 594.598329908 357.680230785 594.598329908 c 128,-1,51
 347.364369084 594.598329908 347.364369084 594.598329908 340.008946637 587.350304104 c 0,52,53
 335.004698197 582.432973739 335.004698197 582.432973739 322.88806293 578.76779129 c 128,-1,54
 310.771427663 575.102608841 310.771427663 575.102608841 307 572.355339059 c 2,55,-1
 271.644660941 537 l 1,56,-1
 307 501.644660941 l 2,57,58
 310.936774584 501.753594519 310.936774584 501.753594519 314.932461569 501.753594519 c 0,59,60
 363.556757692 501.753594519 363.556757692 501.753594519 459.082808596 477.403323299 c 128,-1,61
 554.608859499 453.053052079 554.608859499 453.053052079 604.208745099 453.053052079 c 0,62,63
 627.346881448 453.053052079 627.346881448 453.053052079 649 456.644660941 c 2,64,-1
 724.997148713 471.120308315 l 2,65,66
 737.175002667 473.431832466 737.175002667 473.431832466 745.216569549 483.031073739 c 128,-1,67
 753.258136432 492.630315012 753.258136432 492.630315012 753.258136432 505.237944642 c 0,68,69
 753.258136432 519.614328565 753.258136432 519.614328565 743.080871849 529.791593147 c 128,-1,70
 732.903607267 539.968857729 732.903607267 539.968857729 718.527223345 539.968857729 c 0,71,72
 715.220973018 539.968857729 715.220973018 539.968857729 649 527.355339059 c 0,73,74
 627.346881448 523.763730198 627.346881448 523.763730198 604.208745099 523.763730198 c 0,37,38
EndSplineSet
Validated: 524293
EndChar

StartChar: greater
Encoding: 62 62 69
Width: 1000
LayerCount: 2
Fore
SplineSet
844.546592877 462.63008765 m 0,0,1
 857.133369291 462.63008765 857.133369291 462.63008765 866.043743033 453.719713909 c 128,-1,2
 874.954116775 444.809340167 874.954116775 444.809340167 874.954116775 432.222563753 c 0,3,4
 874.954116775 414.905577671 874.954116775 414.905577671 860.027953743 406.051074178 c 2,5,-1
 298 72.6446609407 l 2,6,7
 290.859256428 68.4086266184 290.859256428 68.4086266184 282.518639134 68.4086266184 c 0,8,9
 269.931862721 68.4086266184 269.931862721 68.4086266184 261.021488979 77.3190003601 c 128,-1,10
 252.111115237 86.2293741019 252.111115237 86.2293741019 252.111115237 98.8161505157 c 0,11,12
 252.111115237 116.133119285 252.111115237 116.133119285 266.972046257 124.948925822 c 2,13,-1
 829 458.355339059 l 2,14,15
 836.205959061 462.63008765 836.205959061 462.63008765 844.546592877 462.63008765 c 0,0,1
214.525068512 699.976849669 m 0,16,17
 214.525068512 713.761792686 214.525068512 713.761792686 224.283642928 723.520367103 c 128,-1,18
 234.042217345 733.278941519 234.042217345 733.278941519 247.827160362 733.278941519 c 0,19,20
 253.604614962 733.278941519 253.604614962 733.278941519 259 731.355339059 c 0,21,22
 508.383219266 642.443394749 508.383219266 642.443394749 712 488.355339059 c 1,23,-1
 730 488.355339059 l 1,24,-1
 837.604318204 459.660854205 l 2,25,26
 848.666530377 456.710930959 848.666530377 456.710930959 855.809679596 447.546407281 c 128,-1,27
 862.952828816 438.381883604 862.952828816 438.381883604 862.952828816 426.648893003 c 0,28,29
 862.952828816 412.508183348 862.952828816 412.508183348 852.942401693 402.497756225 c 128,-1,30
 842.93197457 392.487329102 842.93197457 392.487329102 828.791264915 392.487329102 c 0,31,32
 824.262431349 392.487329102 824.262431349 392.487329102 820 393.644660941 c 2,33,-1
 730 417.644660941 l 1,34,-1
 712 417.644660941 l 1,35,36
 508.383219266 571.73271663 508.383219266 571.73271663 259 660.644660941 c 0,37,38
 236.6542786 668.598401075 236.6542786 668.598401075 236.632837226 668.619166751 c 0,39,40
 214.525068512 676.478607802 214.525068512 676.478607802 214.525068512 699.976849669 c 0,16,17
EndSplineSet
Validated: 524293
EndChar

StartChar: dollar
Encoding: 36 36 70
Width: 1000
LayerCount: 2
Fore
SplineSet
551.820258308 748.683815779 m 0,0,1
 551.820258308 748.706331414 551.820258308 748.706331414 551.835173963 752.24452555 c 128,-1,2
 551.850089619 755.782719685 551.850089619 755.782719685 551.850089619 755.88621535 c 0,3,4
 551.850089619 776.52565178 551.850089619 776.52565178 545.598622391 782.777119008 c 2,5,-1
 510.243283332 818.132458068 l 2,6,7
 505.270200336 823.105541064 505.270200336 823.105541064 494.293649674 823.105541064 c 0,8,9
 480.427346519 823.105541064 480.427346519 823.105541064 470.611176003 813.289370547 c 128,-1,10
 460.795005487 803.473200031 460.795005487 803.473200031 460.795005487 789.606896877 c 0,11,12
 460.795005487 765.551452516 460.795005487 765.551452516 483.587299348 757.858454694 c 2,13,-1
 505 750.644660941 l 2,14,15
 508.04978482 749.615278461 508.04978482 749.615278461 510.243283332 747.421779949 c 1,16,-1
 474.887944272 782.777119008 l 1,17,18
 481.1394115 776.52565178 481.1394115 776.52565178 481.1394115 755.88621535 c 0,19,20
 481.1394115 755.782719685 481.1394115 755.782719685 481.124495845 752.24452555 c 128,-1,21
 481.109580189 748.706331414 481.109580189 748.706331414 481.109580189 748.683815779 c 0,22,23
 481.109580189 741.667204033 481.109580189 741.667204033 481.644660941 738 c 0,24,25
 473.812299607 636.413635311 473.812299607 636.413635311 434.735549635 456.620999091 c 128,-1,26
 395.658799663 276.828362871 395.658799663 276.828362871 385.644660941 207 c 0,27,28
 380.735863084 190.763904627 380.735863084 190.763904627 380.735863084 174.26751849 c 0,29,30
 380.735863084 143.683421136 380.735863084 143.683421136 405.054486282 90.5181453395 c 128,-1,31
 429.373109481 37.3528695426 429.373109481 37.3528695426 430.644660941 9 c 1,32,-1
 418.644660941 -21 l 1,33,-1
 489.355339059 -21 l 1,34,-1
 486.355339059 -6 l 1,35,-1
 483.635697593 7.59820733051 l 2,36,37
 481.235882002 19.6395574182 481.235882002 19.6395574182 471.687853235 27.567087361 c 128,-1,38
 462.139824467 35.4946173037 462.139824467 35.4946173037 449.64041912 35.4946173037 c 0,39,40
 435.289761677 35.4946173037 435.289761677 35.4946173037 425.130709266 25.3355648936 c 128,-1,41
 414.971656856 15.1765124834 414.971656856 15.1765124834 414.971656856 0.825855039672 c 0,42,43
 414.971656856 -2.63497957771 414.971656856 -2.63497957771 418.644660941 -21 c 1,44,-1
 454 -56.3553390593 l 1,45,-1
 489.355339059 -21 l 1,46,-1
 501.355339059 9 l 1,47,48
 500.083684655 37.3551649787 500.083684655 37.3551649787 475.765112929 90.5182871613 c 128,-1,49
 451.446541202 143.681409344 451.446541202 143.681409344 451.446541202 174.26751849 c 0,50,51
 451.446541202 190.763904627 451.446541202 190.763904627 456.355339059 207 c 0,52,53
 466.157785764 275.352239225 466.157785764 275.352239225 505.36559032 456.209894549 c 128,-1,54
 544.573394877 637.067549872 544.573394877 637.067549872 552.355339059 738 c 0,55,56
 551.820258308 741.667204033 551.820258308 741.667204033 551.820258308 748.683815779 c 0,0,1
807.355339059 570 m 2,57,58
 807.476486034 575.474184033 807.476486034 575.474184033 811.928636459 585.826312159 c 128,-1,59
 816.380786885 596.178440285 816.380786885 596.178440285 816.380786885 601.94707535 c 0,60,61
 816.380786885 603.263344682 816.380786885 603.263344682 814.590611207 607.389020057 c 128,-1,62
 812.800435529 611.514695431 812.800435529 611.514695431 808.310713935 618.317133442 c 128,-1,63
 803.820992342 625.119571453 803.820992342 625.119571453 798.085618476 630.854945319 c 2,64,-1
 762.730279416 666.210284379 l 2,65,66
 726.40996231 702.530601485 726.40996231 702.530601485 636.986949594 702.530601485 c 0,67,68
 620.985554408 702.530601485 620.985554408 702.530601485 601 701.355339059 c 0,69,70
 510.879654332 682.325355811 510.879654332 682.325355811 444.92301367 657.569102668 c 128,-1,71
 378.966373009 632.812849525 378.966373009 632.812849525 333.355487155 587.201963671 c 2,72,-1
 298.000148095 551.846624611 l 2,73,74
 281.272622313 535.119098829 281.272622313 535.119098829 268.644660941 516 c 1,75,76
 273.055785002 510.225714039 273.055785002 510.225714039 313.629760931 469.65173811 c 0,77,78
 330.99922523 452.282273811 330.99922523 452.282273811 360.448598617 440.156017552 c 128,-1,79
 389.897972005 428.029761294 389.897972005 428.029761294 411.939146734 423.338020466 c 128,-1,80
 433.980321463 418.646279639 433.980321463 418.646279639 475.643343723 411.734758728 c 0,81,82
 517.752127006 404.749290071 517.752127006 404.749290071 540.112750258 399.977125436 c 128,-1,83
 562.47337351 395.2049608 562.47337351 395.2049608 592.518488127 382.775106103 c 128,-1,84
 622.563602744 370.345251406 622.563602744 370.345251406 640.408762084 352.500092066 c 1,85,-1
 605.053423025 387.855431126 l 1,86,87
 636.609370267 356.299483883 636.609370267 356.299483883 640.644660941 303 c 1,88,89
 621.360435218 266.858506038 621.360435218 266.858506038 590.331983657 235.830054477 c 1,90,-1
 625.687322716 271.185393536 l 1,91,92
 581.857969347 227.356040167 581.857969347 227.356040167 523.593368063 201.810386819 c 128,-1,93
 465.328766778 176.264733472 465.328766778 176.264733472 406.732885506 176.264733472 c 0,94,95
 403.362161649 176.264733472 403.362161649 176.264733472 400 176.355339059 c 0,96,97
 395.55506645 175.361034152 395.55506645 175.361034152 390.27799024 175.361034152 c 0,98,99
 364.886123683 175.361034152 364.886123683 175.361034152 328.502934256 195.294434985 c 128,-1,100
 292.11974483 215.227835817 292.11974483 215.227835817 268.982853818 238.364726829 c 1,101,-1
 304.338192878 203.00938777 l 1,102,103
 287.240964652 220.106615995 287.240964652 220.106615995 287.240964652 229.849453361 c 0,104,105
 287.240964652 231.500485634 287.240964652 231.500485634 290.101872025 237.384412754 c 128,-1,106
 292.962779399 243.268339875 292.962779399 243.268339875 292.962779399 249.958865114 c 0,107,108
 292.962779399 262.350434927 292.962779399 262.350434927 284.19059543 271.122618896 c 128,-1,109
 275.418411461 279.894802865 275.418411461 279.894802865 263.026841648 279.894802865 c 0,110,111
 246.483241359 279.894802865 246.483241359 279.894802865 237.660853143 265.854522029 c 2,112,-1
 217.644660941 234 l 2,113,114
 216.530286533 232.226542604 216.530286533 232.226542604 216.530286533 229.849453361 c 0,115,116
 216.530286533 220.106615995 216.530286533 220.106615995 233.627514759 203.00938777 c 2,117,-1
 268.982853818 167.65404871 l 2,118,119
 292.11974483 144.517157699 292.11974483 144.517157699 328.502934256 124.583756866 c 128,-1,120
 364.886123683 104.650356033 364.886123683 104.650356033 390.27799024 104.650356033 c 0,121,122
 395.55506645 104.650356033 395.55506645 104.650356033 400 105.644660941 c 0,123,124
 403.361842613 105.553865746 403.361842613 105.553865746 406.732885506 105.554055353 c 0,125,126
 465.328766778 105.554055353 465.328766778 105.554055353 523.593368063 131.099708701 c 128,-1,127
 581.857969347 156.645362049 581.857969347 156.645362049 625.687322716 200.474715418 c 2,128,-1
 661.042661775 235.830054477 l 2,129,130
 692.071113336 266.858506038 692.071113336 266.858506038 711.355339059 303 c 1,131,132
 707.320048386 356.299483883 707.320048386 356.299483883 675.764101143 387.855431126 c 2,133,-1
 640.408762084 423.210770185 l 2,134,135
 615.012449078 448.607083191 615.012449078 448.607083191 567.744698422 463.120559611 c 128,-1,136
 520.476947765 477.634036032 520.476947765 477.634036032 476.498256224 482.30759849 c 128,-1,137
 432.519564683 486.981160948 432.519564683 486.981160948 385.529046196 501.2174052 c 128,-1,138
 338.538527708 515.453649451 338.538527708 515.453649451 313.629760931 540.362416229 c 1,139,-1
 348.98509999 505.007077169 l 1,140,141
 343.766463121 510.225714039 343.766463121 510.225714039 339.355339059 516 c 1,142,143
 351.983300431 535.119098829 351.983300431 535.119098829 368.710826214 551.846624611 c 1,144,-1
 333.355487155 516.491285552 l 1,145,146
 378.966373009 562.102171406 378.966373009 562.102171406 444.92301367 586.85842455 c 128,-1,147
 510.879654332 611.614677693 510.879654332 611.614677693 601 630.644660941 c 0,148,149
 620.985554408 631.819923366 620.985554408 631.819923366 636.986949594 631.819923366 c 0,150,151
 726.40996231 631.819923366 726.40996231 631.819923366 762.730279416 595.49960626 c 1,152,-1
 727.374940357 630.854945319 l 1,153,154
 733.111775951 625.118109725 733.111775951 625.118109725 737.601643464 618.314796056 c 128,-1,155
 742.091510978 611.511482388 742.091510978 611.511482388 743.880809872 607.386878258 c 128,-1,156
 745.670108766 603.262274127 745.670108766 603.262274127 745.670108766 601.94707535 c 0,157,158
 745.670108766 596.142372227 745.670108766 596.142372227 741.152987165 585.711260842 c 128,-1,159
 736.635865563 575.280149458 736.635865563 575.280149458 736.635865563 569.204424016 c 0,160,161
 736.635865563 554.573150041 736.635865563 554.573150041 746.993570757 544.215444847 c 128,-1,162
 757.351275951 533.857739654 757.351275951 533.857739654 771.982549925 533.857739654 c 0,163,164
 786.401165035 533.857739654 786.401165035 533.857739654 796.701836427 543.951907541 c 128,-1,165
 807.002507819 554.046075428 807.002507819 554.046075428 807.320731842 568.43555536 c 0,166,167
 807.355339059 570 807.355339059 570 807.355339059 570 c 2,57,58
EndSplineSet
Validated: 524293
EndChar

StartChar: percent
Encoding: 37 37 71
Width: 1000
LayerCount: 2
Fore
SplineSet
614.054583693 269.349980904 m 0,0,1
 624.184779824 269.349980904 624.184779824 269.349980904 635.188302592 266.078518202 c 128,-1,2
 646.19182536 262.807055499 646.19182536 262.807055499 650.945169813 262.807055499 c 0,3,4
 664.770586733 262.807055499 664.770586733 262.807055499 674.557813251 272.594282017 c 128,-1,5
 684.345039769 282.381508534 684.345039769 282.381508534 684.345039769 296.206925454 c 0,6,7
 684.345039769 319.973747573 684.345039769 319.973747573 661.890339626 327.769189968 c 2,8,-1
 640 335.355339059 l 2,9,10
 626.446369109 340.060659023 626.446369109 340.060659023 614.054583693 340.060659023 c 0,11,12
 588.264023084 340.060659023 588.264023084 340.060659023 568.043138948 319.839774887 c 2,13,-1
 532.687799889 284.484435828 l 2,14,15
 504.250270601 256.04690654 504.250270601 256.04690654 490.644660941 195 c 0,16,17
 484.718949874 178.782093515 484.718949874 178.782093515 484.718949874 165.832781478 c 0,18,19
 484.718949874 147.584071441 484.718949874 147.584071441 496.496022482 135.806998833 c 2,20,-1
 531.851361541 100.451659773 l 2,21,22
 553.943614379 78.3594069353 553.943614379 78.3594069353 623.001043124 78.3594069353 c 0,23,24
 631.150636191 78.3594069353 631.150636191 78.3594069353 643 78.6446609407 c 0,25,26
 681.842263666 92.82872951 681.842263666 92.82872951 705.257333731 116.243799574 c 2,27,-1
 740.61267279 151.599138633 l 2,28,29
 765.453606413 176.440072257 765.453606413 176.440072257 765.453606413 206.273614283 c 0,30,31
 765.453606413 208.1293292 765.453606413 208.1293292 765.355339059 210 c 0,32,33
 765.372494799 210.804106471 765.372494799 210.804106471 765.372459767 211.598513033 c 0,34,35
 765.372459767 237.439489466 765.372459767 237.439489466 748.137985379 254.673963854 c 2,36,-1
 712.78264632 290.029302913 l 2,37,38
 690.939879512 311.872069721 690.939879512 311.872069721 654.508073239 311.872069721 c 0,39,40
 624.725222233 311.872069721 624.725222233 311.872069721 604 296.355339059 c 0,41,42
 570.123186295 270.983500928 570.123186295 270.983500928 570.075554332 270.956504713 c 0,43,44
 558.759558742 262.470007017 558.759558742 262.470007017 558.759558742 248.314107453 c 0,45,46
 558.759558742 236.598850096 558.759558742 236.598850096 567.052970661 228.305438177 c 128,-1,47
 575.34638258 220.012026258 575.34638258 220.012026258 587.061639937 220.012026258 c 0,48,49
 596.476662249 220.012026258 596.476662249 220.012026258 604 225.644660941 c 0,50,51
 624.725222233 241.161391602 624.725222233 241.161391602 654.508073239 241.161391602 c 0,52,53
 690.939879512 241.161391602 690.939879512 241.161391602 712.78264632 219.318624795 c 1,54,-1
 677.42730726 254.673963854 l 1,55,56
 694.661781648 237.439489466 694.661781648 237.439489466 694.661781648 211.598513033 c 0,57,58
 694.661781648 210.804106598 694.661781648 210.804106598 694.644660941 210 c 0,59,60
 694.742928295 208.1293292 694.742928295 208.1293292 694.742928295 206.273614283 c 0,61,62
 694.742928295 176.440072257 694.742928295 176.440072257 669.901994671 151.599138633 c 1,63,-1
 705.257333731 186.954477693 l 1,64,65
 681.842263666 163.539407629 681.842263666 163.539407629 643 149.355339059 c 0,66,67
 631.150636191 149.070085054 631.150636191 149.070085054 623.001043124 149.070085054 c 0,68,69
 553.943614379 149.070085054 553.943614379 149.070085054 531.851361541 171.162337892 c 1,70,-1
 567.2067006 135.806998833 l 1,71,72
 555.429627993 147.584071441 555.429627993 147.584071441 555.429627993 165.832781478 c 0,73,74
 555.429627993 178.782093515 555.429627993 178.782093515 561.355339059 195 c 0,75,76
 574.96094872 256.04690654 574.96094872 256.04690654 603.398478008 284.484435828 c 1,77,-1
 568.043138948 249.129096768 l 1,78,79
 588.264023084 269.349980904 588.264023084 269.349980904 614.054583693 269.349980904 c 0,0,1
289.104760875 179.591006207 m 0,80,81
 289.104760875 190.469009351 289.104760875 190.469009351 281.404054166 198.16971606 c 128,-1,82
 273.703347457 205.870422769 273.703347457 205.870422769 262.825344314 205.870422769 c 0,83,84
 251.128041433 205.870422769 251.128041433 205.870422769 243.288666066 197.160005694 c 2,85,-1
 184.644660941 132 l 1,86,-1
 220 96.6446609407 l 1,87,88
 230.564678449 106.982292897 230.564678449 106.982292897 276.608669069 153.026283516 c 0,89,90
 374.969994637 251.387609084 374.969994637 251.387609084 548.199561355 452.494617894 c 128,-1,91
 721.429128074 653.601626705 721.429128074 653.601626705 789.355339059 726 c 0,92,93
 796.3350281 733.439221552 796.3350281 733.439221552 796.3350281 743.633840507 c 0,94,95
 796.3350281 754.306632949 796.3350281 754.306632949 788.779593222 761.862067827 c 128,-1,96
 781.224158343 769.417502706 781.224158343 769.417502706 770.551365901 769.417502706 c 0,97,98
 759.393787028 769.417502706 759.393787028 769.417502706 751.747392744 761.267681014 c 2,99,-1
 718.644660941 726 l 2,100,101
 645.704174685 648.25721889 645.704174685 648.25721889 476.275155725 451.11582411 c 128,-1,102
 306.846136764 253.97442933 306.846136764 253.97442933 205.89799095 153.026283516 c 1,103,-1
 220 167.355339059 l 1,104,-1
 255.355339059 132 l 1,105,-1
 282.355339059 162 l 2,106,107
 289.104760875 169.52280192 289.104760875 169.52280192 289.104760875 179.591006207 c 0,80,81
102.237063217 528.91436497 m 0,108,109
 102.237063217 519.466997914 102.237063217 519.466997914 103.644660941 510 c 1,110,111
 109.841425757 502.524537682 109.841425757 502.524537682 115.241227506 492.844370312 c 128,-1,112
 120.641029255 483.164202941 120.641029255 483.164202941 123.23978403 480.565448167 c 2,113,-1
 158.595123089 445.210109108 l 2,114,115
 165.437335628 438.367896569 165.437335628 438.367896569 185.462380065 438.367896569 c 0,116,117
 190.131192875 438.367896569 190.131192875 438.367896569 196 438.644660941 c 0,118,119
 199.96367364 438.389159631 199.96367364 438.389159631 203.971789026 438.389159631 c 0,120,121
 263.238913813 438.389159631 263.238913813 438.389159631 308.778009074 483.928254893 c 2,122,-1
 344.133348134 519.283593952 l 2,123,124
 378.427217759 553.577463578 378.427217759 553.577463578 384.355339059 597 c 0,125,126
 385.414747939 602.767728469 385.414747939 602.767728469 385.414747939 608.226837813 c 0,127,128
 385.414747939 629.298186338 385.414747939 629.298186338 370.038883679 644.674050599 c 2,129,-1
 334.683544619 680.029389658 l 2,130,131
 308.590692049 706.122242228 308.590692049 706.122242228 260.711201074 706.122242228 c 0,132,133
 250.151733405 706.122242228 250.151733405 706.122242228 241 704.355339059 c 0,134,135
 225.521208551 699.487937705 225.521208551 699.487937705 215.724677359 689.691406513 c 2,136,-1
 180.3693383 654.336067454 l 2,137,138
 169.455899428 643.422628582 169.455899428 643.422628582 169.455899428 629.384818347 c 0,139,140
 169.455899428 614.829065457 169.455899428 614.829065457 179.760142078 604.524822807 c 128,-1,141
 190.064384728 594.220580157 190.064384728 594.220580157 204.620137618 594.220580157 c 0,142,143
 218.178190858 594.220580157 218.178190858 594.220580157 228.19021145 603.298106095 c 128,-1,144
 238.202232042 612.375632033 238.202232042 612.375632033 239.593001441 625.697654397 c 0,145,146
 241.592258322 644.848309357 241.592258322 644.848309357 251.080016418 654.336067454 c 1,147,-1
 215.724677359 618.980728395 l 1,148,149
 225.521208551 628.777259586 225.521208551 628.777259586 241 633.644660941 c 0,150,151
 250.151733405 635.41156411 250.151733405 635.41156411 260.711201074 635.41156411 c 0,152,153
 308.590692049 635.41156411 308.590692049 635.41156411 334.683544619 609.31871154 c 1,154,-1
 299.32820556 644.674050599 l 1,155,156
 314.704069821 629.298186338 314.704069821 629.298186338 314.704069821 608.226837813 c 0,157,158
 314.704069821 560.564993758 314.704069821 560.564993758 273.422670015 519.283593952 c 1,159,-1
 308.778009074 554.638933012 l 1,160,161
 263.238913813 509.09983775 263.238913813 509.09983775 203.971789026 509.09983775 c 0,162,163
 199.96367364 509.09983775 199.96367364 509.09983775 196 509.355339059 c 0,164,165
 190.131192875 509.078574688 190.131192875 509.078574688 185.462380065 509.078574688 c 0,166,167
 165.437335628 509.078574688 165.437335628 509.078574688 158.595123089 515.920787226 c 1,168,-1
 193.950462149 480.565448167 l 1,169,170
 191.351358265 483.16455205 191.351358265 483.16455205 185.951996387 492.844224802 c 128,-1,171
 180.552634508 502.523897554 180.552634508 502.523897554 174.355339059 510 c 1,172,173
 172.947741335 519.466997914 172.947741335 519.466997914 172.947741335 528.91436497 c 0,174,175
 172.947741335 581.750207253 172.947741335 581.750207253 211.81513768 620.617603598 c 1,176,-1
 176.459798621 585.262264539 l 1,177,178
 202.344398835 611.146864753 202.344398835 611.146864753 238 621.644660941 c 2,179,-1
 257.158078973 627.285222362 l 2,180,181
 267.827493319 630.426533505 267.827493319 630.426533505 274.659288828 639.418719517 c 128,-1,182
 281.491084337 648.41090553 281.491084337 648.41090553 281.491084337 659.826071345 c 0,183,184
 281.491084337 673.865090259 281.491084337 673.865090259 271.552645663 683.803528933 c 128,-1,185
 261.614206989 693.741967607 261.614206989 693.741967607 247.575188075 693.741967607 c 0,186,187
 236.788363788 693.741967607 236.788363788 693.741967607 215.518787705 683.752161633 c 128,-1,188
 194.249211622 673.762355659 194.249211622 673.762355659 176.459798621 655.972942658 c 2,189,-1
 141.104459562 620.617603598 l 2,190,191
 102.237063217 581.750207253 102.237063217 581.750207253 102.237063217 528.91436497 c 0,108,109
EndSplineSet
Validated: 524293
EndChar

StartChar: ampersand
Encoding: 38 38 72
Width: 1000
LayerCount: 2
Fore
SplineSet
676 425.355339059 m 0,0,1
 634.136908464 426.999587842 634.136908464 426.999587842 550.266231285 448.689476908 c 128,-1,2
 466.395554107 470.379365974 466.395554107 470.379365974 421.590277551 470.379365974 c 0,3,4
 419.796895678 470.379365974 419.796895678 470.379365974 418 470.355339059 c 0,5,6
 326.079570802 462.793291358 326.079570802 462.793291358 286 434.355339059 c 2,7,-1
 252.628692475 410.677150082 l 2,8,9
 240.453015586 402.038052616 240.453015586 402.038052616 240.453015586 387.145243043 c 0,10,11
 240.453015586 375.209624011 240.453015586 375.209624011 248.902424944 366.760214653 c 128,-1,12
 257.351834301 358.310805296 257.351834301 358.310805296 269.287453333 358.310805296 c 0,13,14
 278.472991342 358.310805296 278.472991342 358.310805296 285.946214192 363.613336004 c 0,15,16
 326.079570802 392.08261324 326.079570802 392.08261324 418 399.644660941 c 0,17,18
 419.796912856 399.668793012 419.796912856 399.668793012 421.590277551 399.668687856 c 0,19,20
 466.396973737 399.668687856 466.396973737 399.668687856 550.266067515 377.978833101 c 128,-1,21
 634.135161293 356.288978347 634.135161293 356.288978347 676 354.644660941 c 0,22,23
 677.171503449 355.291236251 677.171503449 355.291236251 680.417066614 355.291236251 c 0,24,25
 682.268384751 355.291236251 682.268384751 355.291236251 687.645441556 354.947372516 c 128,-1,26
 693.022498361 354.603508781 693.022498361 354.603508781 696.015604875 354.603508781 c 0,27,28
 706.35331108 354.603508781 706.35331108 354.603508781 709.898893508 358.14909121 c 2,29,-1
 745.254232568 393.504430269 l 2,30,31
 747.348557677 395.598755379 747.348557677 395.598755379 747.355339059 399 c 2,32,-1
 712 434.355339059 l 1,33,34
 600.815059592 467.217902054 600.815059592 467.217902054 531.339634527 536.693327119 c 1,35,-1
 566.694973587 501.33798806 l 1,36,37
 506.279472102 561.753489544 506.279472102 561.753489544 492.355339059 639 c 1,38,-1
 421.644660941 639 l 1,39,40
 447.516305286 611.561483146 447.516305286 611.561483146 459.403834483 546.371103672 c 128,-1,41
 471.29136368 481.180724199 471.29136368 481.180724199 471.211719976 418.237926439 c 128,-1,42
 471.132076271 355.29512868 471.132076271 355.29512868 474.275388446 299.825350645 c 128,-1,43
 477.418700621 244.35557261 477.418700621 244.35557261 487.928876443 233.845396789 c 2,44,-1
 523.284215502 198.49005773 l 2,45,46
 526.309249595 195.465023637 526.309249595 195.465023637 530.100328414 195.465023637 c 0,47,48
 531.026183701 195.465023637 531.026183701 195.465023637 532 195.644660941 c 2,49,-1
 544.614560014 197.971635287 l 2,50,51
 556.878216347 200.226070885 556.878216347 200.226070885 564.991997469 209.857076415 c 128,-1,52
 573.105778591 219.488081946 573.105778591 219.488081946 573.105778591 232.163812524 c 0,53,54
 573.105778591 246.555849825 573.105778591 246.555849825 562.91743274 256.744195676 c 128,-1,55
 552.729086889 266.932541527 552.729086889 266.932541527 538.337049588 266.932541527 c 0,56,57
 535.761618908 266.932541527 535.761618908 266.932541527 533.257465924 266.554121642 c 128,-1,58
 530.753312941 266.175701756 530.753312941 266.175701756 530.100328414 266.175701756 c 0,59,60
 526.309249595 266.175701756 526.309249595 266.175701756 523.284215502 269.200735849 c 1,61,-1
 558.639554561 233.845396789 l 1,62,63
 548.129226493 244.355724858 548.129226493 244.355724858 544.985938217 299.825475287 c 128,-1,64
 541.842649941 355.295225717 541.842649941 355.295225717 541.922398468 418.237915477 c 128,-1,65
 542.002146994 481.180605237 542.002146994 481.180605237 530.114641468 546.370963303 c 128,-1,66
 518.227135942 611.56132137 518.227135942 611.56132137 492.355339059 639 c 2,67,-1
 457 674.355339059 l 1,68,-1
 421.644660941 639 l 1,69,70
 435.568793984 561.753489544 435.568793984 561.753489544 495.984295468 501.33798806 c 2,71,-1
 531.339634527 465.982649 l 2,72,73
 600.815059592 396.507223936 600.815059592 396.507223936 712 363.644660941 c 1,74,-1
 676.644660941 399 l 1,75,76
 676.637879559 395.598755379 676.637879559 395.598755379 674.543554449 393.504430269 c 1,77,-1
 709.898893508 428.859769329 l 1,78,79
 706.35331108 425.3141869 706.35331108 425.3141869 696.015604875 425.3141869 c 0,80,81
 693.022498361 425.3141869 693.022498361 425.3141869 687.645441556 425.658050635 c 128,-1,82
 682.268384751 426.00191437 682.268384751 426.00191437 680.417066614 426.00191437 c 0,83,84
 677.171503449 426.00191437 677.171503449 426.00191437 676 425.355339059 c 0,0,1
EndSplineSet
Validated: 524325
EndChar

StartChar: parenleft
Encoding: 40 40 73
Width: 1000
LayerCount: 2
Fore
SplineSet
588.355339059 714 m 2,0,-1
 588.355339059 723 l 1,1,-1
 553 758.355339059 l 1,2,-1
 538 758.355339059 l 1,3,4
 461.078476097 738.090339191 461.078476097 738.090339191 404.74159324 681.753456334 c 2,5,-1
 369.386254181 646.398117275 l 2,6,7
 325.675833445 602.687696539 325.675833445 602.687696539 301.700877058 544.086708758 c 128,-1,8
 277.725920672 485.485720977 277.725920672 485.485720977 277.725920672 421.590598545 c 0,9,10
 277.725920672 399.7216517 277.725920672 399.7216517 280.644660941 378 c 0,11,12
 280.618095013 376.137249652 280.618095013 376.137249652 280.618100227 374.251125686 c 0,13,14
 280.618100227 316.447998704 280.618100227 316.447998704 303.213897416 252.805248473 c 128,-1,15
 325.809694605 189.162498241 325.809694605 189.162498241 365.889407999 149.082784847 c 2,16,-1
 401.244747059 113.727445788 l 2,17,18
 438.493510972 76.4786818749 438.493510972 76.4786818749 484 69.6446609407 c 1,19,-1
 562.445079349 83.9074026405 l 2,20,21
 574.746476829 86.1363292052 574.746476829 86.1363292052 582.892156885 95.7812016115 c 128,-1,22
 591.037836941 105.426074018 591.037836941 105.426074018 591.037836941 118.131780501 c 0,23,24
 591.037836941 132.530575418 591.037836941 132.530575418 580.844707269 142.72370509 c 128,-1,25
 570.651577597 152.916834763 570.651577597 152.916834763 556.25278268 152.916834763 c 0,26,27
 553.088226369 152.916834763 553.088226369 152.916834763 484 140.355339059 c 1,28,29
 438.493510972 147.189359994 438.493510972 147.189359994 401.244747059 184.438123907 c 1,30,-1
 436.600086118 149.082784847 l 1,31,32
 396.520372724 189.162498241 396.520372724 189.162498241 373.924575535 252.805248473 c 128,-1,33
 351.328778346 316.447998704 351.328778346 316.447998704 351.328778346 374.251125686 c 0,34,35
 351.328778346 376.137075628 351.328778346 376.137075628 351.355339059 378 c 0,36,37
 348.436598791 399.7216517 348.436598791 399.7216517 348.436598791 421.590598545 c 0,38,39
 348.436598791 485.485720977 348.436598791 485.485720977 372.411555177 544.086708758 c 128,-1,40
 396.386511563 602.687696539 396.386511563 602.687696539 440.096932299 646.398117275 c 1,41,-1
 404.74159324 611.042778215 l 1,42,43
 461.078476097 667.379661073 461.078476097 667.379661073 538 687.644660941 c 1,44,-1
 553 687.644660941 l 1,45,-1
 517.644660941 723 l 1,46,-1
 517.644660941 714 l 2,47,48
 517.644660941 699.365143532 517.644660941 699.365143532 528.004902236 689.004902236 c 128,-1,49
 538.365143532 678.644660941 538.365143532 678.644660941 553 678.644660941 c 128,-1,50
 567.634856468 678.644660941 567.634856468 678.644660941 577.995097764 689.004902236 c 128,-1,51
 588.355339059 699.365143532 588.355339059 699.365143532 588.355339059 714 c 2,0,-1
EndSplineSet
Validated: 524325
EndChar

StartChar: parenright
Encoding: 41 41 74
Width: 1000
LayerCount: 2
Fore
SplineSet
434.409527878 723.611510509 m 0,0,1
 431.690041306 723.611510509 431.690041306 723.611510509 427.24790497 721.19559527 c 128,-1,2
 422.805768634 718.779680031 422.805768634 718.779680031 420.62743059 718.779680031 c 0,3,4
 419.283519879 718.779680031 419.283519879 718.779680031 418 719.355339059 c 2,5,-1
 406 719.355339059 l 1,6,-1
 406 648.644660941 l 1,7,-1
 440.284271247 665.786796564 l 2,8,9
 457.79563535 674.542478616 457.79563535 674.542478616 457.79563535 694.089508386 c 0,10,11
 457.79563535 707.179321947 457.79563535 707.179321947 448.52915383 716.445803467 c 128,-1,12
 439.262672309 725.712284988 439.262672309 725.712284988 426.172858748 725.712284988 c 0,13,14
 418.713891856 725.712284988 418.713891856 725.712284988 406 719.355339059 c 1,15,-1
 370.644660941 684 l 1,16,-1
 406 648.644660941 l 1,17,-1
 418 648.644660941 l 2,18,19
 419.283519879 648.069001913 419.283519879 648.069001913 420.62743059 648.069001913 c 0,20,21
 422.805768634 648.069001913 422.805768634 648.069001913 427.24790497 650.484917152 c 128,-1,22
 431.690041306 652.900832391 431.690041306 652.900832391 434.409527878 652.900832391 c 0,23,24
 436.704072147 652.900832391 436.704072147 652.900832391 439 651.644660941 c 0,25,26
 542.562327749 632.672561688 542.562327749 632.672561688 594.301511441 580.933377997 c 1,27,-1
 558.946172382 616.288717056 l 1,28,29
 599.234958461 575.999930977 599.234958461 575.999930977 599.234958461 520.544755745 c 0,30,31
 599.234958461 446.643308945 599.234958461 446.643308945 556.462227454 363.93306194 c 128,-1,32
 513.689496448 281.222814935 513.689496448 281.222814935 455.814932991 223.348251478 c 1,33,-1
 491.17027205 258.703590537 l 1,34,35
 435.779413385 203.312731872 435.779413385 203.312731872 388 191.355339059 c 2,36,-1
 371.34678516 187.187664797 l 2,37,38
 360.032552064 184.366112742 360.032552064 184.366112742 352.696652302 175.10462801 c 128,-1,39
 345.360752541 165.843143277 345.360752541 165.843143277 345.360752541 153.918981853 c 0,40,41
 345.360752541 139.721962734 345.360752541 139.721962734 355.411042004 129.671673271 c 128,-1,42
 365.461331467 119.621383808 365.461331467 119.621383808 379.658350586 119.621383808 c 0,43,44
 387.228816664 119.621383808 387.228816664 119.621383808 400.206003142 123.928130852 c 128,-1,45
 413.18318962 128.234877896 413.18318962 128.234877896 438.95708471 144.894249032 c 128,-1,46
 464.7309798 161.553620168 464.7309798 161.553620168 491.17027205 187.992912418 c 2,47,-1
 526.525611109 223.348251478 l 2,48,49
 584.018102066 280.840742434 584.018102066 280.840742434 625.3070833 360.420828931 c 128,-1,50
 666.596064534 440.000915428 666.596064534 440.000915428 669.355339059 507 c 0,51,52
 669.945636579 513.873545861 669.945636579 513.873545861 669.945636579 520.544755745 c 0,53,54
 669.945636579 575.999930977 669.945636579 575.999930977 629.6568505 616.288717056 c 2,55,-1
 594.301511441 651.644056115 l 2,56,57
 542.562327749 703.383239807 542.562327749 703.383239807 439 722.355339059 c 0,58,59
 436.704072147 723.611510509 436.704072147 723.611510509 434.409527878 723.611510509 c 0,0,1
EndSplineSet
Validated: 524325
EndChar

StartChar: asterisk
Encoding: 42 42 75
Width: 1000
LayerCount: 2
Fore
SplineSet
356.495772003 679.953703907 m 2,0,1
 342.136023735 688.756935481 342.136023735 688.756935481 342.136023735 705.635446651 c 0,2,3
 342.136023735 718.113143604 342.136023735 718.113143604 350.969178439 726.946298308 c 128,-1,4
 359.802333143 735.779453012 359.802333143 735.779453012 372.280030096 735.779453012 c 0,5,6
 380.781708814 735.779453012 380.781708814 735.779453012 388 731.355339059 c 2,7,-1
 605.504227997 598.046296093 l 2,8,9
 619.928264455 589.205757619 619.928264455 589.205757619 619.928264455 572.326403685 c 0,10,11
 619.928264455 559.848706732 619.928264455 559.848706732 611.095109751 551.015552028 c 128,-1,12
 602.261955046 542.182397323 602.261955046 542.182397323 589.784258093 542.182397323 c 0,13,14
 581.283742286 542.182397323 581.283742286 542.182397323 574 546.644660941 c 2,15,-1
 356.495772003 679.953703907 l 2,0,1
498.683370488 774.894199136 m 0,16,17
 511.389984252 774.894199136 511.389984252 774.894199136 520.385192708 765.89899068 c 128,-1,18
 529.380401164 756.903782224 529.380401164 756.903782224 529.380401164 744.19716846 c 0,19,20
 529.380401164 736.043858683 529.380401164 736.043858683 525.355339059 729 c 2,21,-1
 453.355339059 603 l 1,22,-1
 398.001057239 535.344766665 l 2,23,24
 389.775161787 525.290894445 389.775161787 525.290894445 376.813786777 525.290894445 c 0,25,26
 365.487032791 525.290894445 365.487032791 525.290894445 357.468648419 533.309278818 c 128,-1,27
 349.450264047 541.32766319 349.450264047 541.32766319 349.450264047 552.654417176 c 0,28,29
 349.450264047 562.407097162 349.450264047 562.407097162 355.644660941 570 c 2,30,-1
 382.644660941 603 l 1,31,-1
 472.050366324 759.45998442 l 2,32,33
 480.867479834 774.894199136 480.867479834 774.894199136 498.683370488 774.894199136 c 0,16,17
406.645569456 715.53184423 m 0,34,35
 406.645569456 728.805790288 406.645569456 728.805790288 416.042401219 738.202622051 c 128,-1,36
 425.439232982 747.599453814 425.439232982 747.599453814 438.71317904 747.599453814 c 0,37,38
 459.184164074 747.599453814 459.184164074 747.599453814 467.815879876 729.008065934 c 0,39,40
 519.355339059 618 519.355339059 618 561.355339059 525 c 0,41,42
 564.194649928 518.712954505 564.194649928 518.712954505 564.194649928 511.764378833 c 0,43,44
 564.194649928 498.426600918 564.194649928 498.426600918 554.752630606 488.984581595 c 128,-1,45
 545.310611283 479.542562273 545.310611283 479.542562273 531.972833368 479.542562273 c 0,46,47
 511.158377461 479.542562273 511.158377461 479.542562273 502.623306499 498.475856263 c 0,48,49
 448.644660941 618 448.644660941 618 409.644660941 702 c 0,50,51
 406.645569456 708.431706544 406.645569456 708.431706544 406.645569456 715.53184423 c 0,34,35
548.28019349 736.249615834 m 0,52,53
 560.496971833 736.249615834 560.496971833 736.249615834 569.145418216 727.601169451 c 128,-1,54
 577.793864599 718.952723068 577.793864599 718.952723068 577.793864599 706.735944725 c 0,55,56
 577.793864599 690.849124825 577.793864599 690.849124825 564.500144485 682.080926452 c 2,57,-1
 391 567.644660941 l 2,58,59
 383.633655377 562.786008104 383.633655377 562.786008104 374.780049005 562.786008104 c 0,60,61
 362.563270662 562.786008104 362.563270662 562.786008104 353.914824279 571.434454488 c 128,-1,62
 345.266377896 580.082900871 345.266377896 580.082900871 345.266377896 592.299679214 c 0,63,64
 345.266377896 608.190609586 345.266377896 608.190609586 358.499855515 616.919073548 c 2,65,-1
 532 731.355339059 l 2,66,67
 539.430174014 736.249615834 539.430174014 736.249615834 548.28019349 736.249615834 c 0,52,53
EndSplineSet
Validated: 526341
EndChar

StartChar: plus
Encoding: 43 43 76
Width: 1000
LayerCount: 2
Fore
SplineSet
505.290022803 551.969312809 m 0,0,1
 505.290022803 555.706002144 505.290022803 555.706002144 503.872144518 564.608719187 c 128,-1,2
 502.454266234 573.511436231 502.454266234 573.511436231 502.454266234 577.417704059 c 0,3,4
 502.454266234 583.783136236 502.454266234 583.783136236 505.192005584 586.520875587 c 1,5,-1
 469.836666525 551.165536527 l 1,6,7
 470.75585126 552.084721262 470.75585126 552.084721262 498.46365649 564.554853697 c 0,8,9
 517.498688534 573.121731099 517.498688534 573.121731099 517.498688534 593.971507777 c 0,10,11
 517.498688534 607.317056089 517.498688534 607.317056089 508.051168427 616.764576195 c 128,-1,12
 498.603648321 626.212096302 498.603648321 626.212096302 485.258100009 626.212096302 c 0,13,14
 474.172548181 626.212096302 474.172548181 626.212096302 469.836666525 621.876214646 c 2,15,-1
 434.481327466 586.520875587 l 2,16,17
 431.743588115 583.783136236 431.743588115 583.783136236 431.743588115 577.417704059 c 0,18,19
 431.743588115 573.511436231 431.743588115 573.511436231 433.1614664 564.608719187 c 128,-1,20
 434.579344684 555.706002144 434.579344684 555.706002144 434.579344684 551.969312809 c 0,21,22
 434.579344684 551.07329965 434.579344684 551.07329965 434.158395573 548.677861075 c 128,-1,23
 433.737446462 546.2824225 433.737446462 546.2824225 433.316497351 539.910334641 c 128,-1,24
 432.89554824 533.538246783 432.89554824 533.538246783 432.89554824 522.984656792 c 0,25,26
 432.89554824 487.968220706 432.89554824 487.968220706 442.650447612 418.644495049 c 128,-1,27
 452.405346985 349.320769392 452.405346985 349.320769392 452.405346985 314.225554747 c 0,28,29
 452.405346985 302.261710937 452.405346985 302.261710937 451.644660941 291 c 0,30,31
 452.019076453 288.922241886 452.019076453 288.922241886 452.019076453 286.525964726 c 0,32,33
 452.019076453 277.963377907 452.019076453 277.963377907 445.632533138 259.702745453 c 128,-1,34
 439.245989823 241.442112999 439.245989823 241.442112999 439.245989823 235.693259468 c 0,35,36
 439.245989823 231.193602629 439.245989823 231.193602629 441.542398561 228.897193891 c 0,37,38
 477.395400092 193.04419236 477.395400092 193.04419236 478 192.644660941 c 0,39,40
 485.435675508 187.731021446 485.435675508 187.731021446 494.300764054 187.731021446 c 0,41,42
 506.505509627 187.731021446 506.505509627 187.731021446 515.145437827 196.370949646 c 128,-1,43
 523.785366027 205.010877846 523.785366027 205.010877846 523.785366027 217.21562342 c 0,44,45
 523.785366027 233.058379838 523.785366027 233.058379838 510.54152338 241.822056869 c 2,46,-1
 478 263.355339059 l 1,47,-1
 512.253076679 228.897193891 l 1,48,49
 509.956667941 231.193602629 509.956667941 231.193602629 509.956667941 235.693259468 c 0,50,51
 509.956667941 241.442112999 509.956667941 241.442112999 516.343211256 259.702745453 c 128,-1,52
 522.729754571 277.963377907 522.729754571 277.963377907 522.729754571 286.525964726 c 0,53,54
 522.729754571 288.922241886 522.729754571 288.922241886 522.355339059 291 c 0,55,56
 523.116025104 302.261710937 523.116025104 302.261710937 523.116025104 314.225554747 c 0,57,58
 523.116025104 349.320769392 523.116025104 349.320769392 513.361125731 418.644495049 c 128,-1,59
 503.606226359 487.968220706 503.606226359 487.968220706 503.606226359 522.984656792 c 0,60,61
 503.606226359 533.538246783 503.606226359 533.538246783 504.02717547 539.910334641 c 128,-1,62
 504.448124581 546.2824225 504.448124581 546.2824225 504.869073692 548.677861075 c 128,-1,63
 505.290022803 551.07329965 505.290022803 551.07329965 505.290022803 551.969312809 c 0,0,1
643.569915032 382.972498793 m 0,64,65
 649.456388474 382.972498793 649.456388474 382.972498793 655.790930119 382.82646428 c 128,-1,66
 662.125471763 382.680429767 662.125471763 382.680429767 667.032918894 382.472011578 c 128,-1,67
 671.940366025 382.26359339 671.940366025 382.26359339 675.919889217 382.055175201 c 128,-1,68
 679.899412409 381.846757012 679.899412409 381.846757012 682.212950316 381.700722499 c 128,-1,69
 684.526488223 381.554687986 684.526488223 381.554687986 684.536110049 381.554687986 c 0,70,71
 699.134011462 381.554687986 699.134011462 381.554687986 709.468091703 391.888768227 c 128,-1,72
 719.802171944 402.222848468 719.802171944 402.222848468 719.802171944 416.820749881 c 0,73,74
 719.802171944 430.733237776 719.802171944 430.733237776 710.315945255 440.875269776 c 128,-1,75
 700.829718565 451.017301775 700.829718565 451.017301775 687.072220099 451.996838821 c 0,76,77
 682 452.355339059 682 452.355339059 682 452.355339059 c 2,78,79
 663.350652036 453.683176912 663.350652036 453.683176912 643.569915032 453.683176912 c 0,80,81
 582.536873196 453.683176912 582.536873196 453.683176912 462.175757816 434.898418227 c 128,-1,82
 341.814642436 416.113659542 341.814642436 416.113659542 281.541013982 416.113659542 c 0,83,84
 273.154846129 416.113659542 273.154846129 416.113659542 265 416.355339059 c 1,85,-1
 229.644660941 381 l 1,86,-1
 264.756841709 416.103018958 l 1,87,88
 262.09870785 413.4448851 262.09870785 413.4448851 258.052359703 413.4448851 c 0,89,90
 252.146292587 413.4448851 252.146292587 413.4448851 247.797559134 417.793618553 c 1,91,-1
 283.152898193 382.438279494 l 1,92,93
 280.760732137 384.83044555 280.760732137 384.83044555 280.760732137 387.155303355 c 0,94,95
 280.760732137 388.752930293 280.760732137 388.752930293 281.987071339 389.979269496 c 1,96,-1
 246.63173228 354.623930437 l 1,97,98
 249.708716234 357.700914391 249.708716234 357.700914391 259.35354703 357.700914391 c 0,99,100
 259.860036692 357.700914391 259.860036692 357.700914391 263.037073487 357.624591981 c 0,101,102
 278.044483481 357.615545701 278.044483481 357.615545701 288.396064741 367.967126961 c 128,-1,103
 298.747646001 378.318708221 298.747646001 378.318708221 298.747646001 392.941331539 c 0,104,105
 298.747646001 407.168012407 298.747646001 407.168012407 288.88846472 417.413315409 c 128,-1,106
 279.02928344 427.658618411 279.02928344 427.658618411 264.88815808 428.237175581 c 0,107,108
 260.625050161 428.411592509 260.625050161 428.411592509 259.35354703 428.411592509 c 0,109,110
 249.708716234 428.411592509 249.708716234 428.411592509 246.63173228 425.334608555 c 2,111,-1
 211.276393221 389.979269496 l 2,112,113
 210.050054018 388.752930293 210.050054018 388.752930293 210.050054018 387.155303355 c 0,114,115
 210.050054018 384.83044555 210.050054018 384.83044555 212.442220075 382.438279494 c 2,116,-1
 247.797559134 347.082940434 l 2,117,118
 252.146292587 342.734206981 252.146292587 342.734206981 258.052359703 342.734206981 c 0,119,120
 262.09870785 342.734206981 262.09870785 342.734206981 264.756841709 345.39234084 c 2,121,-1
 300.112180768 380.747679899 l 1,122,-1
 265 345.644660941 l 1,123,124
 273.154846129 345.402981424 273.154846129 345.402981424 281.541013982 345.402981424 c 0,125,126
 341.814642436 345.402981424 341.814642436 345.402981424 462.175757816 364.187740109 c 128,-1,127
 582.536873196 382.972498793 582.536873196 382.972498793 643.569915032 382.972498793 c 0,64,65
EndSplineSet
Validated: 524293
EndChar

StartChar: hyphen
Encoding: 45 45 77
Width: 1000
LayerCount: 2
Fore
SplineSet
167.567398137 412.169131827 m 1,0,1
 167.533912352 412.169131827 167.533912352 412.169131827 165.294614942 412.309767492 c 128,-1,2
 163.055317532 412.450403158 163.055317532 412.450403158 159.534131699 412.651116195 c 128,-1,3
 156.012945867 412.851829233 156.012945867 412.851829233 152.023369067 413.05254227 c 128,-1,4
 148.033792268 413.253255308 148.033792268 413.253255308 143.764800666 413.393890974 c 128,-1,5
 139.495809064 413.534526639 139.495809064 413.534526639 136.495847153 413.534526639 c 0,6,7
 122.892579709 413.534526639 122.892579709 413.534526639 120.8234927 411.465439629 c 0,8,9
 85.1001210534 375.742067983 85.1001210534 375.742067983 85.1001210534 375.309105994 c 128,-1,10
 85.1001210534 374.691237799 85.1001210534 374.691237799 121.204866523 338.58649233 c 0,11,12
 127.004008263 332.78735059 127.004008263 332.78735059 138.958314821 332.78735059 c 0,13,14
 151.758426431 332.78735059 151.758426431 332.78735059 160.819823459 341.848747617 c 128,-1,15
 169.881220487 350.910144645 169.881220487 350.910144645 169.881220487 363.710256255 c 0,16,17
 169.881220487 381.927057155 169.881220487 381.927057155 153.916629643 390.775851569 c 2,18,-1
 124 407.355339059 l 2,19,20
 122.085580603 408.416456368 122.085580603 408.416456368 121.204866523 409.297170448 c 1,21,-1
 156.560205582 373.941831389 l 1,22,23
 155.810799172 374.691237799 155.810799172 374.691237799 155.810799172 375.309105994 c 1,24,-1
 120.8234927 340.754761511 l 1,25,26
 122.892579709 342.823848521 122.892579709 342.823848521 136.495847153 342.823848521 c 0,27,28
 139.495809064 342.823848521 139.495809064 342.823848521 143.764800666 342.683212855 c 128,-1,29
 148.033792268 342.542577189 148.033792268 342.542577189 152.023369067 342.341864152 c 128,-1,30
 156.012945867 342.141151114 156.012945867 342.141151114 159.534131699 341.940438077 c 128,-1,31
 163.055317532 341.739725039 163.055317532 341.739725039 165.294614942 341.599089374 c 128,-1,32
 167.533912352 341.458453708 167.533912352 341.458453708 167.567398137 341.458453708 c 0,33,-1
 203.203563261 376.848374685 l 1,34,-1
 167.848224202 412.203713745 l 2,35,36
 167.712276231 412.339661715 167.712276231 412.339661715 160 413.355339059 c 1,37,-1
 160 342.644660941 l 1,38,39
 170.329104673 342.834578126 170.329104673 342.834578126 180.904793434 342.834578126 c 0,40,41
 274.638631673 342.834578126 274.638631673 342.834578126 461.780780629 320.468374529 c 128,-1,42
 648.922929584 298.102170933 648.922929584 298.102170933 742.706796391 298.102170933 c 0,43,44
 781.273878079 298.102170933 781.273878079 298.102170933 822.006847874 301.000978951 c 0,45,46
 835.807056124 301.981099893 835.807056124 301.981099893 845.304059254 312.12116262 c 128,-1,47
 854.801062384 322.261225348 854.801062384 322.261225348 854.801062384 336.179079698 c 0,48,49
 854.801062384 350.777016361 854.801062384 350.777016361 844.466957189 361.111121556 c 128,-1,50
 834.132851994 371.445226751 834.132851994 371.445226751 819.534915331 371.445226751 c 0,51,52
 819.03962044 371.445226751 819.03962044 371.445226751 809.025225389 370.787132326 c 128,-1,53
 799.010830338 370.129037901 799.010830338 370.129037901 780.917091975 369.470943476 c 128,-1,54
 762.823353612 368.812849051 762.823353612 368.812849051 742.706796391 368.812849051 c 0,55,56
 648.922929584 368.812849051 648.922929584 368.812849051 461.780780629 391.179052648 c 128,-1,57
 274.638631673 413.545256244 274.638631673 413.545256244 180.904793434 413.545256244 c 0,58,59
 170.329104673 413.545256244 170.329104673 413.545256244 160 413.355339059 c 1,60,-1
 124.644660941 378 l 1,61,-1
 160 342.644660941 l 1,62,63
 167.712276231 341.628983596 167.712276231 341.628983596 167.848224202 341.493035626 c 1,64,-1
 132.49405756 376.836906824 l 1,65,-1
 167.567398137 412.169131827 l 1,0,1
EndSplineSet
Validated: 524293
EndChar

StartChar: slash
Encoding: 47 47 78
Width: 1000
LayerCount: 2
Fore
SplineSet
645.669617565 691.196006547 m 2,0,1
 654.376988995 708.722958936 654.376988995 708.722958936 673.994117594 708.722958936 c 0,2,3
 687.097481599 708.722958936 687.097481599 708.722958936 696.373555689 699.446884847 c 128,-1,4
 705.649629778 690.170810758 705.649629778 690.170810758 705.649629778 677.067446753 c 0,5,6
 705.649629778 669.622896966 705.649629778 669.622896966 702.355339059 663 c 2,7,-1
 400.330382435 55.8039934535 l 2,8,9
 391.581914656 38.215928022 391.581914656 38.215928022 371.96916097 38.215928022 c 0,10,11
 358.865796965 38.215928022 358.865796965 38.215928022 349.589722875 47.4920021114 c 128,-1,12
 340.313648786 56.7680762007 340.313648786 56.7680762007 340.313648786 69.871440206 c 0,13,14
 340.313648786 77.3230179799 340.313648786 77.3230179799 343.644660941 84 c 2,15,-1
 645.669617565 691.196006547 l 2,0,1
EndSplineSet
Validated: 524289
EndChar

StartChar: bracketleft
Encoding: 91 91 79
Width: 1000
LayerCount: 2
Fore
SplineSet
455.245723402 121.912318497 m 0,0,1
 437.620092182 121.912318497 437.620092182 121.912318497 404.973490637 127.033944372 c 128,-1,2
 372.326889092 132.155570247 372.326889092 132.155570247 358 132.644660941 c 0,3,4
 329.077781231 129.431081077 329.077781231 129.431081077 327.155824181 129.431081077 c 0,5,6
 312.610478379 129.431081077 312.610478379 129.431081077 302.313603068 139.727956389 c 128,-1,7
 292.016727756 150.0248317 292.016727756 150.0248317 292.016727756 164.570177502 c 0,8,9
 292.016727756 178.055407355 292.016727756 178.055407355 301.011764961 188.039084439 c 128,-1,10
 310.006802166 198.022761522 310.006802166 198.022761522 323.239071914 199.493013716 c 2,11,-1
 358 203.355339059 l 2,12,13
 372.338506026 202.865851787 372.338506026 202.865851787 404.975025283 197.744424201 c 128,-1,14
 437.61154454 192.622996615 437.61154454 192.622996615 455.245723402 192.622996615 c 0,15,16
 467.279995281 192.622996615 467.279995281 192.622996615 478 194.355339059 c 0,17,18
 479.476256795 194.27641381 479.476256795 194.27641381 480.952075287 194.27641381 c 0,19,20
 498.912072659 194.27641381 498.912072659 194.27641381 535 215.355339059 c 0,21,22
 542.101624347 219.503391325 542.101624347 219.503391325 550.365000174 219.503391325 c 0,23,24
 563.002066672 219.503391325 563.002066672 219.503391325 571.948041542 210.557416454 c 128,-1,25
 580.894016413 201.611441584 580.894016413 201.611441584 580.894016413 188.974375085 c 0,26,27
 580.894016413 171.450282523 580.894016413 171.450282523 565.795491015 162.632278988 c 2,28,-1
 535 144.644660941 l 2,29,30
 498.912072659 123.565735691 498.912072659 123.565735691 480.952075287 123.565735691 c 0,31,32
 479.476256795 123.565735691 479.476256795 123.565735691 478 123.644660941 c 0,33,34
 467.279995281 121.912318497 467.279995281 121.912318497 455.245723402 121.912318497 c 0,0,1
376.490352295 633.799330435 m 0,35,36
 376.490352295 641.702865761 376.490352295 641.702865761 370.608130539 662.712819075 c 128,-1,37
 364.725908784 683.722772388 364.725908784 683.722772388 364.725908784 691.752475466 c 0,38,39
 364.725908784 699.112211823 364.725908784 699.112211823 368.141631904 702.527934943 c 1,40,-1
 332.786292845 667.172595884 l 1,41,42
 334.465554544 668.851857582 334.465554544 668.851857582 357.147638526 675.947071372 c 0,43,44
 367.557991583 679.203548186 367.557991583 679.203548186 374.187743926 688.078410712 c 128,-1,45
 380.817496269 696.953273239 380.817496269 696.953273239 380.817496269 708.158344023 c 0,46,47
 380.817496269 722.125782775 380.817496269 722.125782775 370.929730299 732.013548745 c 128,-1,48
 361.041964329 741.901314716 361.041964329 741.901314716 347.074525576 741.901314716 c 0,49,50
 336.804333558 741.901314716 336.804333558 741.901314716 332.786292845 737.883274003 c 2,51,-1
 297.430953786 702.527934943 l 2,52,53
 294.015230665 699.112211823 294.015230665 699.112211823 294.015230665 691.752475466 c 0,54,55
 294.015230665 683.722772388 294.015230665 683.722772388 299.897452421 662.712819075 c 128,-1,56
 305.779674176 641.702865761 305.779674176 641.702865761 305.779674176 633.799330435 c 0,57,58
 305.779674176 626.623031076 305.779674176 626.623031076 302.462411738 623.305768638 c 1,59,-1
 337.817750797 658.661107697 l 1,60,61
 336.278571874 657.121928774 336.278571874 657.121928774 334 656.355339059 c 2,62,-1
 298.644660941 621 l 1,63,64
 297.827614401 605.2866021 297.827614401 605.2866021 297.827614401 588.432831174 c 0,65,66
 297.827614401 545.073513379 297.827614401 545.073513379 305.871177068 459.086335083 c 128,-1,67
 313.914739734 373.099156786 313.914739734 373.099156786 313.914739734 329.888106577 c 0,68,69
 313.914739734 296.522819439 313.914739734 296.522819439 310.644660941 267 c 1,70,71
 316.590729585 250.93756199 316.590729585 250.93756199 316.590729585 232.765105825 c 0,72,73
 316.590729585 210.374140965 316.590729585 210.374140965 303.462858005 166.473386406 c 0,74,75
 300.1734345 155.473265553 300.1734345 155.473265553 298.644660941 150 c 1,76,-1
 334 114.644660941 l 1,77,-1
 369.355339059 150 l 1,78,-1
 390.355339059 174 l 2,79,80
 396.943788959 181.552914027 396.943788959 181.552914027 396.943788959 191.534314476 c 0,81,82
 396.943788959 202.548166384 396.943788959 202.548166384 389.146912808 210.345042535 c 128,-1,83
 381.350036657 218.141918685 381.350036657 218.141918685 370.336184749 218.141918685 c 0,84,85
 358.26883979 218.141918685 358.26883979 218.141918685 350.306813399 209.042459953 c 2,86,-1
 298.644660941 150 l 1,87,-1
 369.355339059 150 l 1,88,89
 370.884112619 155.473265553 370.884112619 155.473265553 374.173536124 166.473386406 c 0,90,91
 387.301407704 210.374140965 387.301407704 210.374140965 387.301407704 232.765105825 c 0,92,93
 387.301407704 250.93756199 387.301407704 250.93756199 381.355339059 267 c 1,94,95
 384.625417853 296.522819439 384.625417853 296.522819439 384.625417853 329.888106577 c 0,96,97
 384.625417853 373.099156786 384.625417853 373.099156786 376.581855186 459.086335083 c 128,-1,98
 368.53829252 545.073513379 368.53829252 545.073513379 368.53829252 588.432831174 c 0,99,100
 368.53829252 605.2866021 368.53829252 605.2866021 369.355339059 621 c 1,101,-1
 334 585.644660941 l 1,102,103
 336.278571874 586.411250655 336.278571874 586.411250655 337.817750797 587.950429578 c 2,104,-1
 373.173089857 623.305768638 l 2,105,106
 376.490352295 626.623031076 376.490352295 626.623031076 376.490352295 633.799330435 c 0,35,36
515.139193126 746.374030937 m 0,107,108
 529.766189842 746.374030937 529.766189842 746.374030937 540.120867098 736.019353681 c 128,-1,109
 550.475544354 725.664676425 550.475544354 725.664676425 550.475544354 711.037679709 c 0,110,111
 550.475544354 696.728364428 550.475544354 696.728364428 540.516494906 686.457946216 c 128,-1,112
 530.557445458 676.187528005 530.557445458 676.187528005 516.31589335 675.72059187 c 0,113,114
 330.412466621 669.625397551 330.412466621 669.625397551 329.823299775 669.625397551 c 0,115,116
 315.196303059 669.625397551 315.196303059 669.625397551 304.841625803 679.980074807 c 128,-1,117
 294.486948547 690.334752063 294.486948547 690.334752063 294.486948547 704.961748779 c 0,118,119
 294.486948547 719.273958979 294.486948547 719.273958979 304.452073727 729.543041225 c 128,-1,120
 314.417198907 739.812123471 314.417198907 739.812123471 328.683663545 740.279393602 c 0,121,122
 514.570102271 746.374030937 514.570102271 746.374030937 515.139193126 746.374030937 c 0,107,108
EndSplineSet
Validated: 524325
EndChar

StartChar: backslash
Encoding: 92 92 80
Width: 1000
LayerCount: 2
Fore
SplineSet
496.032342148 158.298868916 m 0,0,1
 484.92073075 158.298868916 484.92073075 158.298868916 477.054649145 150.43278731 c 128,-1,2
 469.188567539 142.566705704 469.188567539 142.566705704 469.188567539 131.455094307 c 0,3,4
 469.188567539 121.532108969 469.188567539 121.532108969 475.644660941 114 c 2,5,-1
 493.644660941 93 l 1,6,-1
 529 57.6446609407 l 1,7,-1
 564.355339059 93 l 1,8,-1
 369.143229593 722.016797168 l 2,9,10
 365.901669629 732.461823721 365.901669629 732.461823721 357.010937569 739.118471122 c 128,-1,11
 348.12020551 745.775118524 348.12020551 745.775118524 336.886989416 745.775118524 c 0,12,13
 322.909762856 745.775118524 322.909762856 745.775118524 313.015067946 735.880423614 c 128,-1,14
 303.120373035 725.985728703 303.120373035 725.985728703 303.120373035 712.008502144 c 0,15,16
 303.120373035 706.843274956 303.120373035 706.843274956 304.644660941 702 c 2,17,-1
 493.644660941 93 l 1,18,-1
 564.355339059 93 l 1,19,-1
 546.355339059 114 l 2,20,21
 516.419998383 148.910245878 516.419998383 148.910245878 516.40728715 148.939393894 c 0,22,23
 508.364746545 158.298868916 508.364746545 158.298868916 496.032342148 158.298868916 c 0,0,1
EndSplineSet
Validated: 524293
EndChar

StartChar: bracketright
Encoding: 93 93 81
Width: 1000
LayerCount: 2
Fore
SplineSet
582.033271157 211.238729728 m 0,0,1
 595.846502728 211.238729728 595.846502728 211.238729728 605.625103049 201.460129407 c 128,-1,2
 615.40370337 191.681529086 615.40370337 191.681529086 615.40370337 177.868297515 c 0,3,4
 615.40370337 154.18595712 615.40370337 154.18595712 593.04787291 146.361416459 c 2,5,-1
 511 117.644660941 l 1,6,-1
 361 84.6446609407 l 2,7,8
 357.339458276 83.8393417614 357.339458276 83.8393417614 353.558542656 83.8393417614 c 0,9,10
 339.265491066 83.8393417614 339.265491066 83.8393417614 329.14721873 93.9576140966 c 128,-1,11
 319.028946395 104.075886432 319.028946395 104.075886432 319.028946395 118.368938022 c 0,12,13
 319.028946395 130.637537657 319.028946395 130.637537657 326.718458325 140.071315086 c 128,-1,14
 334.407970255 149.505092515 334.407970255 149.505092515 346.161727414 152.09091909 c 2,15,-1
 511 188.355339059 l 1,16,-1
 571 209.355339059 l 2,17,18
 576.322764346 211.238729728 576.322764346 211.238729728 582.033271157 211.238729728 c 0,0,1
515.136849969 708.536720564 m 0,19,20
 515.136849969 701.760036567 515.136849969 701.760036567 519.607148912 691.09035685 c 128,-1,21
 524.077447856 680.420677133 524.077447856 680.420677133 524.077447856 673.621981473 c 0,22,23
 524.077447856 673.567528768 524.077447856 673.567528768 518.688468233 609.381713654 c 128,-1,24
 513.299488609 545.195898539 513.299488609 545.195898539 507.910508986 472.818575221 c 128,-1,25
 502.521529363 400.441251903 502.521529363 400.441251903 502.521529363 380.493136417 c 0,26,27
 502.521529363 338.929627761 502.521529363 338.929627761 513.273770328 275.581670802 c 128,-1,28
 524.026011294 212.233713842 524.026011294 212.233713842 524.026011294 210.417587871 c 0,29,30
 524.026011294 200.98897685 524.026011294 200.98897685 517.833709087 183.312965736 c 128,-1,31
 511.64140688 165.636954622 511.64140688 165.636954622 511.64140688 156.513944256 c 0,32,33
 511.64140688 151.045468173 511.64140688 151.045468173 515.051635514 147.635239539 c 2,34,-1
 550.406974573 112.27990048 l 2,35,36
 551.365120699 111.321754354 551.365120699 111.321754354 552.255549541 111.321754354 c 128,-1,37
 552.95090034 111.321754354 552.95090034 111.321754354 553.548506889 111.919360903 c 2,38,-1
 588.903845949 147.274699962 l 2,39,40
 591.496492275 149.867346288 591.496492275 149.867346288 591.496492275 159.128125647 c 0,41,42
 591.496492275 173.703825926 591.496492275 173.703825926 581.17812856 184.02218964 c 128,-1,43
 570.859764846 194.340553354 570.859764846 194.340553354 556.284064568 194.340553354 c 0,44,45
 542.5731088 194.340553354 542.5731088 194.340553354 532.503346661 185.088210571 c 128,-1,46
 522.433584521 175.835867788 522.433584521 175.835867788 521.215151016 162.325684243 c 0,47,48
 520.022762794 149.104294927 520.022762794 149.104294927 518.19316783 147.274699962 c 1,49,-1
 553.548506889 182.630039022 l 1,50,51
 552.95090034 182.032432473 552.95090034 182.032432473 552.255549541 182.032432473 c 128,-1,52
 551.365120699 182.032432473 551.365120699 182.032432473 550.406974573 182.990578599 c 1,53,-1
 585.762313632 147.635239539 l 1,54,55
 582.352084999 151.045468173 582.352084999 151.045468173 582.352084999 156.513944256 c 0,56,57
 582.352084999 165.636954622 582.352084999 165.636954622 588.544387206 183.312965736 c 128,-1,58
 594.736689412 200.98897685 594.736689412 200.98897685 594.736689412 210.417587871 c 0,59,60
 594.736689412 212.233713842 594.736689412 212.233713842 583.984448447 275.581670802 c 128,-1,61
 573.232207482 338.929627761 573.232207482 338.929627761 573.232207482 380.493136417 c 0,62,63
 573.232207482 400.441251903 573.232207482 400.441251903 578.621187105 472.818575221 c 128,-1,64
 584.010166728 545.195898539 584.010166728 545.195898539 589.399146351 609.381713654 c 128,-1,65
 594.788125974 673.567528768 594.788125974 673.567528768 594.788125974 673.621981473 c 0,66,67
 594.788125974 680.496560959 594.788125974 680.496560959 577.969564816 721.030398177 c 0,68,69
 569.60375145 741.192557946 569.60375145 741.192557946 547.792687351 741.192557946 c 0,70,71
 534.275252484 741.192557946 534.275252484 741.192557946 524.706051227 731.623356688 c 128,-1,72
 515.136849969 722.054155431 515.136849969 722.054155431 515.136849969 708.536720564 c 0,19,20
354.238104755 642.440178786 m 0,73,74
 339.68894323 642.440178786 339.68894323 642.440178786 329.38936671 652.739755306 c 128,-1,75
 319.08979019 663.039331826 319.08979019 663.039331826 319.08979019 677.588493352 c 0,76,77
 319.08979019 691.099959732 319.08979019 691.099959732 328.114489574 701.093909665 c 128,-1,78
 337.139188959 711.087859598 337.139188959 711.087859598 350.403803845 712.529665564 c 2,79,-1
 496 728.355339059 l 1,80,81
 588.851947986 743.830663724 588.851947986 743.830663724 591.765978043 743.830663724 c 0,82,83
 606.201711539 743.830663724 606.201711539 743.830663724 616.420990602 733.61138466 c 128,-1,84
 626.640269666 723.392105596 626.640269666 723.392105596 626.640269666 708.956372101 c 0,85,86
 626.640269666 696.081742898 626.640269666 696.081742898 618.311938751 686.361835906 c 128,-1,87
 609.983607836 676.641928913 609.983607836 676.641928913 597.466858344 674.555803998 c 2,88,-1
 496 657.644660941 l 1,89,90
 356.118764175 642.440178786 356.118764175 642.440178786 354.238104755 642.440178786 c 0,73,74
EndSplineSet
Validated: 524293
EndChar

StartChar: two
Encoding: 50 50 82
Width: 1000
LayerCount: 2
Fore
SplineSet
459.331261877 675.201131884 m 0,0,1
 479.380718121 675.201131884 479.380718121 675.201131884 499 672.644660941 c 0,2,3
 566.835055395 669.000641128 566.835055395 669.000641128 611.818261982 624.017434541 c 1,4,-1
 576.462922922 659.3727736 l 1,5,6
 615.68298398 620.152712542 615.68298398 620.152712542 615.68298398 566.714091406 c 0,7,8
 615.68298398 548.895606171 615.68298398 548.895606171 607.699598192 510.184485694 c 128,-1,9
 599.716212403 471.473365217 599.716212403 471.473365217 582.170252414 414.583533445 c 128,-1,10
 564.624292426 357.693701672 564.624292426 357.693701672 527.023725048 292.381143122 c 128,-1,11
 489.423157671 227.068584572 489.423157671 227.068584572 439.556666615 177.202093516 c 1,12,-1
 474.912005675 212.557432575 l 1,13,14
 395.961066175 133.606493076 395.961066175 133.606493076 298 107.355339059 c 1,15,-1
 298 36.6446609407 l 1,16,17
 378.068170709 101.793838068 378.068170709 101.793838068 586 126.644660941 c 0,18,19
 590.82709403 128.243036195 590.82709403 128.243036195 595.868516949 128.243036195 c 0,20,21
 605.51695569 128.243036195 605.51695569 128.243036195 622.410722402 120.685455226 c 128,-1,22
 639.304489114 113.127874258 639.304489114 113.127874258 646 111.644660941 c 0,23,24
 656.59891272 109.296752206 656.59891272 109.296752206 665.954485969 107.188121585 c 128,-1,25
 675.310059217 105.079490964 675.310059217 105.079490964 681.603184442 103.626808652 c 128,-1,26
 687.896309666 102.174126341 687.896309666 102.174126341 693.31453334 100.90937246 c 128,-1,27
 698.732757013 99.6446185794 698.732757013 99.6446185794 701.929898954 98.8696374184 c 128,-1,28
 705.127040896 98.0946562573 705.127040896 98.0946562573 707.786190648 97.4639089034 c 128,-1,29
 710.4453404 96.8331615494 710.4453404 96.8331615494 711.724774713 96.5260113254 c 128,-1,30
 713.004209026 96.2188611014 713.004209026 96.2188611014 714.082560511 96.0122500612 c 128,-1,31
 715.160911997 95.805639021 715.160911997 95.805639021 715.700914335 95.7564495208 c 128,-1,32
 716.240916674 95.7072600206 716.240916674 95.7072600206 716.948274105 95.7072600206 c 0,33,34
 731.185153428 95.7072600206 731.185153428 95.7072600206 741.263660546 105.785767139 c 128,-1,35
 751.342167664 115.864274257 751.342167664 115.864274257 751.342167664 130.10115358 c 0,36,37
 751.342167664 142.161319533 751.342167664 142.161319533 743.871113106 151.496417564 c 128,-1,38
 736.400058548 160.831515595 736.400058548 160.831515595 724.932663525 163.561847744 c 2,39,-1
 646 182.355339059 l 2,40,41
 638.180668235 183.598591838 638.180668235 183.598591838 621.67208238 191.276153076 c 128,-1,42
 605.163496525 198.953714313 605.163496525 198.953714313 595.868516949 198.953714313 c 0,43,44
 590.82709403 198.953714313 590.82709403 198.953714313 586 197.355339059 c 0,45,46
 378.068170709 172.504516187 378.068170709 172.504516187 298 107.355339059 c 1,47,-1
 262.644660941 72 l 1,48,-1
 298 36.6446609407 l 1,49,50
 395.961066175 62.8958149569 395.961066175 62.8958149569 474.912005675 141.846754457 c 2,51,-1
 510.267344734 177.202093516 l 2,52,53
 560.145076855 227.079825637 560.145076855 227.079825637 597.749126145 292.404341046 c 128,-1,54
 635.353175436 357.728856455 635.353175436 357.728856455 652.894699852 414.623548279 c 128,-1,55
 670.436224268 471.518240103 670.436224268 471.518240103 678.414943184 510.216565946 c 128,-1,56
 686.393662099 548.91489179 686.393662099 548.91489179 686.393662099 566.714091406 c 0,57,58
 686.393662099 620.152712542 686.393662099 620.152712542 647.173601041 659.3727736 c 2,59,-1
 611.818261982 694.72811266 l 2,60,61
 566.835055395 739.711319247 566.835055395 739.711319247 499 743.355339059 c 0,62,63
 479.380718121 745.911810002 479.380718121 745.911810002 459.331261877 745.911810002 c 0,64,65
 405.193405963 745.911810002 405.193405963 745.911810002 355.179969012 727.653576029 c 128,-1,66
 305.166532062 709.395342055 305.166532062 709.395342055 270.067020371 674.295830365 c 2,67,-1
 234.711681312 638.940491306 l 2,68,69
 215.69103029 619.919840284 215.69103029 619.919840284 202.644660941 597 c 0,70,71
 198.641148642 589.966636158 198.641148642 589.966636158 198.641148642 581.832867351 c 0,72,73
 198.641148642 569.114156036 198.641148642 569.114156036 207.644921142 560.110383536 c 128,-1,74
 216.648693642 551.106611036 216.648693642 551.106611036 229.367404958 551.106611036 c 0,75,76
 247.233626783 551.106611036 247.233626783 551.106611036 256.090148975 566.665734703 c 2,77,-1
 273.355339059 597 l 2,78,79
 286.401708409 619.919840284 286.401708409 619.919840284 305.42235943 638.940491306 c 1,80,-1
 270.067020371 603.585152246 l 1,81,82
 305.166532062 638.684663937 305.166532062 638.684663937 355.179969012 656.94289791 c 128,-1,83
 405.193405963 675.201131884 405.193405963 675.201131884 459.331261877 675.201131884 c 0,0,1
EndSplineSet
Validated: 524325
EndChar

StartChar: one
Encoding: 49 49 83
Width: 1000
LayerCount: 2
Fore
SplineSet
424.639586175 194.406582311 m 0,0,1
 424.639586175 179.773863567 424.639586175 179.773863567 434.998314143 169.415135599 c 128,-1,2
 445.357042111 159.05640763 445.357042111 159.05640763 459.989760855 159.05640763 c 128,-1,3
 474.456509411 159.05640763 474.456509411 159.05640763 484.772243657 169.207889994 c 128,-1,4
 495.087977903 179.359372357 495.087977903 179.359372357 495.334683052 193.791623554 c 2,5,-1
 501.355339059 546 l 1,6,7
 506.092588022 566.557834593 506.092588022 566.557834593 507.210343917 614.513090574 c 128,-1,8
 508.328099812 662.468346555 508.328099812 662.468346555 516.355339059 687 c 1,9,-1
 445.644660941 687 l 1,10,-1
 485.239071914 637.506986284 l 2,11,12
 493.543802892 627.126072561 493.543802892 627.126072561 506.80750168 627.126072561 c 0,13,14
 518.235404626 627.126072561 518.235404626 627.126072561 526.325393912 635.216061847 c 128,-1,15
 534.415383199 643.306051133 534.415383199 643.306051133 534.415383199 654.73395408 c 0,16,17
 534.415383199 664.403671337 534.415383199 664.403671337 528.355339059 672 c 2,18,-1
 516.355339059 687 l 1,19,-1
 481 722.355339059 l 1,20,-1
 445.644660941 687 l 1,21,22
 437.623152323 662.485859651 437.623152323 662.485859651 436.499278612 614.507732524 c 128,-1,23
 435.375404902 566.529605396 435.375404902 566.529605396 430.644660941 546 c 1,24,25
 424.639586175 194.70312622 424.639586175 194.70312622 424.639586175 194.406582311 c 0,0,1
EndSplineSet
Validated: 524293
EndChar

StartChar: zero
Encoding: 48 48 84
Width: 1000
LayerCount: 2
Fore
SplineSet
484.644660941 616 m 2,0,1
 458.208940404 538.298133072 458.208940404 538.298133072 423.585212332 363.228396328 c 128,-1,2
 388.96148426 188.158659585 388.96148426 188.158659585 370.644660941 122 c 1,3,-1
 406 86.6446609407 l 1,4,-1
 441.355339059 122 l 1,5,6
 447.716674347 137.903338218 447.716674347 137.903338218 447.716674347 144.210593614 c 0,7,8
 447.716674347 157.798716718 447.716674347 157.798716718 438.097431792 167.417959274 c 128,-1,9
 428.478189236 177.037201829 428.478189236 177.037201829 414.890066132 177.037201829 c 0,10,11
 392.659541672 177.037201829 392.659541672 177.037201829 384.397857923 156.382992455 c 2,12,-1
 370.644660941 122 l 1,13,-1
 441.355339059 122 l 1,14,15
 459.707066624 188.284730467 459.707066624 188.284730467 494.302897457 363.260730696 c 128,-1,16
 528.898728291 538.236730925 528.898728291 538.236730925 555.355339059 616 c 0,17,18
 557.12985497 621.215791224 557.12985497 621.215791224 557.12985497 626.773564319 c 0,19,20
 557.12985497 640.628518784 557.12985497 640.628518784 547.321718367 650.436655387 c 128,-1,21
 537.513581764 660.24479199 537.513581764 660.24479199 523.658627299 660.24479199 c 0,22,23
 499.684112043 660.24479199 499.684112043 660.24479199 491.961915538 637.547128637 c 2,24,-1
 484.644660941 616 l 2,0,1
411.343340558 755.381327986 m 0,25,26
 411.11947139 755.381327986 411.11947139 755.381327986 409.356691204 755.343395692 c 0,27,28
 403.980336798 755.338109975 403.980336798 755.338109975 395.815780122 758.41231735 c 128,-1,29
 387.651223445 761.486524725 387.651223445 761.486524725 383.949739524 761.486524725 c 0,30,31
 382.955347712 761.486524725 382.955347712 761.486524725 382 761.355339059 c 0,32,33
 376.757576619 756.601112393 376.757576619 756.601112393 336.354006501 716.197542275 c 0,34,35
 224.368991585 604.212527359 224.368991585 604.212527359 214.644660941 372 c 0,36,37
 213.337445423 359.456327825 213.337445423 359.456327825 213.337445423 346.552781798 c 0,38,39
 213.337445423 295.11733302 213.337445423 295.11733302 233.043566582 245.562302804 c 128,-1,40
 252.749687741 196.007272587 252.749687741 196.007272587 287.857513965 160.899446363 c 2,41,-1
 323.212853024 125.544107303 l 2,42,43
 379.368924195 69.3880361328 379.368924195 69.3880361328 454.1822879 69.3880361328 c 0,44,45
 464.995018116 69.3880361328 464.995018116 69.3880361328 476 70.6446609407 c 0,46,47
 508.762087862 81.8840203466 508.762087862 81.8840203466 533.701587671 106.823520156 c 2,48,-1
 569.05692673 142.178859215 l 2,49,50
 594.436293999 167.558226483 594.436293999 167.558226483 611.468585445 204.632221372 c 128,-1,51
 628.500876891 241.70621626 628.500876891 241.70621626 636.7005953 290.262469029 c 128,-1,52
 644.900313708 338.818721799 644.900313708 338.818721799 647.833140326 369.465845232 c 128,-1,53
 650.765966945 400.112968666 650.765966945 400.112968666 653.355339059 450 c 0,54,55
 655.366118887 464.945536306 655.366118887 464.945536306 655.366118887 479.413035174 c 0,56,57
 655.366118887 561.655342652 655.366118887 561.655342652 591.749180536 625.272281004 c 2,58,-1
 556.393841476 660.627620063 l 2,59,60
 507.462457872 709.559003667 507.462457872 709.559003667 428 741.355339059 c 1,61,-1
 428 670.644660941 l 1,62,-1
 434 672.644660941 l 2,63,64
 455.202053051 679.698415473 455.202053051 679.698415473 455.213203436 679.715728753 c 0,65,66
 478.142035235 687.33520812 478.142035235 687.33520812 478.142035235 711.526860259 c 0,67,68
 478.142035235 725.410704159 478.142035235 725.410704159 468.313447353 735.23929204 c 128,-1,69
 458.484859472 745.067879921 458.484859472 745.067879921 444.601015572 745.067879921 c 0,70,71
 439.137622586 745.067879921 439.137622586 745.067879921 428 741.355339059 c 1,72,-1
 392.644660941 706 l 1,73,-1
 428 670.644660941 l 1,74,75
 507.462457872 638.848325549 507.462457872 638.848325549 556.393841476 589.916941944 c 1,76,-1
 521.038502417 625.272281004 l 1,77,78
 584.655440769 561.655342652 584.655440769 561.655342652 584.655440769 479.413035174 c 0,79,80
 584.655440769 464.945536306 584.655440769 464.945536306 582.644660941 450 c 0,81,82
 580.055288826 400.112968666 580.055288826 400.112968666 577.122462208 369.465845232 c 128,-1,83
 574.18963559 338.818721799 574.18963559 338.818721799 565.989917181 290.262469029 c 128,-1,84
 557.790198773 241.70621626 557.790198773 241.70621626 540.757907326 204.632221372 c 128,-1,85
 523.72561588 167.558226483 523.72561588 167.558226483 498.346248611 142.178859215 c 1,86,-1
 533.701587671 177.534198274 l 1,87,88
 508.762087862 152.594698465 508.762087862 152.594698465 476 141.355339059 c 0,89,90
 464.995018116 140.098714251 464.995018116 140.098714251 454.1822879 140.098714251 c 0,91,92
 379.368924195 140.098714251 379.368924195 140.098714251 323.212853024 196.254785422 c 1,93,-1
 358.568192083 160.899446363 l 1,94,95
 323.460365859 196.007272587 323.460365859 196.007272587 303.754244701 245.562302804 c 128,-1,96
 284.048123542 295.11733302 284.048123542 295.11733302 284.048123542 346.552781798 c 0,97,98
 284.048123542 359.456327825 284.048123542 359.456327825 285.355339059 372 c 0,99,100
 295.079669703 604.212527359 295.079669703 604.212527359 407.06468462 716.197542275 c 1,101,-1
 382 690.644660941 l 1,102,103
 382.955347712 690.775846607 382.955347712 690.775846607 383.949739524 690.775846607 c 0,104,105
 387.651223445 690.775846607 387.651223445 690.775846607 395.815780122 687.701639232 c 128,-1,106
 403.980336798 684.627431857 403.980336798 684.627431857 409.106166843 684.627431857 c 0,107,108
 427.737639028 684.627431857 427.737639028 684.627431857 437.204966667 695.813174618 c 128,-1,109
 446.672294306 706.998917379 446.672294306 706.998917379 446.672294306 720.052374237 c 0,110,111
 446.672294306 734.676308868 446.672294306 734.676308868 436.319784747 745.028818427 c 128,-1,112
 425.967275189 755.381327986 425.967275189 755.381327986 411.343340558 755.381327986 c 0,25,26
EndSplineSet
Validated: 524293
EndChar

